<svg width="543" height="640" viewBox="0 0 543 640" fill="none" xmlns="http://www.w3.org/2000/svg">
<path fill-rule="evenodd" clip-rule="evenodd" d="M96.699 156.205C63.8345 156.205 37.1925 129.563 37.1925 96.6988C37.1925 63.8342 63.8345 37.1922 96.699 37.1922C129.564 37.1922 156.206 63.8342 156.206 96.6987C156.206 129.563 129.564 156.205 96.699 156.205ZM96.699 193.397C43.2942 193.397 0.000943909 150.104 0.00093924 96.6988C0.000934571 43.2939 43.2941 0.00066925 96.699 0.000664582C150.104 0.000659913 193.397 43.2939 193.397 96.6987C193.397 150.104 150.104 193.397 96.699 193.397Z" fill="#766464"/>
<path fill-rule="evenodd" clip-rule="evenodd" d="M290.096 349.566C282.214 349.566 274.655 346.435 269.082 340.862C263.508 335.289 260.377 327.73 260.377 319.848C260.377 311.966 263.508 304.407 269.081 298.834C274.655 293.261 282.214 290.13 290.096 290.13L290.096 252.903C276.759 252.903 263.832 256.883 252.904 264.184C249.284 266.603 245.883 269.387 242.758 272.511C230.204 285.066 223.151 302.093 223.151 319.848C223.151 337.603 230.204 354.631 242.758 367.185C245.883 370.309 249.284 373.093 252.904 375.512C263.832 382.813 276.759 386.793 290.096 386.793L290.096 349.566Z" fill="#766464"/>
<path fill-rule="evenodd" clip-rule="evenodd" d="M516.959 587.627C484.459 587.627 453.29 542.617 430.309 498.259C407.328 453.901 403.876 393.738 403.876 331.005C403.876 268.273 407.328 208.11 430.309 163.752C453.29 119.393 484.459 70.6644 516.959 70.6644L516.959 22.3153C504.329 22.3153 491.853 25.1991 479.767 30.7778C451.266 43.9336 424.936 72.0764 403.875 112.729C373.884 170.619 357.035 249.136 357.035 331.005C357.035 412.875 373.884 491.392 403.876 549.282C424.936 589.934 451.266 618.077 479.767 631.233C491.853 636.812 504.329 639.695 516.959 639.695L516.959 587.627Z" fill="#766464"/>
<path fill-rule="evenodd" clip-rule="evenodd" d="M542.996 290.095L542.996 0.000652877L505.804 0.000656128L505.804 290.095L542.996 290.095Z" fill="#766464"/>
<path fill-rule="evenodd" clip-rule="evenodd" d="M542.996 639.695L542.996 349.601L505.804 349.601L505.804 639.695L542.996 639.695Z" fill="#766464"/>
<path fill-rule="evenodd" clip-rule="evenodd" d="M528.118 252.903L290.092 252.903L290.092 290.095L528.118 290.095L528.118 252.903Z" fill="#766464"/>
<path fill-rule="evenodd" clip-rule="evenodd" d="M542.994 349.602L290.091 349.602L290.091 386.793L542.994 386.793L542.994 349.602Z" fill="#766464"/>
<path fill-rule="evenodd" clip-rule="evenodd" d="M96.6956 37.1916L542.994 37.1916L542.994 0L96.6956 3.90167e-05L96.6956 37.1916Z" fill="#766464"/>
<path fill-rule="evenodd" clip-rule="evenodd" d="M446.302 156.206C479.167 156.206 505.808 129.564 505.808 96.6991C505.808 63.8345 479.167 37.1926 446.302 37.1926C413.437 37.1926 386.795 63.8345 386.795 96.6991C386.795 129.564 413.437 156.206 446.302 156.206ZM446.302 193.397C499.707 193.397 543 150.104 543 96.6991C543 43.2942 499.707 0.000981389 446.302 0.000990529C392.897 0.00099967 349.604 43.2942 349.604 96.6991C349.604 150.104 392.897 193.397 446.302 193.397Z" fill="#766464"/>
<path fill-rule="evenodd" clip-rule="evenodd" d="M252.905 349.567C260.787 349.567 268.346 346.436 273.919 340.863C279.493 335.289 282.624 327.73 282.624 319.848C282.624 311.967 279.493 304.408 273.919 298.834C268.346 293.261 260.787 290.13 252.905 290.13L252.905 252.904C266.242 252.904 279.168 256.883 290.097 264.185C293.717 266.604 297.118 269.387 300.242 272.511C312.797 285.066 319.85 302.094 319.85 319.848C319.85 337.603 312.797 354.631 300.242 367.186C297.118 370.31 293.717 373.093 290.097 375.512C279.168 382.814 266.242 386.793 252.905 386.793L252.905 349.567Z" fill="#766464"/>
<path fill-rule="evenodd" clip-rule="evenodd" d="M26.037 587.628C58.5369 587.628 89.7056 542.618 112.686 498.259C135.667 453.901 139.12 393.738 139.12 331.006C139.12 268.274 135.667 208.111 112.686 163.752C89.7056 119.394 58.5368 70.6648 26.037 70.6648L26.037 22.3157C38.667 22.3157 51.1429 25.1995 63.2286 30.7782C91.7293 43.934 118.059 72.0768 139.12 112.729C169.112 170.62 185.961 249.136 185.961 331.006C185.961 412.875 169.112 491.392 139.12 549.283C118.059 589.935 91.7293 618.078 63.2286 631.233C51.143 636.812 38.667 639.696 26.037 639.696L26.037 587.628Z" fill="#766464"/>
<path fill-rule="evenodd" clip-rule="evenodd" d="M0.000129761 290.095L8.01086e-05 0.00101345L37.1917 0.00100708L37.1917 290.095L0.000129761 290.095Z" fill="#766464"/>
<path fill-rule="evenodd" clip-rule="evenodd" d="M7.6903e-06 639.696L-4.19617e-05 349.601L37.1915 349.601L37.1916 639.696L7.6903e-06 639.696Z" fill="#766464"/>
<path fill-rule="evenodd" clip-rule="evenodd" d="M14.8813 252.903L252.907 252.903L252.907 290.095L14.8813 290.095L14.8813 252.903Z" fill="#766464"/>
<path fill-rule="evenodd" clip-rule="evenodd" d="M0.00466282 349.602L252.907 349.602L252.907 386.793L0.00466919 386.793L0.00466282 349.602Z" fill="#766464"/>
<path fill-rule="evenodd" clip-rule="evenodd" d="M446.32 37.1928L0.0214907 37.1929L0.0214844 0.00134277L446.32 0.00126639L446.32 37.1928Z" fill="#766464"/>
</svg>
