<svg width="22" height="22" viewBox="0 0 22 22" fill="none" xmlns="http://www.w3.org/2000/svg">
<path d="M11.3959 1.39654H11.8959V1.38072L11.8949 1.36493L11.3959 1.39654ZM11.0711 1.00383L11.1954 0.519533L11.1648 0.511684L11.1335 0.507744L11.0711 1.00383ZM11.3959 16.4195H10.8959V17.6263L11.7494 16.7731L11.3959 16.4195ZM17.1109 10.7066L16.8035 10.3123L16.7792 10.3312L16.7574 10.3529L17.1109 10.7066ZM17.4312 10.5914L17.384 11.0892L17.3844 11.0892L17.4312 10.5914ZM17.6763 11.2719L18.0298 11.6255L18.0409 11.6144L18.0513 11.6026L17.6763 11.2719ZM11.2788 17.6671L11.6097 18.042L11.6213 18.0317L11.6323 18.0208L11.2788 17.6671ZM11.0822 17.7612L10.996 17.2687L10.953 17.2763L10.9119 17.2911L11.0822 17.7612ZM10.7134 17.6671L10.3599 18.0208L10.3668 18.0277L10.374 18.0343L10.7134 17.6671ZM4.31591 11.2719L3.94898 11.6116L3.95556 11.6187L3.96242 11.6255L4.31591 11.2719ZM4.19768 10.9827L4.6953 11.0315L4.19768 10.9827ZM4.19995 10.958L4.69839 10.9975L4.6984 10.9973L4.19995 10.958ZM4.62999 10.5908L4.68864 10.0943L4.6692 10.092L4.64965 10.0912L4.62999 10.5908ZM4.88129 10.7066L5.23478 10.3529L5.22785 10.346L5.22066 10.3394L4.88129 10.7066ZM10.5963 16.4195L10.2428 16.7731L11.0963 17.6263V16.4195H10.5963ZM10.5963 1.39654L10.0972 1.36529L10.0963 1.3809V1.39654H10.5963ZM20.9922 10.9893H21.4922V10.9722L21.491 10.955L20.9922 10.9893ZM20.7263 10.6126L20.9255 10.154L20.8941 10.1404L20.8612 10.1312L20.7263 10.6126ZM20.9961 12.8587H21.4961L21.4961 12.8571L20.9961 12.8587ZM20.9961 12.8587H20.4961L20.4961 12.8603L20.9961 12.8587ZM20.9918 16.6397L21.4918 16.6472L21.4918 16.6445L20.9918 16.6397ZM16.6211 20.9816L16.6226 21.4817L16.6258 21.4816L16.6211 20.9816ZM14.6835 20.9882V21.4882L14.6853 21.4882L14.6835 20.9882ZM14.6831 20.9882V20.4882L14.6813 20.4882L14.6831 20.9882ZM5.34371 20.9814L5.33599 21.4814L5.33903 21.4814L5.34371 20.9814ZM1 16.6123H0.49998L0.50002 16.6168L1 16.6123ZM1 10.9893L0.508099 10.8997L0.5 10.9442V10.9893H1ZM1.31848 10.598L1.2168 10.1085L1.21679 10.1085L1.31848 10.598ZM1.79969 10.9893H2.29969V10.9722L2.29852 10.9552L1.79969 10.9893ZM1.79599 12.8621L1.29599 12.8606L1.79599 12.8621ZM1.79989 16.6297L1.2999 16.6342L1.29995 16.6376L1.79989 16.6297ZM5.3759 20.1822L5.37124 20.6822L5.37438 20.6822L5.3759 20.1822ZM7.31072 20.1888L7.30893 20.6888H7.31072V20.1888ZM7.31117 20.1888L7.31297 19.6888H7.31117V20.1888ZM16.6387 20.182L16.6434 20.682L16.6464 20.682L16.6387 20.182ZM20.1923 16.6073L20.6923 16.6121V16.6073L20.1923 16.6073ZM20.1925 10.9893L19.7083 10.8647L19.6925 10.926L19.6925 10.9893L20.1925 10.9893ZM11.8949 1.36493C11.8875 1.24784 11.869 1.0386 11.7313 0.850811C11.5858 0.652385 11.3765 0.566009 11.1954 0.519533L10.9468 1.48813C10.9866 1.49836 10.9951 1.50462 10.9872 1.50023C10.9824 1.49754 10.9729 1.49159 10.9609 1.48133C10.9487 1.47084 10.9362 1.45769 10.9248 1.44209C10.901 1.40961 10.8932 1.3823 10.8918 1.37674C10.8913 1.37468 10.892 1.37721 10.8932 1.38637C10.8944 1.39559 10.8957 1.40887 10.8969 1.42815L11.8949 1.36493ZM11.8959 16.4195V1.39654H10.8959V16.4195H11.8959ZM16.7574 10.3529L11.0425 16.0659L11.7494 16.7731L17.4644 11.0602L16.7574 10.3529ZM17.4784 10.0937C17.2606 10.073 17.0777 10.1521 16.9886 10.1969C16.9365 10.2231 16.8935 10.2496 16.8631 10.2698C16.8476 10.28 16.8347 10.2891 16.8247 10.2963C16.8198 10.2999 16.8155 10.3031 16.8119 10.3058C16.8101 10.3071 16.8085 10.3083 16.8071 10.3094C16.8064 10.31 16.8058 10.3105 16.8052 10.3109C16.8048 10.3112 16.8046 10.3114 16.8043 10.3116C16.8041 10.3117 16.804 10.3118 16.8039 10.312C16.8038 10.312 16.8037 10.3121 16.8037 10.3121C16.8036 10.3122 16.8035 10.3123 17.1109 10.7066C17.4184 11.1009 17.4183 11.1009 17.4182 11.101C17.4182 11.101 17.4181 11.1011 17.418 11.1011C17.4179 11.1012 17.4178 11.1013 17.4176 11.1014C17.4174 11.1016 17.4172 11.1018 17.4169 11.102C17.4165 11.1023 17.4161 11.1026 17.4157 11.1029C17.4149 11.1035 17.4143 11.104 17.4137 11.1044C17.4127 11.1052 17.4121 11.1056 17.412 11.1057C17.4118 11.1059 17.413 11.1049 17.4156 11.1033C17.4212 11.0996 17.4294 11.0946 17.438 11.0902C17.4706 11.0738 17.4478 11.0953 17.384 11.0892L17.4784 10.0937ZM18.0513 11.6026C18.3054 11.3145 18.3249 10.9467 18.2128 10.6625C18.1051 10.3892 17.8474 10.1284 17.478 10.0936L17.3844 11.0892C17.3473 11.0858 17.32 11.0706 17.3048 11.058C17.2909 11.0465 17.2852 11.036 17.2826 11.0293C17.2797 11.0221 17.2766 11.0095 17.2792 10.9917C17.282 10.9711 17.2913 10.9525 17.3013 10.9412L18.0513 11.6026ZM11.6323 18.0208L18.0298 11.6255L17.3228 10.9183L10.9253 17.3135L11.6323 18.0208ZM11.1685 18.2537C11.3247 18.2264 11.4789 18.1574 11.6097 18.042L10.9479 17.2923C10.9632 17.2787 10.9811 17.2713 10.996 17.2687L11.1685 18.2537ZM10.9119 17.2911C10.9394 17.2811 10.9757 17.2769 11.0125 17.2852C11.0484 17.2932 11.0611 17.3077 11.0528 17.3L10.374 18.0343C10.6258 18.267 10.9506 18.3407 11.2526 18.2313L10.9119 17.2911ZM11.0669 17.3135L4.6694 10.9183L3.96242 11.6255L10.3599 18.0208L11.0669 17.3135ZM4.68284 10.9323C4.64162 10.8878 4.66414 10.8989 4.68131 10.9537C4.69055 10.9832 4.69378 11.011 4.69416 11.0318C4.69425 11.0363 4.69419 11.0398 4.69411 11.0423C4.69403 11.0447 4.69394 11.0461 4.69394 11.0461C4.69393 11.0461 4.69395 11.0459 4.694 11.0453C4.69405 11.0447 4.69412 11.0438 4.69423 11.0426C4.69448 11.0398 4.69478 11.0368 4.6953 11.0315L3.70007 10.9339C3.6964 10.9714 3.67945 11.1008 3.72707 11.2527C3.77215 11.3966 3.85765 11.5129 3.94898 11.6116L4.68284 10.9323ZM4.6953 11.0315C4.69602 11.0241 4.69729 11.0113 4.69839 10.9975L3.70152 10.9184C3.70128 10.9215 3.70093 10.9252 3.70007 10.9339L4.6953 11.0315ZM4.6984 10.9973C4.69394 11.0539 4.67014 11.0917 4.65837 11.1064C4.64916 11.1179 4.64779 11.1153 4.66434 11.1051C4.67952 11.0959 4.69734 11.0879 4.71068 11.0832C4.71712 11.0809 4.71795 11.081 4.71238 11.0823C4.70969 11.083 4.70185 11.0847 4.6899 11.0865C4.68379 11.0874 4.67457 11.0886 4.66295 11.0895C4.65216 11.0903 4.63369 11.0914 4.61032 11.0905L4.64965 10.0912C4.57059 10.0881 4.50278 10.1043 4.48312 10.109C4.44811 10.1172 4.41238 10.128 4.37768 10.1403C4.30876 10.1646 4.22599 10.201 4.14251 10.2521C3.99744 10.3408 3.73058 10.5501 3.7015 10.9186L4.6984 10.9973ZM4.57133 11.0874C4.58207 11.0887 4.58839 11.0895 4.59312 11.0901C4.59755 11.0907 4.59825 11.0909 4.5967 11.0906C4.59227 11.0898 4.57936 11.0868 4.56291 11.0801C4.54643 11.0734 4.53499 11.0665 4.52982 11.063C4.52581 11.0602 4.52932 11.0621 4.54192 11.0737L5.22066 10.3394C5.14203 10.2667 5.05185 10.1994 4.93937 10.1537C4.83122 10.1098 4.73231 10.0995 4.68864 10.0943L4.57133 11.0874ZM4.5278 11.0602L10.2428 16.7731L10.9497 16.0659L5.23478 10.3529L4.5278 11.0602ZM10.0963 1.39654V16.4195H11.0963V1.39654H10.0963ZM11.1335 0.507744C10.5639 0.436088 10.129 0.858163 10.0972 1.36529L11.0953 1.42779C11.0947 1.4364 11.0894 1.4572 11.0671 1.47645C11.0561 1.48594 11.0432 1.49294 11.0302 1.49681C11.0239 1.49867 11.0186 1.49953 11.0145 1.49985C11.0104 1.50016 11.0084 1.49989 11.0087 1.49992L11.1335 0.507744ZM21.491 10.955C21.4851 10.8692 21.479 10.6539 21.354 10.4698C21.2258 10.2809 21.0257 10.1976 20.9255 10.154L20.5271 11.0712C20.5521 11.0821 20.5697 11.0902 20.5824 11.0965C20.5952 11.1028 20.5992 11.1054 20.5979 11.1046C20.5964 11.1036 20.5865 11.0973 20.5729 11.085C20.5584 11.0719 20.542 11.0541 20.5266 11.0315C20.5113 11.0088 20.501 10.9873 20.4943 10.9697C20.4881 10.9532 20.486 10.9424 20.4858 10.9416C20.4857 10.9411 20.4868 10.9465 20.4883 10.9615C20.4899 10.9765 20.4915 10.996 20.4934 11.0237L21.491 10.955ZM21.4961 12.8571C21.4942 12.2339 21.4922 11.6115 21.4922 10.9893H20.4922C20.4922 11.6134 20.4942 12.2373 20.4961 12.8603L21.4961 12.8571ZM21.4961 12.8587V12.8587H20.4961V12.8587H21.4961ZM21.4918 16.6445C21.504 15.3805 21.5 14.117 21.4961 12.8572L20.4961 12.8603C20.5 14.1212 20.504 15.3783 20.4918 16.6349L21.4918 16.6445ZM16.6258 21.4816C19.2934 21.4568 21.4538 19.1649 21.4918 16.6472L20.4919 16.6322C20.4618 18.6252 18.7234 20.4621 16.6165 20.4817L16.6258 21.4816ZM14.6853 21.4882C15.3312 21.4859 15.9769 21.4836 16.6226 21.4816L16.6196 20.4816C15.9736 20.4836 15.3276 20.4859 14.6817 20.4882L14.6853 21.4882ZM14.6835 21.4882H14.6835V20.4882H14.6835V21.4882ZM14.6831 21.4882H14.6835V20.4882H14.6831V21.4882ZM5.33903 21.4814C8.45577 21.5106 11.5722 21.4994 14.6849 21.4882L14.6813 20.4882C11.5676 20.4994 8.45758 20.5106 5.34839 20.4815L5.33903 21.4814ZM0.50002 16.6168C0.524371 19.3079 2.82274 21.4426 5.33599 21.4814L5.35142 20.4815C3.35764 20.4507 1.51921 18.7332 1.49998 16.6078L0.50002 16.6168ZM0.5 10.9893V16.6123H1.5V10.9893H0.5ZM1.21679 10.1085C0.874453 10.1796 0.69692 10.4341 0.619501 10.5826C0.577491 10.6632 0.550985 10.738 0.534852 10.7916C0.526593 10.819 0.520547 10.8426 0.516285 10.8609C0.514144 10.87 0.512425 10.8779 0.511082 10.8844C0.510409 10.8877 0.509828 10.8906 0.509333 10.8932C0.509086 10.8944 0.50886 10.8956 0.508654 10.8967C0.508552 10.8973 0.508454 10.8978 0.508361 10.8983C0.508315 10.8985 0.50827 10.8988 0.508226 10.899C0.508204 10.8991 0.508172 10.8993 0.508162 10.8994C0.50813 10.8995 0.508099 10.8997 1 10.9893C1.4919 11.079 1.49187 11.0791 1.49184 11.0793C1.49183 11.0794 1.4918 11.0795 1.49178 11.0796C1.49174 11.0799 1.4917 11.0801 1.49166 11.0803C1.49158 11.0807 1.49151 11.0811 1.49144 11.0815C1.49129 11.0822 1.49116 11.0829 1.49104 11.0836C1.49079 11.0849 1.49059 11.0859 1.49043 11.0866C1.49011 11.0882 1.48997 11.0888 1.49001 11.0886C1.49012 11.0881 1.49089 11.0849 1.49242 11.0798C1.49586 11.0684 1.5008 11.0553 1.5063 11.0448C1.52389 11.011 1.5056 11.0698 1.42016 11.0876L1.21679 10.1085ZM2.29852 10.9552C2.26371 10.4469 1.78289 9.99091 1.2168 10.1085L1.42015 11.0876C1.36627 11.0988 1.33185 11.0778 1.32261 11.0702C1.31392 11.0631 1.30261 11.0491 1.30086 11.0235L2.29852 10.9552ZM2.29598 12.8636C2.29783 12.2395 2.29969 11.6145 2.29969 10.9893H1.29969C1.29969 11.6127 1.29784 12.2363 1.29599 12.8606L2.29598 12.8636ZM2.29987 16.6252C2.28855 15.3729 2.29226 14.12 2.29598 12.8636L1.29599 12.8606C1.29227 14.116 1.28853 15.3749 1.29991 16.6342L2.29987 16.6252ZM5.38055 19.6823C3.70782 19.6667 2.3247 18.2046 2.29983 16.6219L1.29995 16.6376C1.33305 18.7437 3.13709 20.6614 5.37124 20.6822L5.38055 19.6823ZM7.31252 19.6888C6.66759 19.6865 6.02251 19.6842 5.37741 19.6822L5.37438 20.6822C6.01915 20.6842 6.66395 20.6865 7.30893 20.6888L7.31252 19.6888ZM7.31088 19.6888H7.31072V20.6888H7.31088V19.6888ZM7.31117 19.6888H7.31088V20.6888H7.31117V19.6888ZM16.634 19.6821C13.5287 19.7112 10.4227 19.7 7.31297 19.6888L7.30937 20.6888C10.418 20.7 13.5306 20.7112 16.6434 20.682L16.634 19.6821ZM19.6923 16.6025C19.6761 18.2975 18.2113 19.6579 16.631 19.6821L16.6464 20.682C18.7447 20.6498 20.6706 18.8738 20.6923 16.6121L19.6923 16.6025ZM19.6925 10.9893L19.6923 16.6073L20.6923 16.6073L20.6925 10.9894L19.6925 10.9893ZM20.8612 10.1312C20.6551 10.0734 20.4525 10.0864 20.2722 10.1646C20.1013 10.2386 19.9841 10.3563 19.9087 10.4554C19.833 10.5549 19.7849 10.6545 19.7563 10.7241C19.7414 10.7601 19.7305 10.7914 19.7228 10.8152C19.719 10.8272 19.7159 10.8375 19.7135 10.8458C19.7123 10.8499 19.7113 10.8536 19.7104 10.8568C19.71 10.8584 19.7096 10.8598 19.7092 10.8611C19.7091 10.8618 19.7089 10.8624 19.7087 10.863C19.7087 10.8633 19.7086 10.8636 19.7085 10.8639C19.7085 10.864 19.7084 10.8642 19.7084 10.8643C19.7084 10.8645 19.7083 10.8647 20.1925 10.9893C20.6767 11.114 20.6767 11.1142 20.6766 11.1144C20.6766 11.1144 20.6766 11.1146 20.6765 11.1148C20.6765 11.115 20.6764 11.1153 20.6763 11.1155C20.6762 11.116 20.6761 11.1164 20.676 11.1168C20.6758 11.1177 20.6756 11.1184 20.6754 11.1191C20.675 11.1204 20.6748 11.1213 20.6746 11.1219C20.6743 11.1231 20.6743 11.123 20.6747 11.1218C20.6755 11.1192 20.6776 11.113 20.681 11.1048C20.6888 11.0859 20.6977 11.0699 20.7045 11.061C20.7116 11.0516 20.7024 11.068 20.6699 11.0821C20.6526 11.0896 20.6337 11.0941 20.6158 11.0952C20.5982 11.0962 20.5892 11.0935 20.5915 11.0941L20.8612 10.1312Z" fill="#979797"/>
<path d="M11.3959 1.39654H11.8959V1.38072L11.8949 1.36493L11.3959 1.39654ZM11.0711 1.00383L11.1954 0.519533L11.1648 0.511684L11.1335 0.507744L11.0711 1.00383ZM11.3959 16.4195H10.8959V17.6263L11.7494 16.7731L11.3959 16.4195ZM17.1109 10.7066L16.8035 10.3123L16.7792 10.3312L16.7574 10.3529L17.1109 10.7066ZM17.4312 10.5914L17.384 11.0892L17.3844 11.0892L17.4312 10.5914ZM17.6763 11.2719L18.0298 11.6255L18.0409 11.6144L18.0513 11.6026L17.6763 11.2719ZM11.2788 17.6671L11.6097 18.042L11.6213 18.0317L11.6323 18.0208L11.2788 17.6671ZM11.0822 17.7612L10.996 17.2687L10.953 17.2763L10.9119 17.2911L11.0822 17.7612ZM10.7134 17.6671L10.3599 18.0208L10.3668 18.0277L10.374 18.0343L10.7134 17.6671ZM4.31591 11.2719L3.94898 11.6116L3.95556 11.6187L3.96242 11.6255L4.31591 11.2719ZM4.19768 10.9827L4.6953 11.0315L4.19768 10.9827ZM4.19995 10.958L4.69839 10.9975L4.6984 10.9973L4.19995 10.958ZM4.62999 10.5908L4.68864 10.0943L4.6692 10.092L4.64965 10.0912L4.62999 10.5908ZM4.88129 10.7066L5.23478 10.3529L5.22785 10.346L5.22066 10.3394L4.88129 10.7066ZM10.5963 16.4195L10.2428 16.7731L11.0963 17.6263V16.4195H10.5963ZM10.5963 1.39654L10.0972 1.36529L10.0963 1.3809V1.39654H10.5963ZM20.9922 10.9893H21.4922V10.9722L21.491 10.955L20.9922 10.9893ZM20.7263 10.6126L20.9255 10.154L20.8941 10.1404L20.8612 10.1312L20.7263 10.6126ZM20.9961 12.8587H21.4961L21.4961 12.8571L20.9961 12.8587ZM20.9961 12.8587H20.4961L20.4961 12.8603L20.9961 12.8587ZM20.9918 16.6397L21.4918 16.6472L21.4918 16.6445L20.9918 16.6397ZM16.6211 20.9816L16.6226 21.4817L16.6258 21.4816L16.6211 20.9816ZM14.6835 20.9882V21.4882L14.6853 21.4882L14.6835 20.9882ZM14.6831 20.9882V20.4882L14.6813 20.4882L14.6831 20.9882ZM5.34371 20.9814L5.33599 21.4814L5.33903 21.4814L5.34371 20.9814ZM1 16.6123H0.49998L0.50002 16.6168L1 16.6123ZM1 10.9893L0.508099 10.8997L0.5 10.9442V10.9893H1ZM1.31848 10.598L1.2168 10.1085L1.21679 10.1085L1.31848 10.598ZM1.79969 10.9893H2.29969V10.9722L2.29852 10.9552L1.79969 10.9893ZM1.79599 12.8621L1.29599 12.8606L1.79599 12.8621ZM1.79989 16.6297L1.2999 16.6342L1.29995 16.6376L1.79989 16.6297ZM5.3759 20.1822L5.37124 20.6822L5.37438 20.6822L5.3759 20.1822ZM7.31072 20.1888L7.30893 20.6888H7.31072V20.1888ZM7.31117 20.1888L7.31297 19.6888H7.31117V20.1888ZM16.6387 20.182L16.6434 20.682L16.6464 20.682L16.6387 20.182ZM20.1923 16.6073L20.6923 16.6121V16.6073L20.1923 16.6073ZM20.1925 10.9893L19.7083 10.8647L19.6925 10.926L19.6925 10.9893L20.1925 10.9893ZM11.8949 1.36493C11.8875 1.24784 11.869 1.0386 11.7313 0.850811C11.5858 0.652385 11.3765 0.566009 11.1954 0.519533L10.9468 1.48813C10.9866 1.49836 10.9951 1.50462 10.9872 1.50023C10.9824 1.49754 10.9729 1.49159 10.9609 1.48133C10.9487 1.47084 10.9362 1.45769 10.9248 1.44209C10.901 1.40961 10.8932 1.3823 10.8918 1.37674C10.8913 1.37468 10.892 1.37721 10.8932 1.38637C10.8944 1.39559 10.8957 1.40887 10.8969 1.42815L11.8949 1.36493ZM11.8959 16.4195V1.39654H10.8959V16.4195H11.8959ZM16.7574 10.3529L11.0425 16.0659L11.7494 16.7731L17.4644 11.0602L16.7574 10.3529ZM17.4784 10.0937C17.2606 10.073 17.0777 10.1521 16.9886 10.1969C16.9365 10.2231 16.8935 10.2496 16.8631 10.2698C16.8476 10.28 16.8347 10.2891 16.8247 10.2963C16.8198 10.2999 16.8155 10.3031 16.8119 10.3058C16.8101 10.3071 16.8085 10.3083 16.8071 10.3094C16.8064 10.31 16.8058 10.3105 16.8052 10.3109C16.8048 10.3112 16.8046 10.3114 16.8043 10.3116C16.8041 10.3117 16.804 10.3118 16.8039 10.312C16.8038 10.312 16.8037 10.3121 16.8037 10.3121C16.8036 10.3122 16.8035 10.3123 17.1109 10.7066C17.4184 11.1009 17.4183 11.1009 17.4182 11.101C17.4182 11.101 17.4181 11.1011 17.418 11.1011C17.4179 11.1012 17.4178 11.1013 17.4176 11.1014C17.4174 11.1016 17.4172 11.1018 17.4169 11.102C17.4165 11.1023 17.4161 11.1026 17.4157 11.1029C17.4149 11.1035 17.4143 11.104 17.4137 11.1044C17.4127 11.1052 17.4121 11.1056 17.412 11.1057C17.4118 11.1059 17.413 11.1049 17.4156 11.1033C17.4212 11.0996 17.4294 11.0946 17.438 11.0902C17.4706 11.0738 17.4478 11.0953 17.384 11.0892L17.4784 10.0937ZM18.0513 11.6026C18.3054 11.3145 18.3249 10.9467 18.2128 10.6625C18.1051 10.3892 17.8474 10.1284 17.478 10.0936L17.3844 11.0892C17.3473 11.0858 17.32 11.0706 17.3048 11.058C17.2909 11.0465 17.2852 11.036 17.2826 11.0293C17.2797 11.0221 17.2766 11.0095 17.2792 10.9917C17.282 10.9711 17.2913 10.9525 17.3013 10.9412L18.0513 11.6026ZM11.6323 18.0208L18.0298 11.6255L17.3228 10.9183L10.9253 17.3135L11.6323 18.0208ZM11.1685 18.2537C11.3247 18.2264 11.4789 18.1574 11.6097 18.042L10.9479 17.2923C10.9632 17.2787 10.9811 17.2713 10.996 17.2687L11.1685 18.2537ZM10.9119 17.2911C10.9394 17.2811 10.9757 17.2769 11.0125 17.2852C11.0484 17.2932 11.0611 17.3077 11.0528 17.3L10.374 18.0343C10.6258 18.267 10.9506 18.3407 11.2526 18.2313L10.9119 17.2911ZM11.0669 17.3135L4.6694 10.9183L3.96242 11.6255L10.3599 18.0208L11.0669 17.3135ZM4.68284 10.9323C4.64162 10.8878 4.66414 10.8989 4.68131 10.9537C4.69055 10.9832 4.69378 11.011 4.69416 11.0318C4.69425 11.0363 4.69419 11.0398 4.69411 11.0423C4.69403 11.0447 4.69394 11.0461 4.69394 11.0461C4.69393 11.0461 4.69395 11.0459 4.694 11.0453C4.69405 11.0447 4.69412 11.0438 4.69423 11.0426C4.69448 11.0398 4.69478 11.0368 4.6953 11.0315L3.70007 10.9339C3.6964 10.9714 3.67945 11.1008 3.72707 11.2527C3.77215 11.3966 3.85765 11.5129 3.94898 11.6116L4.68284 10.9323ZM4.6953 11.0315C4.69602 11.0241 4.69729 11.0113 4.69839 10.9975L3.70152 10.9184C3.70128 10.9215 3.70093 10.9252 3.70007 10.9339L4.6953 11.0315ZM4.6984 10.9973C4.69394 11.0539 4.67014 11.0917 4.65837 11.1064C4.64916 11.1179 4.64779 11.1153 4.66434 11.1051C4.67952 11.0959 4.69734 11.0879 4.71068 11.0832C4.71712 11.0809 4.71795 11.081 4.71238 11.0823C4.70969 11.083 4.70185 11.0847 4.6899 11.0865C4.68379 11.0874 4.67457 11.0886 4.66295 11.0895C4.65216 11.0903 4.63369 11.0914 4.61032 11.0905L4.64965 10.0912C4.57059 10.0881 4.50278 10.1043 4.48312 10.109C4.44811 10.1172 4.41238 10.128 4.37768 10.1403C4.30876 10.1646 4.22599 10.201 4.14251 10.2521C3.99744 10.3408 3.73058 10.5501 3.7015 10.9186L4.6984 10.9973ZM4.57133 11.0874C4.58207 11.0887 4.58839 11.0895 4.59312 11.0901C4.59755 11.0907 4.59825 11.0909 4.5967 11.0906C4.59227 11.0898 4.57936 11.0868 4.56291 11.0801C4.54643 11.0734 4.53499 11.0665 4.52982 11.063C4.52581 11.0602 4.52932 11.0621 4.54192 11.0737L5.22066 10.3394C5.14203 10.2667 5.05185 10.1994 4.93937 10.1537C4.83122 10.1098 4.73231 10.0995 4.68864 10.0943L4.57133 11.0874ZM4.5278 11.0602L10.2428 16.7731L10.9497 16.0659L5.23478 10.3529L4.5278 11.0602ZM10.0963 1.39654V16.4195H11.0963V1.39654H10.0963ZM11.1335 0.507744C10.5639 0.436088 10.129 0.858163 10.0972 1.36529L11.0953 1.42779C11.0947 1.4364 11.0894 1.4572 11.0671 1.47645C11.0561 1.48594 11.0432 1.49294 11.0302 1.49681C11.0239 1.49867 11.0186 1.49953 11.0145 1.49985C11.0104 1.50016 11.0084 1.49989 11.0087 1.49992L11.1335 0.507744ZM21.491 10.955C21.4851 10.8692 21.479 10.6539 21.354 10.4698C21.2258 10.2809 21.0257 10.1976 20.9255 10.154L20.5271 11.0712C20.5521 11.0821 20.5697 11.0902 20.5824 11.0965C20.5952 11.1028 20.5992 11.1054 20.5979 11.1046C20.5964 11.1036 20.5865 11.0973 20.5729 11.085C20.5584 11.0719 20.542 11.0541 20.5266 11.0315C20.5113 11.0088 20.501 10.9873 20.4943 10.9697C20.4881 10.9532 20.486 10.9424 20.4858 10.9416C20.4857 10.9411 20.4868 10.9465 20.4883 10.9615C20.4899 10.9765 20.4915 10.996 20.4934 11.0237L21.491 10.955ZM21.4961 12.8571C21.4942 12.2339 21.4922 11.6115 21.4922 10.9893H20.4922C20.4922 11.6134 20.4942 12.2373 20.4961 12.8603L21.4961 12.8571ZM21.4961 12.8587V12.8587H20.4961V12.8587H21.4961ZM21.4918 16.6445C21.504 15.3805 21.5 14.117 21.4961 12.8572L20.4961 12.8603C20.5 14.1212 20.504 15.3783 20.4918 16.6349L21.4918 16.6445ZM16.6258 21.4816C19.2934 21.4568 21.4538 19.1649 21.4918 16.6472L20.4919 16.6322C20.4618 18.6252 18.7234 20.4621 16.6165 20.4817L16.6258 21.4816ZM14.6853 21.4882C15.3312 21.4859 15.9769 21.4836 16.6226 21.4816L16.6196 20.4816C15.9736 20.4836 15.3276 20.4859 14.6817 20.4882L14.6853 21.4882ZM14.6835 21.4882H14.6835V20.4882H14.6835V21.4882ZM14.6831 21.4882H14.6835V20.4882H14.6831V21.4882ZM5.33903 21.4814C8.45577 21.5106 11.5722 21.4994 14.6849 21.4882L14.6813 20.4882C11.5676 20.4994 8.45758 20.5106 5.34839 20.4815L5.33903 21.4814ZM0.50002 16.6168C0.524371 19.3079 2.82274 21.4426 5.33599 21.4814L5.35142 20.4815C3.35764 20.4507 1.51921 18.7332 1.49998 16.6078L0.50002 16.6168ZM0.5 10.9893V16.6123H1.5V10.9893H0.5ZM1.21679 10.1085C0.874453 10.1796 0.69692 10.4341 0.619501 10.5826C0.577491 10.6632 0.550985 10.738 0.534852 10.7916C0.526593 10.819 0.520547 10.8426 0.516285 10.8609C0.514144 10.87 0.512425 10.8779 0.511082 10.8844C0.510409 10.8877 0.509828 10.8906 0.509333 10.8932C0.509086 10.8944 0.50886 10.8956 0.508654 10.8967C0.508552 10.8973 0.508454 10.8978 0.508361 10.8983C0.508315 10.8985 0.50827 10.8988 0.508226 10.899C0.508204 10.8991 0.508172 10.8993 0.508162 10.8994C0.50813 10.8995 0.508099 10.8997 1 10.9893C1.4919 11.079 1.49187 11.0791 1.49184 11.0793C1.49183 11.0794 1.4918 11.0795 1.49178 11.0796C1.49174 11.0799 1.4917 11.0801 1.49166 11.0803C1.49158 11.0807 1.49151 11.0811 1.49144 11.0815C1.49129 11.0822 1.49116 11.0829 1.49104 11.0836C1.49079 11.0849 1.49059 11.0859 1.49043 11.0866C1.49011 11.0882 1.48997 11.0888 1.49001 11.0886C1.49012 11.0881 1.49089 11.0849 1.49242 11.0798C1.49586 11.0684 1.5008 11.0553 1.5063 11.0448C1.52389 11.011 1.5056 11.0698 1.42016 11.0876L1.21679 10.1085ZM2.29852 10.9552C2.26371 10.4469 1.78289 9.99091 1.2168 10.1085L1.42015 11.0876C1.36627 11.0988 1.33185 11.0778 1.32261 11.0702C1.31392 11.0631 1.30261 11.0491 1.30086 11.0235L2.29852 10.9552ZM2.29598 12.8636C2.29783 12.2395 2.29969 11.6145 2.29969 10.9893H1.29969C1.29969 11.6127 1.29784 12.2363 1.29599 12.8606L2.29598 12.8636ZM2.29987 16.6252C2.28855 15.3729 2.29226 14.12 2.29598 12.8636L1.29599 12.8606C1.29227 14.116 1.28853 15.3749 1.29991 16.6342L2.29987 16.6252ZM5.38055 19.6823C3.70782 19.6667 2.3247 18.2046 2.29983 16.6219L1.29995 16.6376C1.33305 18.7437 3.13709 20.6614 5.37124 20.6822L5.38055 19.6823ZM7.31252 19.6888C6.66759 19.6865 6.02251 19.6842 5.37741 19.6822L5.37438 20.6822C6.01915 20.6842 6.66395 20.6865 7.30893 20.6888L7.31252 19.6888ZM7.31088 19.6888H7.31072V20.6888H7.31088V19.6888ZM7.31117 19.6888H7.31088V20.6888H7.31117V19.6888ZM16.634 19.6821C13.5287 19.7112 10.4227 19.7 7.31297 19.6888L7.30937 20.6888C10.418 20.7 13.5306 20.7112 16.6434 20.682L16.634 19.6821ZM19.6923 16.6025C19.6761 18.2975 18.2113 19.6579 16.631 19.6821L16.6464 20.682C18.7447 20.6498 20.6706 18.8738 20.6923 16.6121L19.6923 16.6025ZM19.6925 10.9893L19.6923 16.6073L20.6923 16.6073L20.6925 10.9894L19.6925 10.9893ZM20.8612 10.1312C20.6551 10.0734 20.4525 10.0864 20.2722 10.1646C20.1013 10.2386 19.9841 10.3563 19.9087 10.4554C19.833 10.5549 19.7849 10.6545 19.7563 10.7241C19.7414 10.7601 19.7305 10.7914 19.7228 10.8152C19.719 10.8272 19.7159 10.8375 19.7135 10.8458C19.7123 10.8499 19.7113 10.8536 19.7104 10.8568C19.71 10.8584 19.7096 10.8598 19.7092 10.8611C19.7091 10.8618 19.7089 10.8624 19.7087 10.863C19.7087 10.8633 19.7086 10.8636 19.7085 10.8639C19.7085 10.864 19.7084 10.8642 19.7084 10.8643C19.7084 10.8645 19.7083 10.8647 20.1925 10.9893C20.6767 11.114 20.6767 11.1142 20.6766 11.1144C20.6766 11.1144 20.6766 11.1146 20.6765 11.1148C20.6765 11.115 20.6764 11.1153 20.6763 11.1155C20.6762 11.116 20.6761 11.1164 20.676 11.1168C20.6758 11.1177 20.6756 11.1184 20.6754 11.1191C20.675 11.1204 20.6748 11.1213 20.6746 11.1219C20.6743 11.1231 20.6743 11.123 20.6747 11.1218C20.6755 11.1192 20.6776 11.113 20.681 11.1048C20.6888 11.0859 20.6977 11.0699 20.7045 11.061C20.7116 11.0516 20.7024 11.068 20.6699 11.0821C20.6526 11.0896 20.6337 11.0941 20.6158 11.0952C20.5982 11.0962 20.5892 11.0935 20.5915 11.0941L20.8612 10.1312Z" fill="white"/>
</svg>
