<svg width="30" height="22" viewBox="0 0 30 22" fill="none" xmlns="http://www.w3.org/2000/svg">
<path d="M27.9016 20.0205L27.8373 19.5247L27.6771 19.5455L27.5594 19.656L27.9016 20.0205ZM25.619 20.968L25.622 21.468L25.6281 21.4679L25.619 20.968ZM4.38301 20.968L4.37386 21.4679L4.37999 21.468L4.38301 20.968ZM1.02188 17.6868L0.521852 17.6901L0.521972 17.6964L1.02188 17.6868ZM1.02188 4.31339L0.521932 4.30387L0.521891 4.31011L1.02188 4.31339ZM4.38301 1.03222L4.37997 0.532191L4.37396 0.5323L4.38301 1.03222ZM25.619 1.03222L25.628 0.532264L25.622 0.532228L25.619 1.03222ZM28.9801 4.31339L29.4802 4.31041L29.48 4.30383L28.9801 4.31339ZM28.9801 17.6866L29.4801 17.6961L29.4801 17.6895L28.9801 17.6866ZM28.3519 19.5093L27.9467 19.2164L27.8316 19.3756L27.8557 19.5707L28.3519 19.5093ZM28.2245 19.828L28.6217 20.1318L28.6219 20.1315L28.2245 19.828ZM18.4664 11.3644L18.8096 11.0007L18.4666 10.6772L18.1235 11.0005L18.4664 11.3644ZM17.9194 11.8799L18.2602 12.2458L18.2623 12.2438L17.9194 11.8799ZM11.8407 11.8782L11.4974 12.2418L11.4997 12.2439L11.8407 11.8782ZM11.7213 11.7655L12.0646 11.402L11.7282 11.0843L11.3854 11.3951L11.7213 11.7655ZM3.08256 19.5992L2.74669 19.2289L2.27439 19.6571L2.80292 20.0137L3.08256 19.5992ZM4.39516 20.0186L4.38608 20.5186L4.39214 20.5186L4.39516 20.0186ZM25.6068 20.0186L25.6099 20.5186L25.6159 20.5185L25.6068 20.0186ZM27.0741 19.4863L27.3825 19.8798L27.8398 19.5214L27.4172 19.1226L27.0741 19.4863ZM2.44632 3.01397L2.78946 2.6503L2.37739 2.2615L2.04282 2.7187L2.44632 3.01397ZM1.99436 4.32525L1.49441 4.31572L1.49437 4.32198L1.99436 4.32525ZM1.99436 17.6749L1.49433 17.6782L1.49445 17.6844L1.99436 17.6749ZM2.40158 18.9212L1.98796 19.2021L2.31123 19.6781L2.73746 19.2916L2.40158 18.9212ZM11.0211 11.1048L11.357 11.4751L11.7574 11.112L11.3643 10.7411L11.0211 11.1048ZM27.4567 2.89103L27.8418 2.57212L27.5018 2.1615L27.1138 2.52718L27.4567 2.89103ZM19.1666 10.7046L18.8237 10.3407L18.4378 10.7044L18.8235 11.0683L19.1666 10.7046ZM27.7042 18.7607L27.3611 19.1244L27.8229 19.5602L28.1382 19.0091L27.7042 18.7607ZM28.0076 17.6749L28.5076 17.6845L28.5076 17.6779L28.0076 17.6749ZM28.0076 4.32502L28.5077 4.32204L28.5076 4.31556L28.0076 4.32502ZM26.7091 2.27586L27.0521 2.63971L27.5546 2.1661L26.9478 1.8365L26.7091 2.27586ZM25.6068 1.98156L25.6159 1.48161L25.6099 1.48157L25.6068 1.98156ZM4.42677 1.98132V1.48132L4.42391 1.48133L4.42677 1.98132ZM3.15161 2.35916L2.8864 1.93529L2.33792 2.27847L2.80831 2.72268L3.15161 2.35916ZM12.5467 11.2237L12.2057 11.5894L12.2104 11.5937L12.5467 11.2237ZM17.2462 11.1949L17.587 11.5609L17.5892 11.5588L17.2462 11.1949ZM27.5594 19.656C27.038 20.1455 26.3486 20.4546 25.6099 20.468L25.6281 21.4679C26.6369 21.4495 27.5585 21.0285 28.2439 20.385L27.5594 19.656ZM25.616 20.468C18.5396 20.5107 11.4624 20.5107 4.38602 20.468L4.37999 21.468C11.4604 21.5107 18.5416 21.5107 25.622 21.468L25.616 20.468ZM4.39215 20.468C2.89255 20.4406 1.55014 19.1594 1.52179 17.6772L0.521972 17.6964C0.561212 19.7481 2.36914 21.4312 4.37386 21.4679L4.39215 20.468ZM1.52187 17.6835C1.49271 13.2281 1.49271 8.77212 1.52187 4.31666L0.521891 4.31011C0.492703 8.76994 0.492703 13.2302 0.521891 17.6901L1.52187 17.6835ZM1.52179 4.3229C1.54915 2.8855 2.84499 1.56012 4.39205 1.53214L4.37396 0.5323C2.3 0.569818 0.559769 2.31794 0.521971 4.30387L1.52179 4.3229ZM4.38604 1.53221C11.4624 1.48926 18.5396 1.48926 25.616 1.53221L25.622 0.532228C18.5416 0.489257 11.4604 0.489257 4.37997 0.532228L4.38604 1.53221ZM25.61 1.53214C27.1154 1.55936 28.4519 2.83945 28.4802 4.32294L29.48 4.30383C29.4408 2.25197 27.64 0.568683 25.628 0.5323L25.61 1.53214ZM28.4801 4.31636C28.5066 8.77202 28.5066 13.2279 28.4801 17.6836L29.4801 17.6895C29.5066 13.2299 29.5066 8.77004 29.4801 4.31041L28.4801 4.31636ZM28.4802 17.677C28.4697 18.2248 28.2767 18.7599 27.9467 19.2164L28.7571 19.8022C29.1944 19.1973 29.4653 18.4674 29.48 17.6961L28.4802 17.677ZM27.8557 19.5707C27.8528 19.5474 27.854 19.524 27.8581 19.503C27.862 19.4829 27.8676 19.47 27.8696 19.4658C27.8713 19.4622 27.8704 19.4648 27.863 19.4758C27.8552 19.4874 27.8447 19.5015 27.8272 19.5245L28.6219 20.1315C28.6794 20.0562 28.892 19.8026 28.8481 19.4479L27.8557 19.5707ZM27.8274 19.5243C27.8236 19.5292 27.8215 19.53 27.8232 19.529C27.825 19.528 27.8298 19.5256 27.8373 19.5247L27.966 20.5164C28.2351 20.4814 28.4659 20.3354 28.6217 20.1318L27.8274 19.5243ZM18.1235 11.0005L17.5765 11.516L18.2623 12.2438L18.8093 11.7283L18.1235 11.0005ZM17.5787 11.514C16.1403 12.8535 13.6793 12.9089 12.1817 11.5125L11.4997 12.2439C13.3912 14.0075 16.4476 13.9338 18.2602 12.2458L17.5787 11.514ZM12.184 11.5147L12.0646 11.402L11.378 12.129L11.4974 12.2417L12.184 11.5147ZM11.3854 11.3951L2.74669 19.2289L3.41844 19.9696L12.0572 12.1359L11.3854 11.3951ZM2.80292 20.0137C3.25531 20.319 3.7996 20.5079 4.38608 20.5185L4.40424 19.5187C4.0236 19.5118 3.66542 19.3893 3.36221 19.1848L2.80292 20.0137ZM4.39214 20.5186C11.4646 20.5613 18.5375 20.5613 25.6099 20.5186L25.6038 19.5186C18.5354 19.5613 11.4666 19.5613 4.39818 19.5186L4.39214 20.5186ZM25.6159 20.5185C26.2703 20.5067 26.8891 20.2665 27.3825 19.8798L26.7656 19.0927C26.4304 19.3554 26.0189 19.5111 25.5978 19.5187L25.6159 20.5185ZM27.4172 19.1226L18.8096 11.0007L18.1233 11.7281L26.7309 19.8499L27.4172 19.1226ZM2.04282 2.7187C1.71326 3.16905 1.50582 3.71931 1.49445 4.31572L2.49427 4.33478C2.50138 3.96192 2.6309 3.60841 2.84982 3.30925L2.04282 2.7187ZM1.49437 4.32198C1.46518 8.77397 1.46518 13.2262 1.49437 17.6782L2.49435 17.6716C2.46519 13.224 2.46519 8.77616 2.49435 4.32853L1.49437 4.32198ZM1.49445 17.6844C1.50496 18.2374 1.68877 18.7616 1.98796 19.2021L2.81521 18.6403C2.61503 18.3455 2.50077 18.0077 2.49427 17.6654L1.49445 17.6844ZM2.73746 19.2916L11.357 11.4751L10.6853 10.7344L2.06571 18.5508L2.73746 19.2916ZM11.3643 10.7411L2.78946 2.6503L2.10318 3.37764L10.678 11.4684L11.3643 10.7411ZM27.1138 2.52718L18.8237 10.3407L19.5096 11.0685L27.7997 3.25489L27.1138 2.52718ZM18.8235 11.0683L27.3611 19.1244L28.0474 18.3971L19.5098 10.3409L18.8235 11.0683ZM28.1382 19.0091C28.3627 18.6167 28.4983 18.1658 28.5076 17.6845L27.5077 17.6653C27.5019 17.9686 27.4167 18.2564 27.2703 18.5124L28.1382 19.0091ZM28.5076 17.6779C28.5342 13.2261 28.5342 8.77407 28.5076 4.32204L27.5077 4.32799C27.5341 8.77606 27.5341 13.2241 27.5077 17.6719L28.5076 17.6779ZM28.5076 4.31556C28.4952 3.66327 28.2405 3.05353 27.8418 2.57212L27.0717 3.20995C27.342 3.53643 27.5001 3.93252 27.5077 4.33447L28.5076 4.31556ZM26.9478 1.8365C26.5501 1.62046 26.0962 1.4903 25.6159 1.48164L25.5978 2.48148C25.9076 2.48706 26.205 2.57098 26.4705 2.71522L26.9478 1.8365ZM25.6099 1.48157C18.5482 1.4386 11.4827 1.48132 4.42677 1.48132V2.48132C11.4912 2.48132 18.5456 2.43861 25.6038 2.48155L25.6099 1.48157ZM4.42391 1.48133C3.86739 1.48451 3.33685 1.65346 2.8864 1.93529L3.41681 2.78303C3.72198 2.5921 4.07251 2.48336 4.42963 2.48132L4.42391 1.48133ZM2.80831 2.72268C5.9362 5.67657 9.05464 8.65142 12.2057 11.5894L12.8877 10.858C9.73956 7.92279 6.62782 4.95427 3.4949 1.99564L2.80831 2.72268ZM12.2104 11.5937C13.6657 12.9162 16.0852 12.9593 17.5869 11.5609L16.9055 10.829C15.7937 11.8643 13.963 11.8352 12.883 10.8536L12.2104 11.5937ZM17.5892 11.5588L27.0521 2.63971L26.3662 1.912L16.9033 10.8311L17.5892 11.5588Z" fill="white"/>
</svg>
