<svg width="57" height="67" viewBox="0 0 57 67" fill="none" xmlns="http://www.w3.org/2000/svg">
<path fill-rule="evenodd" clip-rule="evenodd" d="M46.6966 16.3437C50.1352 16.3437 52.9228 13.5561 52.9228 10.1175C52.9228 6.6789 50.1352 3.89135 46.6966 3.89135C43.258 3.89135 40.4705 6.6789 40.4705 10.1175C40.4705 13.5561 43.258 16.3437 46.6966 16.3437ZM46.6966 20.235C52.2844 20.235 56.8141 15.7053 56.8141 10.1175C56.8141 4.52977 52.2844 1.373e-06 46.6966 8.84501e-07C41.1089 3.96005e-07 36.5791 4.52976 36.5791 10.1175C36.5791 15.7053 41.1089 20.235 46.6966 20.235Z" fill="#80F56D"/>
<path fill-rule="evenodd" clip-rule="evenodd" d="M26.4614 36.575C27.2861 36.575 28.077 36.2474 28.6601 35.6643C29.2432 35.0812 29.5708 34.2903 29.5708 33.4656C29.5708 32.6409 29.2432 31.85 28.6601 31.2669C28.077 30.6838 27.2861 30.3562 26.4614 30.3562L26.4614 26.4612C27.8568 26.4612 29.2093 26.8776 30.3527 27.6415C30.7315 27.8946 31.0874 28.1859 31.4143 28.5127C32.7279 29.8263 33.4658 31.6079 33.4658 33.4656C33.4658 35.3233 32.7279 37.1049 31.4143 38.4185C31.0874 38.7454 30.7315 39.0366 30.3527 39.2897C29.2093 40.0537 27.8568 40.47 26.4614 40.47L26.4614 36.575Z" fill="#80F56D"/>
<path fill-rule="evenodd" clip-rule="evenodd" d="M2.72422 61.4833C6.12467 61.4833 9.38586 56.7739 11.7903 52.1327C14.1948 47.4915 14.5561 41.1967 14.5561 34.633C14.5561 28.0693 14.1948 21.7745 11.7903 17.1333C9.38586 12.492 6.12468 7.39353 2.72423 7.39353L2.72423 2.33478C4.0457 2.33478 5.35106 2.63651 6.61558 3.2202C9.59761 4.5967 12.3525 7.54127 14.5561 11.7947C17.6941 17.8518 19.457 26.067 19.457 34.633C19.457 43.199 17.6941 51.4142 14.5561 57.4713C12.3525 61.7247 9.5976 64.6693 6.61557 66.0458C5.35105 66.6295 4.04569 66.9312 2.72422 66.9312L2.72422 61.4833Z" fill="#80F56D"/>
<path fill-rule="evenodd" clip-rule="evenodd" d="M4.14143e-06 30.3525L6.79493e-06 -3.40193e-07L3.89136 0L3.89135 30.3525L4.14143e-06 30.3525Z" fill="#80F56D"/>
<path fill-rule="evenodd" clip-rule="evenodd" d="M4.14143e-06 66.9312L6.79493e-06 36.5787L3.89136 36.5787L3.89135 66.9312L4.14143e-06 66.9312Z" fill="#80F56D"/>
<path fill-rule="evenodd" clip-rule="evenodd" d="M1.55678 26.4612L26.4614 26.4612L26.4614 30.3525L1.55678 30.3525L1.55678 26.4612Z" fill="#80F56D"/>
<path fill-rule="evenodd" clip-rule="evenodd" d="M0.000241858 36.5787L26.4614 36.5787L26.4614 40.47L0.000241518 40.47L0.000241858 36.5787Z" fill="#80F56D"/>
<path fill-rule="evenodd" clip-rule="evenodd" d="M46.6982 3.89135L0.00195278 3.89135L0.00195312 0L46.6982 4.08231e-06L46.6982 3.89135Z" fill="#80F56D"/>
</svg>
