<svg width="317" height="84" viewBox="0 0 317 84" fill="none" xmlns="http://www.w3.org/2000/svg">
<path fill-rule="evenodd" clip-rule="evenodd" d="M10.1176 20.3437C6.67899 20.3437 3.89144 17.5561 3.89144 14.1175C3.89144 10.6789 6.67898 7.89135 10.1176 7.89135C13.5562 7.89135 16.3438 10.6789 16.3438 14.1175C16.3438 17.5561 13.5562 20.3437 10.1176 20.3437ZM10.1176 24.235C4.52985 24.235 8.72037e-05 19.7053 8.67152e-05 14.1175C8.62267e-05 8.52977 4.52985 4 10.1176 4C15.7053 4 20.2351 8.52976 20.2351 14.1175C20.2351 19.7053 15.7053 24.235 10.1176 24.235Z" fill="#C5BDBD"/>
<path fill-rule="evenodd" clip-rule="evenodd" d="M30.3527 40.575C29.528 40.575 28.7371 40.2474 28.154 39.6643C27.5709 39.0812 27.2433 38.2903 27.2433 37.4656C27.2433 36.6409 27.5709 35.85 28.154 35.2669C28.7371 34.6838 29.528 34.3562 30.3527 34.3562L30.3527 30.4612C28.9573 30.4612 27.6048 30.8776 26.4613 31.6415C26.0825 31.8946 25.7267 32.1859 25.3998 32.5127C24.0862 33.8263 23.3483 35.6079 23.3483 37.4656C23.3483 39.3233 24.0862 41.1049 25.3998 42.4185C25.7267 42.7454 26.0826 43.0366 26.4613 43.2897C27.6048 44.0537 28.9573 44.47 30.3527 44.47L30.3527 40.575Z" fill="#C5BDBD"/>
<path fill-rule="evenodd" clip-rule="evenodd" d="M54.0899 65.4833C50.6894 65.4833 47.4282 60.7739 45.0237 56.1327C42.6193 51.4915 42.258 45.1967 42.258 38.633C42.258 32.0693 42.6193 25.7745 45.0237 21.1333C47.4282 16.492 50.6894 11.3935 54.0899 11.3935L54.0899 6.33478C52.7684 6.33478 51.463 6.63651 50.1985 7.2202C47.2165 8.5967 44.4616 11.5413 42.258 15.7947C39.12 21.8518 37.3571 30.067 37.3571 38.633C37.3571 47.199 39.12 55.4142 42.258 61.4713C44.4616 65.7247 47.2165 68.6693 50.1985 70.0458C51.463 70.6295 52.7684 70.9312 54.0899 70.9312L54.0899 65.4833Z" fill="#C5BDBD"/>
<path fill-rule="evenodd" clip-rule="evenodd" d="M56.8141 34.3525L56.8141 4L52.9227 4L52.9227 34.3525L56.8141 34.3525Z" fill="#C5BDBD"/>
<path fill-rule="evenodd" clip-rule="evenodd" d="M56.8141 70.9312L56.8141 40.5787L52.9227 40.5787L52.9227 70.9312L56.8141 70.9312Z" fill="#C5BDBD"/>
<path fill-rule="evenodd" clip-rule="evenodd" d="M55.2572 30.4612L30.3525 30.4612L30.3525 34.3525L55.2572 34.3525L55.2572 30.4612Z" fill="#C5BDBD"/>
<path fill-rule="evenodd" clip-rule="evenodd" d="M56.8137 40.5787L30.3525 40.5787L30.3525 44.47L56.8137 44.47L56.8137 40.5787Z" fill="#C5BDBD"/>
<path fill-rule="evenodd" clip-rule="evenodd" d="M10.1161 7.89135L56.8123 7.89135L56.8123 4L10.1161 4L10.1161 7.89135Z" fill="#C5BDBD"/>
<path fill-rule="evenodd" clip-rule="evenodd" d="M46.6965 20.3437C50.1351 20.3437 52.9227 17.5561 52.9227 14.1175C52.9227 10.6789 50.1351 7.89135 46.6965 7.89135C43.2579 7.89135 40.4703 10.6789 40.4703 14.1175C40.4703 17.5561 43.2579 20.3437 46.6965 20.3437ZM46.6965 24.235C52.2842 24.235 56.814 19.7053 56.814 14.1175C56.814 8.52977 52.2842 4 46.6965 4C41.1087 4 36.579 8.52976 36.579 14.1175C36.579 19.7053 41.1087 24.235 46.6965 24.235Z" fill="#80F56D"/>
<path fill-rule="evenodd" clip-rule="evenodd" d="M26.4614 40.575C27.2861 40.575 28.077 40.2474 28.6601 39.6643C29.2432 39.0812 29.5708 38.2903 29.5708 37.4656C29.5708 36.6409 29.2432 35.85 28.6601 35.2669C28.077 34.6838 27.2861 34.3562 26.4614 34.3562L26.4614 30.4612C27.8568 30.4612 29.2093 30.8776 30.3527 31.6415C30.7315 31.8946 31.0874 32.1859 31.4143 32.5127C32.7279 33.8263 33.4658 35.6079 33.4658 37.4656C33.4658 39.3233 32.7279 41.1049 31.4143 42.4185C31.0874 42.7454 30.7315 43.0366 30.3527 43.2897C29.2093 44.0537 27.8568 44.47 26.4614 44.47L26.4614 40.575Z" fill="#80F56D"/>
<path fill-rule="evenodd" clip-rule="evenodd" d="M2.72422 65.4833C6.12467 65.4833 9.38586 60.7739 11.7903 56.1327C14.1948 51.4915 14.5561 45.1967 14.5561 38.633C14.5561 32.0693 14.1948 25.7745 11.7903 21.1333C9.38586 16.492 6.12468 11.3935 2.72423 11.3935L2.72423 6.33478C4.0457 6.33478 5.35106 6.63651 6.61558 7.2202C9.59761 8.5967 12.3525 11.5413 14.5561 15.7947C17.6941 21.8518 19.457 30.067 19.457 38.633C19.457 47.199 17.6941 55.4142 14.5561 61.4713C12.3525 65.7247 9.5976 68.6693 6.61557 70.0458C5.35105 70.6295 4.04569 70.9312 2.72422 70.9312L2.72422 65.4833Z" fill="#80F56D"/>
<path fill-rule="evenodd" clip-rule="evenodd" d="M4.02222e-06 34.3525L6.67572e-06 4L3.89136 4L3.89135 34.3525L4.02222e-06 34.3525Z" fill="#80F56D"/>
<path fill-rule="evenodd" clip-rule="evenodd" d="M4.02222e-06 70.9312L6.67572e-06 40.5787L3.89136 40.5787L3.89135 70.9312L4.02222e-06 70.9312Z" fill="#80F56D"/>
<path fill-rule="evenodd" clip-rule="evenodd" d="M1.5569 30.4612L26.4615 30.4612L26.4615 34.3525L1.5569 34.3525L1.5569 30.4612Z" fill="#80F56D"/>
<path fill-rule="evenodd" clip-rule="evenodd" d="M0.000364644 40.5787L26.4615 40.5787L26.4615 44.47L0.000364304 44.47L0.000364644 40.5787Z" fill="#80F56D"/>
<path fill-rule="evenodd" clip-rule="evenodd" d="M46.698 7.89135L0.00183071 7.89135L0.00183105 4L46.698 4L46.698 7.89135Z" fill="#80F56D"/>
<path d="M81.478 6.454V7.786H76.024V12.016H80.452V13.348H76.024V19H74.386V6.454H81.478ZM82.9443 14.032C82.9443 13.024 83.1483 12.142 83.5563 11.386C83.9643 10.618 84.5223 10.024 85.2303 9.604C85.9503 9.184 86.7483 8.974 87.6243 8.974C88.4883 8.974 89.2383 9.16 89.8743 9.532C90.5103 9.904 90.9843 10.372 91.2963 10.936V9.136H92.9523V19H91.2963V17.164C90.9723 17.74 90.4863 18.22 89.8383 18.604C89.2023 18.976 88.4583 19.162 87.6063 19.162C86.7303 19.162 85.9383 18.946 85.2303 18.514C84.5223 18.082 83.9643 17.476 83.5563 16.696C83.1483 15.916 82.9443 15.028 82.9443 14.032ZM91.2963 14.05C91.2963 13.306 91.1463 12.658 90.8463 12.106C90.5463 11.554 90.1383 11.134 89.6223 10.846C89.1183 10.546 88.5603 10.396 87.9483 10.396C87.3363 10.396 86.7783 10.54 86.2743 10.828C85.7703 11.116 85.3683 11.536 85.0683 12.088C84.7683 12.64 84.6183 13.288 84.6183 14.032C84.6183 14.788 84.7683 15.448 85.0683 16.012C85.3683 16.564 85.7703 16.99 86.2743 17.29C86.7783 17.578 87.3363 17.722 87.9483 17.722C88.5603 17.722 89.1183 17.578 89.6223 17.29C90.1383 16.99 90.5463 16.564 90.8463 16.012C91.1463 15.448 91.2963 14.794 91.2963 14.05ZM104.316 9.136L98.3764 23.644H96.6844L98.6284 18.892L94.6504 9.136H96.4684L99.5644 17.128L102.624 9.136H104.316ZM105.451 14.05C105.451 13.03 105.655 12.142 106.063 11.386C106.471 10.618 107.035 10.024 107.755 9.604C108.487 9.184 109.321 8.974 110.257 8.974C111.469 8.974 112.465 9.268 113.245 9.856C114.037 10.444 114.559 11.26 114.811 12.304H113.047C112.879 11.704 112.549 11.23 112.057 10.882C111.577 10.534 110.977 10.36 110.257 10.36C109.321 10.36 108.565 10.684 107.989 11.332C107.413 11.968 107.125 12.874 107.125 14.05C107.125 15.238 107.413 16.156 107.989 16.804C108.565 17.452 109.321 17.776 110.257 17.776C110.977 17.776 111.577 17.608 112.057 17.272C112.537 16.936 112.867 16.456 113.047 15.832H114.811C114.547 16.84 114.019 17.65 113.227 18.262C112.435 18.862 111.445 19.162 110.257 19.162C109.321 19.162 108.487 18.952 107.755 18.532C107.035 18.112 106.471 17.518 106.063 16.75C105.655 15.982 105.451 15.082 105.451 14.05ZM126.097 13.69C126.097 14.002 126.079 14.332 126.043 14.68H118.159C118.219 15.652 118.549 16.414 119.149 16.966C119.761 17.506 120.499 17.776 121.363 17.776C122.071 17.776 122.659 17.614 123.127 17.29C123.607 16.954 123.943 16.51 124.135 15.958H125.899C125.635 16.906 125.107 17.68 124.315 18.28C123.523 18.868 122.539 19.162 121.363 19.162C120.427 19.162 119.587 18.952 118.843 18.532C118.111 18.112 117.535 17.518 117.115 16.75C116.695 15.97 116.485 15.07 116.485 14.05C116.485 13.03 116.689 12.136 117.097 11.368C117.505 10.6 118.075 10.012 118.807 9.604C119.551 9.184 120.403 8.974 121.363 8.974C122.299 8.974 123.127 9.178 123.847 9.586C124.567 9.994 125.119 10.558 125.503 11.278C125.899 11.986 126.097 12.79 126.097 13.69ZM124.405 13.348C124.405 12.724 124.267 12.19 123.991 11.746C123.715 11.29 123.337 10.948 122.857 10.72C122.389 10.48 121.867 10.36 121.291 10.36C120.463 10.36 119.755 10.624 119.167 11.152C118.591 11.68 118.261 12.412 118.177 13.348H124.405ZM129.997 5.68V19H128.359V5.68H129.997ZM80.668 37.538C81.124 37.61 81.538 37.796 81.91 38.096C82.294 38.396 82.594 38.768 82.81 39.212C83.038 39.656 83.152 40.13 83.152 40.634C83.152 41.27 82.99 41.846 82.666 42.362C82.342 42.866 81.868 43.268 81.244 43.568C80.632 43.856 79.906 44 79.066 44H74.386V31.454H78.886C79.738 31.454 80.464 31.598 81.064 31.886C81.664 32.162 82.114 32.54 82.414 33.02C82.714 33.5 82.864 34.04 82.864 34.64C82.864 35.384 82.66 36.002 82.252 36.494C81.856 36.974 81.328 37.322 80.668 37.538ZM76.024 36.872H78.778C79.546 36.872 80.14 36.692 80.56 36.332C80.98 35.972 81.19 35.474 81.19 34.838C81.19 34.202 80.98 33.704 80.56 33.344C80.14 32.984 79.534 32.804 78.742 32.804H76.024V36.872ZM78.922 42.65C79.738 42.65 80.374 42.458 80.83 42.074C81.286 41.69 81.514 41.156 81.514 40.472C81.514 39.776 81.274 39.23 80.794 38.834C80.314 38.426 79.672 38.222 78.868 38.222H76.024V42.65H78.922ZM87.1631 32.786V36.98H91.7351V38.33H87.1631V42.65H92.2751V44H85.5251V31.436H92.2751V32.786H87.1631ZM104.718 44H103.08L96.4916 34.01V44H94.8536V31.436H96.4916L103.08 41.408V31.436H104.718V44ZM116.394 31.454L112.308 39.266V44H110.67V39.266L106.566 31.454H108.384L111.48 37.808L114.576 31.454H116.394ZM139.419 31.454V39.392C139.419 40.508 139.689 41.336 140.229 41.876C140.781 42.416 141.543 42.686 142.515 42.686C143.475 42.686 144.225 42.416 144.765 41.876C145.317 41.336 145.593 40.508 145.593 39.392V31.454H147.231V39.374C147.231 40.418 147.021 41.3 146.601 42.02C146.181 42.728 145.611 43.256 144.891 43.604C144.183 43.952 143.385 44.126 142.497 44.126C141.609 44.126 140.805 43.952 140.085 43.604C139.377 43.256 138.813 42.728 138.393 42.02C137.985 41.3 137.781 40.418 137.781 39.374V31.454H139.419ZM154.041 44.126C153.213 44.126 152.469 43.982 151.809 43.694C151.161 43.394 150.651 42.986 150.279 42.47C149.907 41.942 149.715 41.336 149.703 40.652H151.449C151.509 41.24 151.749 41.738 152.169 42.146C152.601 42.542 153.225 42.74 154.041 42.74C154.821 42.74 155.433 42.548 155.877 42.164C156.333 41.768 156.561 41.264 156.561 40.652C156.561 40.172 156.429 39.782 156.165 39.482C155.901 39.182 155.571 38.954 155.175 38.798C154.779 38.642 154.245 38.474 153.573 38.294C152.745 38.078 152.079 37.862 151.575 37.646C151.083 37.43 150.657 37.094 150.297 36.638C149.949 36.17 149.775 35.546 149.775 34.766C149.775 34.082 149.949 33.476 150.297 32.948C150.645 32.42 151.131 32.012 151.755 31.724C152.391 31.436 153.117 31.292 153.933 31.292C155.109 31.292 156.069 31.586 156.813 32.174C157.569 32.762 157.995 33.542 158.091 34.514H156.291C156.231 34.034 155.979 33.614 155.535 33.254C155.091 32.882 154.503 32.696 153.771 32.696C153.087 32.696 152.529 32.876 152.097 33.236C151.665 33.584 151.449 34.076 151.449 34.712C151.449 35.168 151.575 35.54 151.827 35.828C152.091 36.116 152.409 36.338 152.781 36.494C153.165 36.638 153.699 36.806 154.383 36.998C155.211 37.226 155.877 37.454 156.381 37.682C156.885 37.898 157.317 38.24 157.677 38.708C158.037 39.164 158.217 39.788 158.217 40.58C158.217 41.192 158.055 41.768 157.731 42.308C157.407 42.848 156.927 43.286 156.291 43.622C155.655 43.958 154.905 44.126 154.041 44.126ZM164.706 44.126C163.878 44.126 163.134 43.982 162.474 43.694C161.826 43.394 161.316 42.986 160.944 42.47C160.572 41.942 160.38 41.336 160.368 40.652H162.114C162.174 41.24 162.414 41.738 162.834 42.146C163.266 42.542 163.89 42.74 164.706 42.74C165.486 42.74 166.098 42.548 166.542 42.164C166.998 41.768 167.226 41.264 167.226 40.652C167.226 40.172 167.094 39.782 166.83 39.482C166.566 39.182 166.236 38.954 165.84 38.798C165.444 38.642 164.91 38.474 164.238 38.294C163.41 38.078 162.744 37.862 162.24 37.646C161.748 37.43 161.322 37.094 160.962 36.638C160.614 36.17 160.44 35.546 160.44 34.766C160.44 34.082 160.614 33.476 160.962 32.948C161.31 32.42 161.796 32.012 162.42 31.724C163.056 31.436 163.782 31.292 164.598 31.292C165.774 31.292 166.734 31.586 167.478 32.174C168.234 32.762 168.66 33.542 168.756 34.514H166.956C166.896 34.034 166.644 33.614 166.2 33.254C165.756 32.882 165.168 32.696 164.436 32.696C163.752 32.696 163.194 32.876 162.762 33.236C162.33 33.584 162.114 34.076 162.114 34.712C162.114 35.168 162.24 35.54 162.492 35.828C162.756 36.116 163.074 36.338 163.446 36.494C163.83 36.638 164.364 36.806 165.048 36.998C165.876 37.226 166.542 37.454 167.046 37.682C167.55 37.898 167.982 38.24 168.342 38.708C168.702 39.164 168.882 39.788 168.882 40.58C168.882 41.192 168.72 41.768 168.396 42.308C168.072 42.848 167.592 43.286 166.956 43.622C166.32 43.958 165.57 44.126 164.706 44.126ZM178.808 41.21H173.336L172.328 44H170.6L175.136 31.526H177.026L181.544 44H179.816L178.808 41.21ZM178.34 39.878L176.072 33.542L173.804 39.878H178.34ZM78.634 56.436C79.954 56.436 81.112 56.694 82.108 57.21C83.116 57.726 83.89 58.464 84.43 59.424C84.982 60.372 85.258 61.476 85.258 62.736C85.258 63.996 84.982 65.1 84.43 66.048C83.89 66.984 83.116 67.71 82.108 68.226C81.112 68.742 79.954 69 78.634 69H74.242V56.436H78.634ZM78.544 66.858C79.864 66.858 80.884 66.498 81.604 65.778C82.324 65.058 82.684 64.044 82.684 62.736C82.684 61.428 82.324 60.408 81.604 59.676C80.884 58.932 79.864 58.56 78.544 58.56H76.762V66.858H78.544ZM96.5143 63.798C96.5143 64.158 96.4903 64.482 96.4423 64.77H89.1523C89.2123 65.49 89.4643 66.054 89.9083 66.462C90.3523 66.87 90.8983 67.074 91.5463 67.074C92.4823 67.074 93.1483 66.672 93.5443 65.868H96.2623C95.9743 66.828 95.4223 67.62 94.6063 68.244C93.7903 68.856 92.7883 69.162 91.6003 69.162C90.6403 69.162 89.7763 68.952 89.0083 68.532C88.2523 68.1 87.6583 67.494 87.2263 66.714C86.8063 65.934 86.5963 65.034 86.5963 64.014C86.5963 62.982 86.8063 62.076 87.2263 61.296C87.6463 60.516 88.2343 59.916 88.9903 59.496C89.7463 59.076 90.6163 58.866 91.6003 58.866C92.5483 58.866 93.3943 59.07 94.1383 59.478C94.8943 59.886 95.4763 60.468 95.8843 61.224C96.3043 61.968 96.5143 62.826 96.5143 63.798ZM93.9043 63.078C93.8923 62.43 93.6583 61.914 93.2023 61.53C92.7463 61.134 92.1883 60.936 91.5283 60.936C90.9043 60.936 90.3763 61.128 89.9443 61.512C89.5243 61.884 89.2663 62.406 89.1703 63.078H93.9043ZM93.5263 56.4L89.3863 58.29V56.49L93.5263 54.348V56.4ZM102.612 66.678L105.132 59.028H107.814L104.124 69H101.064L97.3917 59.028H100.092L102.612 66.678ZM118.599 63.798C118.599 64.158 118.575 64.482 118.527 64.77H111.237C111.297 65.49 111.549 66.054 111.993 66.462C112.437 66.87 112.983 67.074 113.631 67.074C114.567 67.074 115.233 66.672 115.629 65.868H118.347C118.059 66.828 117.507 67.62 116.691 68.244C115.875 68.856 114.873 69.162 113.685 69.162C112.725 69.162 111.861 68.952 111.093 68.532C110.337 68.1 109.743 67.494 109.311 66.714C108.891 65.934 108.681 65.034 108.681 64.014C108.681 62.982 108.891 62.076 109.311 61.296C109.731 60.516 110.319 59.916 111.075 59.496C111.831 59.076 112.701 58.866 113.685 58.866C114.633 58.866 115.479 59.07 116.223 59.478C116.979 59.886 117.561 60.468 117.969 61.224C118.389 61.968 118.599 62.826 118.599 63.798ZM115.989 63.078C115.977 62.43 115.743 61.914 115.287 61.53C114.831 61.134 114.273 60.936 113.613 60.936C112.989 60.936 112.461 61.128 112.029 61.512C111.609 61.884 111.351 62.406 111.255 63.078H115.989ZM123.058 55.68V69H120.538V55.68H123.058ZM130.076 69.162C129.116 69.162 128.252 68.952 127.484 68.532C126.716 68.1 126.11 67.494 125.666 66.714C125.234 65.934 125.018 65.034 125.018 64.014C125.018 62.994 125.24 62.094 125.684 61.314C126.14 60.534 126.758 59.934 127.538 59.514C128.318 59.082 129.188 58.866 130.148 58.866C131.108 58.866 131.978 59.082 132.758 59.514C133.538 59.934 134.15 60.534 134.594 61.314C135.05 62.094 135.278 62.994 135.278 64.014C135.278 65.034 135.044 65.934 134.576 66.714C134.12 67.494 133.496 68.1 132.704 68.532C131.924 68.952 131.048 69.162 130.076 69.162ZM130.076 66.966C130.532 66.966 130.958 66.858 131.354 66.642C131.762 66.414 132.086 66.078 132.326 65.634C132.566 65.19 132.686 64.65 132.686 64.014C132.686 63.066 132.434 62.34 131.93 61.836C131.438 61.32 130.832 61.062 130.112 61.062C129.392 61.062 128.786 61.32 128.294 61.836C127.814 62.34 127.574 63.066 127.574 64.014C127.574 64.962 127.808 65.694 128.276 66.21C128.756 66.714 129.356 66.966 130.076 66.966ZM139.747 60.468C140.071 60.012 140.515 59.634 141.079 59.334C141.655 59.022 142.309 58.866 143.041 58.866C143.893 58.866 144.661 59.076 145.345 59.496C146.041 59.916 146.587 60.516 146.983 61.296C147.391 62.064 147.595 62.958 147.595 63.978C147.595 64.998 147.391 65.904 146.983 66.696C146.587 67.476 146.041 68.082 145.345 68.514C144.661 68.946 143.893 69.162 143.041 69.162C142.309 69.162 141.661 69.012 141.097 68.712C140.545 68.412 140.095 68.034 139.747 67.578V73.752H137.227V59.028H139.747V60.468ZM145.021 63.978C145.021 63.378 144.895 62.862 144.643 62.43C144.403 61.986 144.079 61.65 143.671 61.422C143.275 61.194 142.843 61.08 142.375 61.08C141.919 61.08 141.487 61.2 141.079 61.44C140.683 61.668 140.359 62.004 140.107 62.448C139.867 62.892 139.747 63.414 139.747 64.014C139.747 64.614 139.867 65.136 140.107 65.58C140.359 66.024 140.683 66.366 141.079 66.606C141.487 66.834 141.919 66.948 142.375 66.948C142.843 66.948 143.275 66.828 143.671 66.588C144.079 66.348 144.403 66.006 144.643 65.562C144.895 65.118 145.021 64.59 145.021 63.978ZM152.046 60.468C152.37 60.012 152.814 59.634 153.378 59.334C153.954 59.022 154.608 58.866 155.34 58.866C156.192 58.866 156.96 59.076 157.644 59.496C158.34 59.916 158.886 60.516 159.282 61.296C159.69 62.064 159.894 62.958 159.894 63.978C159.894 64.998 159.69 65.904 159.282 66.696C158.886 67.476 158.34 68.082 157.644 68.514C156.96 68.946 156.192 69.162 155.34 69.162C154.608 69.162 153.96 69.012 153.396 68.712C152.844 68.412 152.394 68.034 152.046 67.578V73.752H149.526V59.028H152.046V60.468ZM157.32 63.978C157.32 63.378 157.194 62.862 156.942 62.43C156.702 61.986 156.378 61.65 155.97 61.422C155.574 61.194 155.142 61.08 154.674 61.08C154.218 61.08 153.786 61.2 153.378 61.44C152.982 61.668 152.658 62.004 152.406 62.448C152.166 62.892 152.046 63.414 152.046 64.014C152.046 64.614 152.166 65.136 152.406 65.58C152.658 66.024 152.982 66.366 153.378 66.606C153.786 66.834 154.218 66.948 154.674 66.948C155.142 66.948 155.574 66.828 155.97 66.588C156.378 66.348 156.702 66.006 156.942 65.562C157.194 65.118 157.32 64.59 157.32 63.978ZM171.095 63.798C171.095 64.158 171.071 64.482 171.023 64.77H163.733C163.793 65.49 164.045 66.054 164.489 66.462C164.933 66.87 165.479 67.074 166.127 67.074C167.063 67.074 167.729 66.672 168.125 65.868H170.843C170.555 66.828 170.003 67.62 169.187 68.244C168.371 68.856 167.369 69.162 166.181 69.162C165.221 69.162 164.357 68.952 163.589 68.532C162.833 68.1 162.239 67.494 161.807 66.714C161.387 65.934 161.177 65.034 161.177 64.014C161.177 62.982 161.387 62.076 161.807 61.296C162.227 60.516 162.815 59.916 163.571 59.496C164.327 59.076 165.197 58.866 166.181 58.866C167.129 58.866 167.975 59.07 168.719 59.478C169.475 59.886 170.057 60.468 170.465 61.224C170.885 61.968 171.095 62.826 171.095 63.798ZM168.485 63.078C168.473 62.43 168.239 61.914 167.783 61.53C167.327 61.134 166.769 60.936 166.109 60.936C165.485 60.936 164.957 61.128 164.525 61.512C164.105 61.884 163.847 62.406 163.751 63.078H168.485ZM182.449 59.028V69H179.911V67.74C179.587 68.172 179.161 68.514 178.633 68.766C178.117 69.006 177.553 69.126 176.941 69.126C176.161 69.126 175.471 68.964 174.871 68.64C174.271 68.304 173.797 67.818 173.449 67.182C173.113 66.534 172.945 65.766 172.945 64.878V59.028H175.465V64.518C175.465 65.31 175.663 65.922 176.059 66.354C176.455 66.774 176.995 66.984 177.679 66.984C178.375 66.984 178.921 66.774 179.317 66.354C179.713 65.922 179.911 65.31 179.911 64.518V59.028H182.449ZM187.555 60.576C187.879 60.048 188.299 59.634 188.815 59.334C189.343 59.034 189.943 58.884 190.615 58.884V61.53H189.949C189.157 61.53 188.557 61.716 188.149 62.088C187.753 62.46 187.555 63.108 187.555 64.032V69H185.035V59.028H187.555V60.576Z" fill="#C5BDBD"/>
<path d="M204.559 56.436V58.47H199.321V61.692H203.335V63.69H199.321V69H196.801V56.436H204.559ZM208.93 56.436V64.212C208.93 65.064 209.152 65.718 209.596 66.174C210.04 66.618 210.664 66.84 211.468 66.84C212.284 66.84 212.914 66.618 213.358 66.174C213.802 65.718 214.024 65.064 214.024 64.212V56.436H216.562V64.194C216.562 65.262 216.328 66.168 215.86 66.912C215.404 67.644 214.786 68.196 214.006 68.568C213.238 68.94 212.38 69.126 211.432 69.126C210.496 69.126 209.644 68.94 208.876 68.568C208.12 68.196 207.52 67.644 207.076 66.912C206.632 66.168 206.41 65.262 206.41 64.194V56.436H208.93ZM221.617 67.002H225.757V69H219.097V56.436H221.617V67.002ZM229.979 67.002H234.119V69H227.459V56.436H229.979V67.002ZM243.489 61.512V63.636H235.857V61.512H243.489ZM250.753 69.126C249.877 69.126 249.085 68.976 248.377 68.676C247.681 68.376 247.129 67.944 246.721 67.38C246.313 66.816 246.103 66.15 246.091 65.382H248.791C248.827 65.898 249.007 66.306 249.331 66.606C249.667 66.906 250.123 67.056 250.699 67.056C251.287 67.056 251.749 66.918 252.085 66.642C252.421 66.354 252.589 65.982 252.589 65.526C252.589 65.154 252.475 64.848 252.247 64.608C252.019 64.368 251.731 64.182 251.383 64.05C251.047 63.906 250.579 63.75 249.979 63.582C249.163 63.342 248.497 63.108 247.981 62.88C247.477 62.64 247.039 62.286 246.667 61.818C246.307 61.338 246.127 60.702 246.127 59.91C246.127 59.166 246.313 58.518 246.685 57.966C247.057 57.414 247.579 56.994 248.251 56.706C248.923 56.406 249.691 56.256 250.555 56.256C251.851 56.256 252.901 56.574 253.705 57.21C254.521 57.834 254.971 58.71 255.055 59.838H252.283C252.259 59.406 252.073 59.052 251.725 58.776C251.389 58.488 250.939 58.344 250.375 58.344C249.883 58.344 249.487 58.47 249.187 58.722C248.899 58.974 248.755 59.34 248.755 59.82C248.755 60.156 248.863 60.438 249.079 60.666C249.307 60.882 249.583 61.062 249.907 61.206C250.243 61.338 250.711 61.494 251.311 61.674C252.127 61.914 252.793 62.154 253.309 62.394C253.825 62.634 254.269 62.994 254.641 63.474C255.013 63.954 255.199 64.584 255.199 65.364C255.199 66.036 255.025 66.66 254.677 67.236C254.329 67.812 253.819 68.274 253.147 68.622C252.475 68.958 251.677 69.126 250.753 69.126ZM266.033 56.436V58.47H262.685V69H260.165V58.47H256.817V56.436H266.033ZM275.676 66.606H270.672L269.844 69H267.198L271.716 56.418H274.65L279.168 69H276.504L275.676 66.606ZM274.992 64.59L273.174 59.334L271.356 64.59H274.992ZM280.345 62.7C280.345 61.464 280.621 60.36 281.173 59.388C281.737 58.404 282.499 57.642 283.459 57.102C284.431 56.55 285.517 56.274 286.717 56.274C288.121 56.274 289.351 56.634 290.407 57.354C291.463 58.074 292.201 59.07 292.621 60.342H289.723C289.435 59.742 289.027 59.292 288.499 58.992C287.983 58.692 287.383 58.542 286.699 58.542C285.967 58.542 285.313 58.716 284.737 59.064C284.173 59.4 283.729 59.88 283.405 60.504C283.093 61.128 282.937 61.86 282.937 62.7C282.937 63.528 283.093 64.26 283.405 64.896C283.729 65.52 284.173 66.006 284.737 66.354C285.313 66.69 285.967 66.858 286.699 66.858C287.383 66.858 287.983 66.708 288.499 66.408C289.027 66.096 289.435 65.64 289.723 65.04H292.621C292.201 66.324 291.463 67.326 290.407 68.046C289.363 68.754 288.133 69.108 286.717 69.108C285.517 69.108 284.431 68.838 283.459 68.298C282.499 67.746 281.737 66.984 281.173 66.012C280.621 65.04 280.345 63.936 280.345 62.7ZM301.965 69L297.393 63.402V69H294.873V56.436H297.393V62.07L301.965 56.436H305.007L299.823 62.664L305.151 69H301.965Z" fill="#80F56D"/>
<circle cx="126.5" cy="37.5" r="2.5" fill="#80F56D"/>
<circle cx="126.5" cy="37.5" r="7" stroke="#80F56D"/>
</svg>
