<svg width="57" height="67" viewBox="0 0 57 67" fill="none" xmlns="http://www.w3.org/2000/svg">
<path fill-rule="evenodd" clip-rule="evenodd" d="M10.1176 16.3437C6.67899 16.3437 3.89144 13.5561 3.89144 10.1175C3.89144 6.6789 6.67898 3.89135 10.1176 3.89135C13.5562 3.89135 16.3438 6.6789 16.3438 10.1175C16.3438 13.5561 13.5562 16.3437 10.1176 16.3437ZM10.1176 20.235C4.52985 20.235 8.72037e-05 15.7053 8.67152e-05 10.1175C8.62267e-05 4.52977 4.52985 1.373e-06 10.1176 8.84501e-07C15.7053 3.96004e-07 20.2351 4.52976 20.2351 10.1175C20.2351 15.7053 15.7053 20.235 10.1176 20.235Z" fill="#C5BDBD"/>
<path fill-rule="evenodd" clip-rule="evenodd" d="M30.3527 36.575C29.528 36.575 28.7371 36.2474 28.154 35.6643C27.5709 35.0812 27.2433 34.2903 27.2433 33.4656C27.2433 32.6409 27.5709 31.85 28.154 31.2669C28.7371 30.6838 29.528 30.3562 30.3527 30.3562L30.3527 26.4612C28.9573 26.4612 27.6048 26.8776 26.4613 27.6415C26.0825 27.8946 25.7267 28.1859 25.3998 28.5127C24.0862 29.8263 23.3483 31.6079 23.3483 33.4656C23.3483 35.3233 24.0862 37.1049 25.3998 38.4185C25.7267 38.7454 26.0826 39.0366 26.4613 39.2897C27.6048 40.0537 28.9573 40.47 30.3527 40.47L30.3527 36.575Z" fill="#C5BDBD"/>
<path fill-rule="evenodd" clip-rule="evenodd" d="M54.0899 61.4833C50.6894 61.4833 47.4282 56.7739 45.0237 52.1327C42.6193 47.4915 42.258 41.1967 42.258 34.633C42.258 28.0693 42.6193 21.7745 45.0237 17.1333C47.4282 12.492 50.6894 7.39353 54.0899 7.39353L54.0899 2.33478C52.7684 2.33478 51.463 2.63651 50.1985 3.2202C47.2165 4.5967 44.4616 7.54127 42.258 11.7947C39.12 17.8518 37.3571 26.067 37.3571 34.633C37.3571 43.199 39.12 51.4142 42.258 57.4713C44.4616 61.7247 47.2165 64.6693 50.1985 66.0458C51.463 66.6295 52.7684 66.9312 54.0899 66.9312L54.0899 61.4833Z" fill="#C5BDBD"/>
<path fill-rule="evenodd" clip-rule="evenodd" d="M56.8141 30.3525L56.8141 -3.40193e-07L52.9227 0L52.9227 30.3525L56.8141 30.3525Z" fill="#C5BDBD"/>
<path fill-rule="evenodd" clip-rule="evenodd" d="M56.8141 66.9312L56.8141 36.5787L52.9227 36.5787L52.9227 66.9312L56.8141 66.9312Z" fill="#C5BDBD"/>
<path fill-rule="evenodd" clip-rule="evenodd" d="M55.2572 26.4612L30.3525 26.4612L30.3525 30.3525L55.2572 30.3525L55.2572 26.4612Z" fill="#C5BDBD"/>
<path fill-rule="evenodd" clip-rule="evenodd" d="M56.8137 36.5787L30.3525 36.5787L30.3525 40.47L56.8137 40.47L56.8137 36.5787Z" fill="#C5BDBD"/>
<path fill-rule="evenodd" clip-rule="evenodd" d="M10.1161 3.89135L56.8123 3.89135L56.8123 0L10.1161 4.08231e-06L10.1161 3.89135Z" fill="#C5BDBD"/>
<path fill-rule="evenodd" clip-rule="evenodd" d="M46.6965 16.3437C50.1351 16.3437 52.9227 13.5561 52.9227 10.1175C52.9227 6.6789 50.1351 3.89135 46.6965 3.89135C43.2579 3.89135 40.4703 6.6789 40.4703 10.1175C40.4703 13.5561 43.2579 16.3437 46.6965 16.3437ZM46.6965 20.235C52.2842 20.235 56.814 15.7053 56.814 10.1175C56.814 4.52977 52.2842 1.373e-06 46.6965 8.84501e-07C41.1087 3.96005e-07 36.579 4.52976 36.579 10.1175C36.579 15.7053 41.1087 20.235 46.6965 20.235Z" fill="#80F56D"/>
<path fill-rule="evenodd" clip-rule="evenodd" d="M26.4614 36.575C27.2861 36.575 28.077 36.2474 28.6601 35.6643C29.2432 35.0812 29.5708 34.2903 29.5708 33.4656C29.5708 32.6409 29.2432 31.85 28.6601 31.2669C28.077 30.6838 27.2861 30.3562 26.4614 30.3562L26.4614 26.4612C27.8568 26.4612 29.2093 26.8776 30.3527 27.6415C30.7315 27.8946 31.0874 28.1859 31.4143 28.5127C32.7279 29.8263 33.4658 31.6079 33.4658 33.4656C33.4658 35.3233 32.7279 37.1049 31.4143 38.4185C31.0874 38.7454 30.7315 39.0366 30.3527 39.2897C29.2093 40.0537 27.8568 40.47 26.4614 40.47L26.4614 36.575Z" fill="#80F56D"/>
<path fill-rule="evenodd" clip-rule="evenodd" d="M2.72422 61.4833C6.12467 61.4833 9.38586 56.7739 11.7903 52.1327C14.1948 47.4915 14.5561 41.1967 14.5561 34.633C14.5561 28.0693 14.1948 21.7745 11.7903 17.1333C9.38586 12.492 6.12468 7.39353 2.72423 7.39353L2.72423 2.33478C4.0457 2.33478 5.35106 2.63651 6.61558 3.2202C9.59761 4.5967 12.3525 7.54127 14.5561 11.7947C17.6941 17.8518 19.457 26.067 19.457 34.633C19.457 43.199 17.6941 51.4142 14.5561 57.4713C12.3525 61.7247 9.5976 64.6693 6.61557 66.0458C5.35105 66.6295 4.04569 66.9312 2.72422 66.9312L2.72422 61.4833Z" fill="#80F56D"/>
<path fill-rule="evenodd" clip-rule="evenodd" d="M4.02222e-06 30.3525L6.67572e-06 -3.40193e-07L3.89136 0L3.89135 30.3525L4.02222e-06 30.3525Z" fill="#80F56D"/>
<path fill-rule="evenodd" clip-rule="evenodd" d="M4.02222e-06 66.9312L6.67572e-06 36.5787L3.89136 36.5787L3.89135 66.9312L4.02222e-06 66.9312Z" fill="#80F56D"/>
<path fill-rule="evenodd" clip-rule="evenodd" d="M1.5569 26.4612L26.4615 26.4612L26.4615 30.3525L1.5569 30.3525L1.5569 26.4612Z" fill="#80F56D"/>
<path fill-rule="evenodd" clip-rule="evenodd" d="M0.000364644 36.5787L26.4615 36.5787L26.4615 40.47L0.000364304 40.47L0.000364644 36.5787Z" fill="#80F56D"/>
<path fill-rule="evenodd" clip-rule="evenodd" d="M46.698 3.89135L0.00183071 3.89135L0.00183105 0L46.698 4.08231e-06L46.698 3.89135Z" fill="#80F56D"/>
</svg>
