<svg width="57" height="67" viewBox="0 0 57 67" fill="none" xmlns="http://www.w3.org/2000/svg">
<path fill-rule="evenodd" clip-rule="evenodd" d="M10.1176 16.3437C6.67898 16.3437 3.89144 13.5561 3.89144 10.1175C3.89144 6.6789 6.67898 3.89135 10.1176 3.89135C13.5562 3.89135 16.3438 6.6789 16.3438 10.1175C16.3438 13.5561 13.5562 16.3437 10.1176 16.3437ZM10.1176 20.235C4.52985 20.235 8.70845e-05 15.7053 8.6596e-05 10.1175C8.61075e-05 4.52977 4.52985 1.373e-06 10.1176 8.84501e-07C15.7053 3.96004e-07 20.2351 4.52976 20.2351 10.1175C20.2351 15.7053 15.7053 20.235 10.1176 20.235Z" fill="#C5BDBD"/>
<path fill-rule="evenodd" clip-rule="evenodd" d="M30.3528 36.575C29.5281 36.575 28.7373 36.2474 28.1541 35.6643C27.571 35.0812 27.2434 34.2903 27.2434 33.4656C27.2434 32.6409 27.571 31.85 28.1541 31.2669C28.7372 30.6838 29.5281 30.3562 30.3528 30.3562L30.3528 26.4612C28.9574 26.4612 27.6049 26.8776 26.4615 27.6415C26.0827 27.8946 25.7268 28.1859 25.3999 28.5127C24.0864 29.8263 23.3484 31.6079 23.3484 33.4656C23.3484 35.3233 24.0864 37.1049 25.3999 38.4185C25.7268 38.7454 26.0827 39.0366 26.4615 39.2897C27.6049 40.0537 28.9574 40.47 30.3528 40.47L30.3528 36.575Z" fill="#C5BDBD"/>
<path fill-rule="evenodd" clip-rule="evenodd" d="M54.09 61.4833C50.6895 61.4833 47.4284 56.7739 45.0239 52.1327C42.6194 47.4915 42.2581 41.1967 42.2581 34.633C42.2581 28.0693 42.6194 21.7745 45.0239 17.1333C47.4283 12.492 50.6895 7.39353 54.09 7.39353L54.09 2.33478C52.7685 2.33478 51.4631 2.63651 50.1986 3.2202C47.2166 4.5967 44.4617 7.54127 42.2581 11.7947C39.1201 17.8518 37.3572 26.067 37.3572 34.633C37.3572 43.199 39.1201 51.4142 42.2581 57.4713C44.4617 61.7247 47.2166 64.6693 50.1986 66.0458C51.4632 66.6295 52.7685 66.9312 54.09 66.9312L54.09 61.4833Z" fill="#C5BDBD"/>
<path fill-rule="evenodd" clip-rule="evenodd" d="M56.8142 30.3525L56.8142 -3.40193e-07L52.9229 0L52.9229 30.3525L56.8142 30.3525Z" fill="#C5BDBD"/>
<path fill-rule="evenodd" clip-rule="evenodd" d="M56.8142 66.9312L56.8142 36.5787L52.9229 36.5787L52.9229 66.9312L56.8142 66.9312Z" fill="#C5BDBD"/>
<path fill-rule="evenodd" clip-rule="evenodd" d="M55.2574 26.4612L30.3528 26.4612L30.3528 30.3525L55.2574 30.3525L55.2574 26.4612Z" fill="#C5BDBD"/>
<path fill-rule="evenodd" clip-rule="evenodd" d="M56.814 36.5787L30.3528 36.5787L30.3528 40.47L56.814 40.47L56.814 36.5787Z" fill="#C5BDBD"/>
<path fill-rule="evenodd" clip-rule="evenodd" d="M10.1161 3.89135L56.8123 3.89135L56.8123 0L10.1161 4.08231e-06L10.1161 3.89135Z" fill="#C5BDBD"/>
</svg>
