<svg width="22" height="22" viewBox="0 0 22 22" fill="none" xmlns="http://www.w3.org/2000/svg">
<path d="M4.68812 1.87176L4.69604 1.3718L4.69072 1.37177L4.68812 1.87176ZM6.63046 3.34769L7.1124 3.21442L7.11091 3.20926L6.63046 3.34769ZM7.50183 6.5617L7.98635 6.43813L7.98504 6.43321L7.50183 6.5617ZM6.81557 8.4814L7.0997 8.89284L7.10659 8.88807L7.11333 8.88308L6.81557 8.4814ZM6.10657 9.18355L6.53225 9.44585L6.53228 9.4458L6.10657 9.18355ZM7.88037 13.4764L8.23201 13.1209L8.232 13.1209L7.88037 13.4764ZM11.9103 16.2665L11.6922 16.7164L11.6961 16.7183L11.9103 16.2665ZM14.0521 15.4163L13.6206 15.1634L13.6151 15.1734L14.0521 15.4163ZM15.0891 14.9748L15.2092 14.4893L15.1984 14.4869L15.0891 14.9748ZM18.5432 15.8713L18.6765 15.3893L18.6715 15.388L18.5432 15.8713ZM20.0443 17.7998L20.5443 17.7972L20.5442 17.7919L20.0443 17.7998ZM19.5425 20.2535L19.9188 20.5827L19.9189 20.5826L19.5425 20.2535ZM18.2467 20.9352L18.3026 21.4321L18.3087 21.4314L18.2467 20.9352ZM17.3953 20.9914L17.3775 20.4917H17.3775L17.3953 20.9914ZM2.36042 11.2235L2.81715 11.02L2.81715 11.02L2.36042 11.2235ZM1.02663 3.9612L1.52575 3.99083L1.52575 3.99083L1.02663 3.9612ZM3.05289 1.87176L3.05012 1.37173L3.04393 1.37184L3.05289 1.87176ZM3.19708 2.74037V2.24037L3.19416 2.24038L3.19708 2.74037ZM1.97044 4.21151L1.47109 4.18613L1.47108 4.18616L1.97044 4.21151ZM1.96733 5.58714L1.46784 5.60966L1.46784 5.60967L1.96733 5.58714ZM12.0024 19.2938L11.8314 19.7636L11.8314 19.7636L12.0024 19.2938ZM17.8727 20.0814L17.8304 19.5832L17.8304 19.5832L17.8727 20.0814ZM19.0617 18.8789L19.5613 18.8993L19.5615 18.8934L19.0617 18.8789ZM18.9656 17.2346L18.5054 17.4301L18.5054 17.4301L18.9656 17.2346ZM18.1672 16.5285L18.301 16.0467L18.296 16.0454L18.1672 16.5285ZM14.8053 15.6517L14.6789 16.1355L14.6791 16.1356L14.8053 15.6517ZM14.2969 16.308L14.6711 16.6396L14.6712 16.6395L14.2969 16.308ZM11.218 16.7216L10.9917 17.1675L10.9917 17.1675L11.218 16.7216ZM5.41681 11.5021L4.97888 11.7434L4.97888 11.7434L5.41681 11.5021ZM6.20975 8.06211L6.50027 8.46905L6.51092 8.46144L6.52117 8.45328L6.20975 8.06211ZM6.76721 6.79916L7.25187 6.67616L7.25057 6.67122L6.76721 6.79916ZM5.91118 3.62798L6.39183 3.49015L6.39031 3.48503L5.91118 3.62798ZM4.76878 2.74037L4.77672 2.24041L4.77146 2.24038L4.76878 2.74037ZM13.2877 1.00007L13.2923 0.500089L13.2897 0.500079L13.2877 1.00007ZM20.2292 5.56211L19.7757 5.7728L19.7757 5.7728L20.2292 5.56211ZM18.8124 14.7381L18.4466 14.3973L18.4465 14.3974L18.8124 14.7381ZM18.2612 14.1944L18.6282 14.534L18.6302 14.5318L18.2612 14.1944ZM18.9401 4.85884L19.3546 4.57927L19.3546 4.57925L18.9401 4.85884ZM11.9949 1.87778L11.9019 1.38652L11.9018 1.38653L11.9949 1.87778ZM8.31472 3.89876L8.62785 4.28857L8.65288 4.26846L8.67513 4.24533L8.31472 3.89876ZM7.98441 4.01746L8.03786 3.52033L8.03766 3.52031L7.98441 4.01746ZM7.84665 3.27101L7.49289 2.91765L7.49059 2.91998L7.84665 3.27101ZM13.1474 1.00046L13.1433 0.500457L13.1396 0.500516L13.1474 1.00046ZM13.0466 2.73913L13.0511 2.23913H13.0466V2.73913ZM18.4962 6.14966L18.9456 5.93052L18.9456 5.93052L18.4962 6.14966ZM17.4932 12.8866L17.1269 12.5463L17.1268 12.5463L17.4932 12.8866ZM16.9159 13.1604L16.784 13.6427L16.7842 13.6427L16.9159 13.1604ZM16.8282 12.4462L17.1891 12.7922L17.1913 12.7899L16.8282 12.4462ZM17.3189 5.7252L16.9107 6.01405L16.9107 6.01406L17.3189 5.7252ZM9.28621 5.03245L9.59962 5.42202L9.61978 5.4058L9.63816 5.38759L9.28621 5.03245ZM8.99219 5.1523L8.99648 5.65228L8.99731 5.65227L8.99219 5.1523ZM8.82985 4.38447L9.17147 4.74956L9.17155 4.74949L8.82985 4.38447ZM12.9732 2.73913V2.23911L12.9687 2.23915L12.9732 2.73913ZM13.3806 5.3479L13.39 4.84795L13.3837 4.84791L13.3806 5.3479ZM16.804 7.59049L16.352 7.8041L16.352 7.80411L16.804 7.59049ZM16.0946 12.1654L16.4428 12.5243L16.4513 12.516L16.4594 12.5073L16.0946 12.1654ZM15.7357 12.3015L15.6682 12.7969L15.6682 12.7969L15.7357 12.3015ZM15.6134 11.5483L15.9897 11.8776L15.9939 11.8727L15.6134 11.5483ZM14.9865 6.61069L15.2652 6.1956L15.2652 6.19559L14.9865 6.61069ZM11.1636 7.04759L11.4469 7.45958L11.4887 7.43085L11.5238 7.39432L11.1636 7.04759ZM10.6474 7.09548L10.3594 7.50416L10.3594 7.50418L10.6474 7.09548ZM11.2357 5.98848L10.957 5.57334L10.9569 5.57342L11.2357 5.98848ZM4.6802 2.3717C5.35516 2.38239 5.97024 2.86222 6.15 3.48612L7.11091 3.20926C6.80928 2.16237 5.81033 1.38948 4.69604 1.37183L4.6802 2.3717ZM6.14854 3.48096C6.44401 4.54942 6.73383 5.6191 7.01862 6.69018L7.98504 6.43321C7.69944 5.3591 7.40876 4.28623 7.11237 3.21443L6.14854 3.48096ZM7.01734 6.68526C7.14551 7.18782 6.95424 7.75622 6.51782 8.07973L7.11333 8.88308C7.88036 8.31449 8.2135 7.32891 7.98632 6.43814L7.01734 6.68526ZM6.81557 8.4814C6.53145 8.06997 6.53139 8.07002 6.53133 8.07006C6.5313 8.07008 6.53124 8.07012 6.53119 8.07016C6.5311 8.07022 6.53099 8.07029 6.53088 8.07037C6.53066 8.07052 6.53041 8.07069 6.53013 8.07089C6.52957 8.07128 6.5289 8.07175 6.52811 8.0723C6.52652 8.0734 6.52448 8.07483 6.522 8.07658C6.51703 8.08008 6.51031 8.08486 6.50201 8.09085C6.48543 8.1028 6.46246 8.11965 6.4346 8.14079C6.3791 8.1829 6.30295 8.24301 6.21852 8.31639C6.05728 8.45653 5.83471 8.67157 5.68086 8.92131L6.53228 9.4458C6.60629 9.32566 6.73822 9.18962 6.87452 9.07115C6.93885 9.01524 6.99723 8.96916 7.03907 8.93741C7.05988 8.92163 7.07628 8.90962 7.0869 8.90196C7.0922 8.89814 7.09604 8.89542 7.09823 8.89387C7.09933 8.89309 7.10002 8.89261 7.10027 8.89244C7.10039 8.89235 7.10041 8.89234 7.10032 8.89241C7.10027 8.89244 7.10019 8.89249 7.10009 8.89256C7.10004 8.8926 7.09998 8.89264 7.09992 8.89268C7.09988 8.89271 7.09983 8.89274 7.09981 8.89276C7.09975 8.89279 7.0997 8.89284 6.81557 8.4814ZM5.68089 8.92126C5.1501 9.78269 5.33049 10.7261 5.74351 11.5447C6.15604 12.3624 6.84558 13.1561 7.52874 13.8319L8.232 13.1209C7.5731 12.4691 6.97535 11.7662 6.63631 11.0943C6.29774 10.4232 6.26226 9.88401 6.53225 9.44585L5.68089 8.92126ZM7.52873 13.8318C8.7273 15.0175 10.1579 15.9725 11.6922 16.7164L12.1284 15.8165C10.675 15.1119 9.33948 14.2165 8.23201 13.1209L7.52873 13.8318ZM11.6961 16.7183C12.2497 16.9807 12.8374 16.9292 13.3277 16.7149C13.8135 16.5025 14.2331 16.1199 14.4892 15.6592L13.6151 15.1734C13.4652 15.443 13.2118 15.6741 12.9272 15.7986C12.647 15.9211 12.3668 15.9295 12.1245 15.8146L11.6961 16.7183ZM14.4835 15.6692C14.5711 15.5197 14.785 15.4191 14.9798 15.4627L15.1984 14.4869C14.5834 14.3491 13.9304 14.6352 13.6208 15.1635L14.4835 15.6692ZM14.9691 15.4602C16.1193 15.7448 17.2646 16.0492 18.415 16.3545L18.6715 15.388C17.5229 15.0832 16.3692 14.7764 15.2092 14.4894L14.9691 15.4602ZM18.41 16.3532C19.0671 16.5349 19.534 17.1519 19.5443 17.8078L20.5442 17.7919C20.5268 16.6931 19.762 15.6896 18.6765 15.3893L18.41 16.3532ZM19.5443 17.8025C19.5467 18.2616 19.5595 18.6687 19.5092 19.0492C19.4602 19.4196 19.3568 19.7062 19.166 19.9244L19.9189 20.5826C20.2875 20.1609 20.4373 19.6581 20.5006 19.1804C20.5624 18.7129 20.5465 18.2131 20.5443 17.7972L19.5443 17.8025ZM19.1661 19.9243C18.9267 20.1981 18.5705 20.3908 18.1846 20.4391L18.3087 21.4314C18.9355 21.353 19.5162 21.043 19.9188 20.5827L19.1661 19.9243ZM18.1908 20.4384C17.8227 20.4798 17.6663 20.4814 17.3775 20.4917L17.413 21.491C17.6994 21.4809 17.8916 21.4784 18.3026 21.4321L18.1908 20.4384ZM17.3775 20.4917C11.2458 20.7095 5.31287 16.6218 2.81715 11.02L1.9037 11.4269C4.54764 17.3615 10.8319 21.7249 17.413 21.491L17.3775 20.4917ZM2.81715 11.02C1.83015 8.80468 1.38389 6.38004 1.52575 3.99083L0.527507 3.93156C0.375995 6.48328 0.852542 9.06762 1.9037 11.427L2.81715 11.02ZM1.52575 3.99083C1.57706 3.12672 2.17655 2.38755 3.06185 2.37168L3.04393 1.37184C1.50372 1.39945 0.601236 2.6898 0.527506 3.93156L1.52575 3.99083ZM3.05566 2.37176C3.59877 2.36874 4.14206 2.36893 4.68552 2.37176L4.69072 1.37177C4.14404 1.36893 3.59715 1.36874 3.05012 1.37177L3.05566 2.37176ZM3.19416 2.24038C2.6422 2.2436 2.20911 2.5261 1.92449 2.89939C1.64545 3.26537 1.49415 3.73232 1.47109 4.18613L2.4698 4.2369C2.48401 3.95737 2.57851 3.6909 2.71971 3.50571C2.85532 3.32785 3.01692 3.24143 3.2 3.24037L3.19416 2.24038ZM1.47108 4.18616C1.44696 4.66123 1.44649 5.13632 1.46784 5.60966L2.46682 5.56461C2.44686 5.12199 2.44735 4.67888 2.4698 4.23687L1.47108 4.18616ZM1.46784 5.60967C1.73999 11.6421 5.84333 17.5841 11.8314 19.7636L12.1734 18.8239C6.579 16.7877 2.72145 11.2087 2.46682 5.5646L1.46784 5.60967ZM11.8314 19.7636C13.7545 20.4635 15.8178 20.7577 17.915 20.5796L17.8304 19.5832C15.8823 19.7487 13.9643 19.4757 12.1734 18.8239L11.8314 19.7636ZM17.9149 20.5796C18.7953 20.5049 19.5253 19.7785 19.5613 18.8993L18.5621 18.8584C18.5478 19.2086 18.2346 19.5489 17.8304 19.5832L17.9149 20.5796ZM19.5615 18.8934C19.5682 18.6616 19.5962 18.3009 19.5952 18.0197C19.5942 17.7139 19.5648 17.3663 19.4258 17.0391L18.5054 17.4301C18.5674 17.576 18.5943 17.7669 18.5952 18.0231C18.5962 18.3039 18.5717 18.5289 18.5619 18.8643L19.5615 18.8934ZM19.4258 17.0392C19.23 16.5782 18.8218 16.1914 18.301 16.0468L18.0334 17.0103C18.2434 17.0686 18.4214 17.2325 18.5054 17.4301L19.4258 17.0392ZM18.296 16.0454C17.1756 15.7467 16.0485 15.4591 14.9314 15.1679L14.6791 16.1356C15.8033 16.4286 16.9212 16.7138 18.0384 17.0116L18.296 16.0454ZM14.9316 15.168C14.669 15.0994 14.4512 15.2043 14.3168 15.3333C14.2097 15.4362 14.1422 15.5647 14.1059 15.6361C14.0848 15.6775 14.0639 15.7215 14.0468 15.757C14.0285 15.7952 14.0126 15.8279 13.9964 15.8588C13.963 15.9229 13.9391 15.9578 13.9225 15.9766L14.6712 16.6395C14.767 16.5314 14.8349 16.4136 14.8828 16.3217C14.9074 16.2746 14.9297 16.2285 14.9482 16.1899C14.968 16.1488 14.9826 16.118 14.9971 16.0896C15.0319 16.0213 15.0354 16.0297 15.0094 16.0547C14.9906 16.0727 14.9483 16.1074 14.8808 16.129C14.8081 16.1522 14.7366 16.1506 14.6789 16.1355L14.9316 15.168ZM13.9226 15.9765C13.3887 16.5792 12.3558 16.7382 11.4442 16.2757L10.9917 17.1675C12.2136 17.7874 13.7699 17.6569 14.6711 16.6396L13.9226 15.9765ZM11.4442 16.2757C9.11269 15.0927 7.04738 13.4254 5.85474 11.2608L4.97888 11.7434C6.29973 14.1407 8.54953 15.9283 10.9917 17.1675L11.4442 16.2757ZM5.85474 11.2608C5.35673 10.3569 5.59377 9.11619 6.50027 8.46905L5.91924 7.65516C4.58732 8.60601 4.24352 10.4087 4.97888 11.7434L5.85474 11.2608ZM6.20975 8.06211C6.52117 8.45328 6.5213 8.45318 6.52144 8.45307C6.52149 8.45303 6.52163 8.45292 6.52173 8.45284C6.52193 8.45268 6.52214 8.45251 6.52236 8.45233C6.5228 8.45198 6.52329 8.45159 6.52382 8.45116C6.52489 8.4503 6.52613 8.4493 6.52755 8.44814C6.53039 8.44583 6.53393 8.44292 6.53811 8.43943C6.54647 8.43246 6.55744 8.42315 6.5706 8.4116C6.59686 8.38855 6.63219 8.3563 6.67307 8.3158C6.75394 8.23568 6.86114 8.11872 6.96329 7.97243C7.15831 7.69313 7.3908 7.22369 7.25185 6.67617L6.28257 6.92215C6.31657 7.0561 6.27033 7.21813 6.14338 7.39994C6.08455 7.4842 6.01995 7.5552 5.96928 7.6054C5.94438 7.63006 5.924 7.64857 5.91099 7.65999C5.90452 7.66567 5.89997 7.6695 5.89772 7.67139C5.89659 7.67232 5.89605 7.67276 5.89613 7.6727C5.89618 7.67266 5.89638 7.6725 5.89674 7.6722C5.89692 7.67206 5.89715 7.67188 5.89741 7.67167C5.89754 7.67156 5.89769 7.67145 5.89784 7.67132C5.89792 7.67126 5.89804 7.67116 5.89808 7.67113C5.89821 7.67103 5.89833 7.67093 6.20975 8.06211ZM7.25057 6.67122C6.97148 5.61681 6.69563 4.54965 6.3918 3.49016L5.43055 3.76581C5.73069 4.81247 6.00271 5.8649 6.28386 6.92709L7.25057 6.67122ZM6.39031 3.48503C6.19012 2.81406 5.5579 2.25283 4.77672 2.24044L4.76085 3.24031C5.06122 3.24508 5.34337 3.47371 5.43205 3.77093L6.39031 3.48503ZM4.77146 2.24038C4.24601 2.23757 3.7172 2.24037 3.19708 2.24037V3.24037C3.72477 3.24037 4.24378 3.23758 4.76611 3.24037L4.77146 2.24038ZM13.283 1.50005C16.0192 1.52555 18.6203 3.28613 19.7757 5.7728L20.6826 5.35143C19.3736 2.53416 16.435 0.529383 13.2923 0.500096L13.283 1.50005ZM19.7757 5.7728C21.0775 8.57443 20.619 12.0649 18.4466 14.3973L19.1783 15.0789C21.6401 12.4358 22.1483 8.50582 20.6826 5.35142L19.7757 5.7728ZM18.4465 14.3974C18.404 14.4431 18.4347 14.3796 18.5119 14.4417C18.5299 14.4563 18.5481 14.4774 18.5612 14.5051C18.5746 14.5335 18.5792 14.5614 18.5785 14.5834C18.5773 14.6279 18.5584 14.6094 18.6282 14.534L17.8941 13.8549C17.7122 14.0516 17.5864 14.2907 17.5789 14.5552C17.5712 14.828 17.6928 15.0661 17.8847 15.2206C18.2636 15.5257 18.8217 15.4619 19.1784 15.0788L18.4465 14.3974ZM18.6302 14.5318C21.0662 11.8669 21.3947 7.60421 19.3546 4.57927L18.5255 5.13841C20.3071 7.77996 20.0169 11.5327 17.8921 13.8571L18.6302 14.5318ZM19.3546 4.57925C17.7776 2.24121 14.7723 0.842725 11.9019 1.38652L12.088 2.36905C14.5373 1.90502 17.1554 3.10694 18.5255 5.13843L19.3546 4.57925ZM11.9018 1.38653C10.3886 1.6734 9.00513 2.45941 7.95432 3.5522L8.67513 4.24533C9.59144 3.29241 10.7916 2.61481 12.0881 2.36904L11.9018 1.38653ZM8.31472 3.89876C8.00159 3.50895 8.00169 3.50887 8.00179 3.5088C8.00182 3.50877 8.00192 3.50869 8.00199 3.50864C8.00212 3.50853 8.00224 3.50843 8.00237 3.50833C8.00262 3.50813 8.00286 3.50794 8.00309 3.50775C8.00356 3.50738 8.00399 3.50704 8.00439 3.50672C8.00519 3.50609 8.00587 3.50556 8.00642 3.50514C8.00751 3.50429 8.00814 3.50382 8.00832 3.50368C8.00866 3.50343 8.00744 3.50435 8.00496 3.50603C7.99947 3.50976 7.99139 3.51479 7.98285 3.51915C7.95107 3.53535 7.9742 3.51348 8.03786 3.52033L7.93095 4.5146C8.15562 4.53875 8.3439 4.45754 8.43703 4.41006C8.49094 4.38258 8.53525 4.35469 8.56654 4.33346C8.58245 4.32265 8.59572 4.31308 8.60594 4.30546C8.61107 4.30164 8.61549 4.29826 8.61915 4.29543C8.62098 4.29401 8.62262 4.29273 8.62407 4.29158C8.6248 4.29101 8.62548 4.29047 8.62611 4.28997C8.62642 4.28971 8.62672 4.28947 8.62702 4.28924C8.62716 4.28912 8.6273 4.28901 8.62744 4.2889C8.62751 4.28884 8.62762 4.28876 8.62765 4.28873C8.62775 4.28865 8.62785 4.28857 8.31472 3.89876ZM8.03766 3.52031C8.05814 3.5225 8.08793 3.5326 8.11546 3.55687C8.14228 3.58052 8.1574 3.6092 8.16343 3.63393C8.17747 3.69141 8.14109 3.68453 8.2027 3.62204L7.49059 2.91998C7.23413 3.18011 7.10857 3.52954 7.19197 3.87112C7.27594 4.21503 7.56066 4.47494 7.93116 4.51462L8.03766 3.52031ZM8.2004 3.62437C9.49907 2.32425 11.286 1.52966 13.1552 1.50039L13.1396 0.500516C10.9993 0.534026 8.96732 1.44159 7.4929 2.91765L8.2004 3.62437ZM13.1515 1.50044C13.1969 1.50007 13.2415 1.49989 13.2856 1.50007L13.2897 0.500079C13.2403 0.499878 13.1914 0.500081 13.1433 0.500472L13.1515 1.50044ZM13.0422 3.23911C15.1586 3.25793 17.1638 4.55799 18.0468 6.3688L18.9456 5.93052C17.8969 3.77972 15.5476 2.26135 13.0511 2.23915L13.0422 3.23911ZM18.0468 6.3688C19.0207 8.36613 18.6877 10.8663 17.1269 12.5463L17.8595 13.2269C19.7062 11.2392 20.0977 8.2933 18.9456 5.93052L18.0468 6.3688ZM17.1268 12.5463C17.0934 12.5823 17.0648 12.6112 17.0385 12.6346C17.012 12.6582 16.9938 12.6708 16.9833 12.6769C16.9733 12.6827 16.9768 12.6788 16.9922 12.6759C17.0103 12.6726 17.0307 12.6734 17.0476 12.678L16.7842 13.6427C17.064 13.7191 17.3083 13.6445 17.4853 13.5418C17.6496 13.4464 17.7778 13.3148 17.8595 13.2269L17.1268 12.5463ZM17.0478 12.6781C17.0442 12.6771 17.0613 12.681 17.0842 12.7036C17.1089 12.7279 17.1293 12.7636 17.1366 12.8041C17.1518 12.8875 17.1015 12.8836 17.1891 12.7922L16.4673 12.1001C16.2464 12.3305 16.091 12.6429 16.1527 12.9827C16.2172 13.338 16.4896 13.5621 16.784 13.6427L17.0478 12.6781ZM17.1913 12.7899C19.0655 10.8104 19.3035 7.66372 17.727 5.43635L16.9107 6.01406C18.2093 7.84876 18.0143 10.4661 16.4651 12.1024L17.1913 12.7899ZM17.727 5.43635C15.8951 2.84801 11.5422 2.09274 8.93425 4.6773L9.63816 5.38759C11.7685 3.2764 15.4035 3.88444 16.9107 6.01405L17.727 5.43635ZM9.28621 5.03245C8.97279 4.64287 8.97288 4.6428 8.97297 4.64272C8.973 4.6427 8.97309 4.64263 8.97315 4.64258C8.97327 4.64248 8.97338 4.64239 8.9735 4.6423C8.97373 4.64212 8.97395 4.64194 8.97417 4.64177C8.9746 4.64142 8.975 4.64111 8.97537 4.64081C8.97611 4.64022 8.97674 4.63973 8.97727 4.63932C8.97831 4.6385 8.97894 4.63803 8.97918 4.63785C8.97964 4.6375 8.97871 4.63821 8.97664 4.63964C8.97208 4.6428 8.96485 4.64746 8.95673 4.65185C8.92906 4.66679 8.94086 4.6528 8.98706 4.65232L8.99731 5.65227C9.19043 5.65029 9.34924 5.57638 9.43186 5.53176C9.47888 5.50638 9.5176 5.48136 9.54521 5.46228C9.55923 5.45259 9.57094 5.44405 9.58001 5.43722C9.58457 5.4338 9.5885 5.43078 9.59177 5.42823C9.59341 5.42696 9.59488 5.4258 9.59619 5.42476C9.59685 5.42424 9.59746 5.42375 9.59803 5.4233C9.59832 5.42307 9.59859 5.42285 9.59886 5.42264C9.59899 5.42253 9.59912 5.42243 9.59925 5.42232C9.59931 5.42227 9.59941 5.4222 9.59944 5.42217C9.59953 5.4221 9.59962 5.42202 9.28621 5.03245ZM8.9879 4.65231C8.99932 4.65222 9.02473 4.65599 9.05297 4.67594C9.08112 4.69582 9.10285 4.72561 9.11301 4.75893C9.12338 4.79291 9.11744 4.81541 9.11659 4.81793C9.11613 4.81927 9.12462 4.79341 9.17147 4.74956L8.48823 4.01938C8.1961 4.29272 8.04159 4.67398 8.15654 5.05074C8.27045 5.42409 8.61471 5.65555 8.99648 5.65228L8.9879 4.65231ZM9.17155 4.74949C10.1625 3.82186 11.5392 3.25191 12.9776 3.23911L12.9687 2.23915C11.2781 2.2542 9.66105 2.9215 8.48815 4.01945L9.17155 4.74949ZM12.9732 3.23913C12.9732 3.23913 12.9733 3.23913 12.9733 3.23913C12.9734 3.23913 12.9734 3.23913 12.9735 3.23913C12.9735 3.23913 12.9735 3.23913 12.9736 3.23913C12.9736 3.23913 12.9737 3.23913 12.9737 3.23913C12.9738 3.23913 12.9738 3.23913 12.9739 3.23913C12.9739 3.23913 12.974 3.23913 12.974 3.23913C12.9741 3.23913 12.9741 3.23913 12.9742 3.23913C12.9742 3.23913 12.9743 3.23913 12.9743 3.23913C12.9744 3.23913 12.9744 3.23913 12.9745 3.23913C12.9745 3.23913 12.9746 3.23913 12.9746 3.23913C12.9746 3.23913 12.9747 3.23913 12.9747 3.23913C12.9748 3.23913 12.9748 3.23913 12.9749 3.23913C12.9749 3.23913 12.975 3.23913 12.975 3.23913C12.9751 3.23913 12.9751 3.23913 12.9752 3.23913C12.9752 3.23913 12.9753 3.23913 12.9753 3.23913C12.9754 3.23913 12.9754 3.23913 12.9755 3.23913C12.9755 3.23913 12.9756 3.23913 12.9756 3.23913C12.9757 3.23913 12.9757 3.23913 12.9757 3.23913C12.9758 3.23913 12.9758 3.23913 12.9759 3.23913C12.9759 3.23913 12.976 3.23913 12.976 3.23913C12.9761 3.23913 12.9761 3.23913 12.9762 3.23913C12.9762 3.23913 12.9763 3.23913 12.9763 3.23913C12.9764 3.23913 12.9764 3.23913 12.9765 3.23913C12.9765 3.23913 12.9766 3.23913 12.9766 3.23913C12.9767 3.23913 12.9767 3.23913 12.9768 3.23913C12.9768 3.23913 12.9768 3.23913 12.9769 3.23913C12.9769 3.23913 12.977 3.23913 12.977 3.23913C12.9771 3.23913 12.9771 3.23913 12.9772 3.23913C12.9772 3.23913 12.9773 3.23913 12.9773 3.23913C12.9774 3.23913 12.9774 3.23913 12.9775 3.23913C12.9775 3.23913 12.9776 3.23913 12.9776 3.23913C12.9777 3.23913 12.9777 3.23913 12.9778 3.23913C12.9778 3.23913 12.9779 3.23913 12.9779 3.23913C12.9779 3.23913 12.978 3.23913 12.978 3.23913C12.9781 3.23913 12.9781 3.23913 12.9782 3.23913C12.9782 3.23913 12.9783 3.23913 12.9783 3.23913C12.9784 3.23913 12.9784 3.23913 12.9785 3.23913C12.9785 3.23913 12.9786 3.23913 12.9786 3.23913C12.9787 3.23913 12.9787 3.23913 12.9788 3.23913C12.9788 3.23913 12.9789 3.23913 12.9789 3.23913C12.979 3.23913 12.979 3.23913 12.979 3.23913C12.9791 3.23913 12.9791 3.23913 12.9792 3.23913C12.9792 3.23913 12.9793 3.23913 12.9793 3.23913C12.9794 3.23913 12.9794 3.23913 12.9795 3.23913C12.9795 3.23913 12.9796 3.23913 12.9796 3.23913C12.9797 3.23913 12.9797 3.23913 12.9798 3.23913C12.9798 3.23913 12.9799 3.23913 12.9799 3.23913C12.98 3.23913 12.98 3.23913 12.9801 3.23913C12.9801 3.23913 12.9801 3.23913 12.9802 3.23913C12.9802 3.23913 12.9803 3.23913 12.9803 3.23913C12.9804 3.23913 12.9804 3.23913 12.9805 3.23913C12.9805 3.23913 12.9806 3.23913 12.9806 3.23913C12.9807 3.23913 12.9807 3.23913 12.9808 3.23913C12.9808 3.23913 12.9809 3.23913 12.9809 3.23913C12.981 3.23913 12.981 3.23913 12.9811 3.23913C12.9811 3.23913 12.9812 3.23913 12.9812 3.23913C12.9812 3.23913 12.9813 3.23913 12.9813 3.23913C12.9814 3.23913 12.9814 3.23913 12.9815 3.23913C12.9815 3.23913 12.9816 3.23913 12.9816 3.23913C12.9817 3.23913 12.9817 3.23913 12.9818 3.23913C12.9818 3.23913 12.9819 3.23913 12.9819 3.23913C12.982 3.23913 12.982 3.23913 12.9821 3.23913C12.9821 3.23913 12.9822 3.23913 12.9822 3.23913C12.9823 3.23913 12.9823 3.23913 12.9823 3.23913C12.9824 3.23913 12.9824 3.23913 12.9825 3.23913C12.9825 3.23913 12.9826 3.23913 12.9826 3.23913C12.9827 3.23913 12.9827 3.23913 12.9828 3.23913C12.9828 3.23913 12.9829 3.23913 12.9829 3.23913C12.983 3.23913 12.983 3.23913 12.9831 3.23913C12.9831 3.23913 12.9832 3.23913 12.9832 3.23913C12.9833 3.23913 12.9833 3.23913 12.9834 3.23913C12.9834 3.23913 12.9834 3.23913 12.9835 3.23913C12.9835 3.23913 12.9836 3.23913 12.9836 3.23913C12.9837 3.23913 12.9837 3.23913 12.9838 3.23913C12.9838 3.23913 12.9839 3.23913 12.9839 3.23913C12.984 3.23913 12.984 3.23913 12.9841 3.23913C12.9841 3.23913 12.9842 3.23913 12.9842 3.23913C12.9843 3.23913 12.9843 3.23913 12.9844 3.23913C12.9844 3.23913 12.9845 3.23913 12.9845 3.23913C12.9845 3.23913 12.9846 3.23913 12.9846 3.23913C12.9847 3.23913 12.9847 3.23913 12.9848 3.23913C12.9848 3.23913 12.9849 3.23913 12.9849 3.23913C12.985 3.23913 12.985 3.23913 12.9851 3.23913C12.9851 3.23913 12.9852 3.23913 12.9852 3.23913C12.9853 3.23913 12.9853 3.23913 12.9854 3.23913C12.9854 3.23913 12.9855 3.23913 12.9855 3.23913C12.9856 3.23913 12.9856 3.23913 12.9856 3.23913C12.9857 3.23913 12.9857 3.23913 12.9858 3.23913C12.9858 3.23913 12.9859 3.23913 12.9859 3.23913C12.986 3.23913 12.986 3.23913 12.9861 3.23913C12.9861 3.23913 12.9862 3.23913 12.9862 3.23913C12.9863 3.23913 12.9863 3.23913 12.9864 3.23913C12.9864 3.23913 12.9865 3.23913 12.9865 3.23913C12.9866 3.23913 12.9866 3.23913 12.9867 3.23913C12.9867 3.23913 12.9867 3.23913 12.9868 3.23913C12.9868 3.23913 12.9869 3.23913 12.9869 3.23913C12.987 3.23913 12.987 3.23913 12.9871 3.23913C12.9871 3.23913 12.9872 3.23913 12.9872 3.23913C12.9873 3.23913 12.9873 3.23913 12.9874 3.23913C12.9874 3.23913 12.9875 3.23913 12.9875 3.23913C12.9876 3.23913 12.9876 3.23913 12.9877 3.23913C12.9877 3.23913 12.9878 3.23913 12.9878 3.23913C12.9878 3.23913 12.9879 3.23913 12.9879 3.23913C12.988 3.23913 12.988 3.23913 12.9881 3.23913C12.9881 3.23913 12.9882 3.23913 12.9882 3.23913C12.9883 3.23913 12.9883 3.23913 12.9884 3.23913C12.9884 3.23913 12.9885 3.23913 12.9885 3.23913C12.9886 3.23913 12.9886 3.23913 12.9887 3.23913C12.9887 3.23913 12.9888 3.23913 12.9888 3.23913C12.9889 3.23913 12.9889 3.23913 12.9889 3.23913C12.989 3.23913 12.989 3.23913 12.9891 3.23913C12.9891 3.23913 12.9892 3.23913 12.9892 3.23913C12.9893 3.23913 12.9893 3.23913 12.9894 3.23913C12.9894 3.23913 12.9895 3.23913 12.9895 3.23913C12.9896 3.23913 12.9896 3.23913 12.9897 3.23913C12.9897 3.23913 12.9898 3.23913 12.9898 3.23913C12.9899 3.23913 12.9899 3.23913 12.99 3.23913C12.99 3.23913 12.99 3.23913 12.9901 3.23913C12.9901 3.23913 12.9902 3.23913 12.9902 3.23913C12.9903 3.23913 12.9903 3.23913 12.9904 3.23913C12.9904 3.23913 12.9905 3.23913 12.9905 3.23913C12.9906 3.23913 12.9906 3.23913 12.9907 3.23913C12.9907 3.23913 12.9908 3.23913 12.9908 3.23913C12.9909 3.23913 12.9909 3.23913 12.991 3.23913C12.991 3.23913 12.9911 3.23913 12.9911 3.23913C12.9911 3.23913 12.9912 3.23913 12.9912 3.23913C12.9913 3.23913 12.9913 3.23913 12.9914 3.23913C12.9914 3.23913 12.9915 3.23913 12.9915 3.23913C12.9916 3.23913 12.9916 3.23913 12.9917 3.23913C12.9917 3.23913 12.9918 3.23913 12.9918 3.23913C12.9919 3.23913 12.9919 3.23913 12.992 3.23913C12.992 3.23913 12.9921 3.23913 12.9921 3.23913C12.9922 3.23913 12.9922 3.23913 12.9922 3.23913C12.9923 3.23913 12.9923 3.23913 12.9924 3.23913C12.9924 3.23913 12.9925 3.23913 12.9925 3.23913C12.9926 3.23913 12.9926 3.23913 12.9927 3.23913C12.9927 3.23913 12.9928 3.23913 12.9928 3.23913C12.9929 3.23913 12.9929 3.23913 12.993 3.23913C12.993 3.23913 12.9931 3.23913 12.9931 3.23913C12.9932 3.23913 12.9932 3.23913 12.9933 3.23913C12.9933 3.23913 12.9933 3.23913 12.9934 3.23913C12.9934 3.23913 12.9935 3.23913 12.9935 3.23913C12.9936 3.23913 12.9936 3.23913 12.9937 3.23913C12.9937 3.23913 12.9938 3.23913 12.9938 3.23913C12.9939 3.23913 12.9939 3.23913 12.994 3.23913C12.994 3.23913 12.9941 3.23913 12.9941 3.23913C12.9942 3.23913 12.9942 3.23913 12.9943 3.23913C12.9943 3.23913 12.9944 3.23913 12.9944 3.23913C12.9944 3.23913 12.9945 3.23913 12.9945 3.23913C12.9946 3.23913 12.9946 3.23913 12.9947 3.23913C12.9947 3.23913 12.9948 3.23913 12.9948 3.23913C12.9949 3.23913 12.9949 3.23913 12.995 3.23913C12.995 3.23913 12.9951 3.23913 12.9951 3.23913C12.9952 3.23913 12.9952 3.23913 12.9953 3.23913C12.9953 3.23913 12.9954 3.23913 12.9954 3.23913C12.9955 3.23913 12.9955 3.23913 12.9955 3.23913C12.9956 3.23913 12.9956 3.23913 12.9957 3.23913C12.9957 3.23913 12.9958 3.23913 12.9958 3.23913C12.9959 3.23913 12.9959 3.23913 12.996 3.23913C12.996 3.23913 12.9961 3.23913 12.9961 3.23913C12.9962 3.23913 12.9962 3.23913 12.9963 3.23913C12.9963 3.23913 12.9964 3.23913 12.9964 3.23913C12.9965 3.23913 12.9965 3.23913 12.9966 3.23913C12.9966 3.23913 12.9966 3.23913 12.9967 3.23913C12.9967 3.23913 12.9968 3.23913 12.9968 3.23913C12.9969 3.23913 12.9969 3.23913 12.997 3.23913C12.997 3.23913 12.9971 3.23913 12.9971 3.23913C12.9972 3.23913 12.9972 3.23913 12.9973 3.23913C12.9973 3.23913 12.9974 3.23913 12.9974 3.23913C12.9975 3.23913 12.9975 3.23913 12.9976 3.23913C12.9976 3.23913 12.9977 3.23913 12.9977 3.23913C12.9978 3.23913 12.9978 3.23913 12.9978 3.23913C12.9979 3.23913 12.9979 3.23913 12.998 3.23913C12.998 3.23913 12.9981 3.23913 12.9981 3.23913C12.9982 3.23913 12.9982 3.23913 12.9983 3.23913C12.9983 3.23913 12.9984 3.23913 12.9984 3.23913C12.9985 3.23913 12.9985 3.23913 12.9986 3.23913C12.9986 3.23913 12.9987 3.23913 12.9987 3.23913C12.9988 3.23913 12.9988 3.23913 12.9988 3.23913C12.9989 3.23913 12.9989 3.23913 12.999 3.23913C12.999 3.23913 12.9991 3.23913 12.9991 3.23913C12.9992 3.23913 12.9992 3.23913 12.9993 3.23913C12.9993 3.23913 12.9994 3.23913 12.9994 3.23913C12.9995 3.23913 12.9995 3.23913 12.9996 3.23913C12.9996 3.23913 12.9997 3.23913 12.9997 3.23913C12.9998 3.23913 12.9998 3.23913 12.9999 3.23913C12.9999 3.23913 13 3.23913 13 3.23913C13 3.23913 13.0001 3.23913 13.0001 3.23913C13.0002 3.23913 13.0002 3.23913 13.0003 3.23913C13.0003 3.23913 13.0004 3.23913 13.0004 3.23913C13.0005 3.23913 13.0005 3.23913 13.0006 3.23913C13.0006 3.23913 13.0007 3.23913 13.0007 3.23913C13.0008 3.23913 13.0008 3.23913 13.0009 3.23913C13.0009 3.23913 13.001 3.23913 13.001 3.23913C13.0011 3.23913 13.0011 3.23913 13.0011 3.23913C13.0012 3.23913 13.0012 3.23913 13.0013 3.23913C13.0013 3.23913 13.0014 3.23913 13.0014 3.23913C13.0015 3.23913 13.0015 3.23913 13.0016 3.23913C13.0016 3.23913 13.0017 3.23913 13.0017 3.23913C13.0018 3.23913 13.0018 3.23913 13.0019 3.23913C13.0019 3.23913 13.002 3.23913 13.002 3.23913C13.0021 3.23913 13.0021 3.23913 13.0022 3.23913C13.0022 3.23913 13.0022 3.23913 13.0023 3.23913C13.0023 3.23913 13.0024 3.23913 13.0024 3.23913C13.0025 3.23913 13.0025 3.23913 13.0026 3.23913C13.0026 3.23913 13.0027 3.23913 13.0027 3.23913C13.0028 3.23913 13.0028 3.23913 13.0029 3.23913C13.0029 3.23913 13.003 3.23913 13.003 3.23913C13.0031 3.23913 13.0031 3.23913 13.0032 3.23913C13.0032 3.23913 13.0033 3.23913 13.0033 3.23913C13.0033 3.23913 13.0034 3.23913 13.0034 3.23913C13.0035 3.23913 13.0035 3.23913 13.0036 3.23913C13.0036 3.23913 13.0037 3.23913 13.0037 3.23913C13.0038 3.23913 13.0038 3.23913 13.0039 3.23913C13.0039 3.23913 13.004 3.23913 13.004 3.23913C13.0041 3.23913 13.0041 3.23913 13.0042 3.23913C13.0042 3.23913 13.0043 3.23913 13.0043 3.23913C13.0044 3.23913 13.0044 3.23913 13.0044 3.23913C13.0045 3.23913 13.0045 3.23913 13.0046 3.23913C13.0046 3.23913 13.0047 3.23913 13.0047 3.23913C13.0048 3.23913 13.0048 3.23913 13.0049 3.23913C13.0049 3.23913 13.005 3.23913 13.005 3.23913C13.0051 3.23913 13.0051 3.23913 13.0052 3.23913C13.0052 3.23913 13.0053 3.23913 13.0053 3.23913C13.0054 3.23913 13.0054 3.23913 13.0055 3.23913C13.0055 3.23913 13.0055 3.23913 13.0056 3.23913C13.0056 3.23913 13.0057 3.23913 13.0057 3.23913C13.0058 3.23913 13.0058 3.23913 13.0059 3.23913C13.0059 3.23913 13.006 3.23913 13.006 3.23913C13.0061 3.23913 13.0061 3.23913 13.0062 3.23913C13.0062 3.23913 13.0063 3.23913 13.0063 3.23913C13.0064 3.23913 13.0064 3.23913 13.0065 3.23913C13.0065 3.23913 13.0066 3.23913 13.0066 3.23913C13.0066 3.23913 13.0067 3.23913 13.0067 3.23913C13.0068 3.23913 13.0068 3.23913 13.0069 3.23913C13.0069 3.23913 13.007 3.23913 13.007 3.23913C13.0071 3.23913 13.0071 3.23913 13.0072 3.23913C13.0072 3.23913 13.0073 3.23913 13.0073 3.23913C13.0074 3.23913 13.0074 3.23913 13.0075 3.23913C13.0075 3.23913 13.0076 3.23913 13.0076 3.23913C13.0077 3.23913 13.0077 3.23913 13.0077 3.23913C13.0078 3.23913 13.0078 3.23913 13.0079 3.23913C13.0079 3.23913 13.008 3.23913 13.008 3.23913C13.0081 3.23913 13.0081 3.23913 13.0082 3.23913C13.0082 3.23913 13.0083 3.23913 13.0083 3.23913C13.0084 3.23913 13.0084 3.23913 13.0085 3.23913C13.0085 3.23913 13.0086 3.23913 13.0086 3.23913C13.0087 3.23913 13.0087 3.23913 13.0088 3.23913C13.0088 3.23913 13.0088 3.23913 13.0089 3.23913C13.0089 3.23913 13.009 3.23913 13.009 3.23913C13.0091 3.23913 13.0091 3.23913 13.0092 3.23913C13.0092 3.23913 13.0093 3.23913 13.0093 3.23913C13.0094 3.23913 13.0094 3.23913 13.0095 3.23913C13.0095 3.23913 13.0096 3.23913 13.0096 3.23913C13.0097 3.23913 13.0097 3.23913 13.0098 3.23913C13.0098 3.23913 13.0099 3.23913 13.0099 3.23913C13.0099 3.23913 13.01 3.23913 13.01 3.23913C13.0101 3.23913 13.0101 3.23913 13.0102 3.23913C13.0102 3.23913 13.0103 3.23913 13.0103 3.23913C13.0104 3.23913 13.0104 3.23913 13.0105 3.23913C13.0105 3.23913 13.0106 3.23913 13.0106 3.23913C13.0107 3.23913 13.0107 3.23913 13.0108 3.23913C13.0108 3.23913 13.0109 3.23913 13.0109 3.23913C13.011 3.23913 13.011 3.23913 13.011 3.23913C13.0111 3.23913 13.0111 3.23913 13.0112 3.23913C13.0112 3.23913 13.0113 3.23913 13.0113 3.23913C13.0114 3.23913 13.0114 3.23913 13.0115 3.23913C13.0115 3.23913 13.0116 3.23913 13.0116 3.23913C13.0117 3.23913 13.0117 3.23913 13.0118 3.23913C13.0118 3.23913 13.0119 3.23913 13.0119 3.23913C13.012 3.23913 13.012 3.23913 13.0121 3.23913C13.0121 3.23913 13.0121 3.23913 13.0122 3.23913C13.0122 3.23913 13.0123 3.23913 13.0123 3.23913C13.0124 3.23913 13.0124 3.23913 13.0125 3.23913C13.0125 3.23913 13.0126 3.23913 13.0126 3.23913C13.0127 3.23913 13.0127 3.23913 13.0128 3.23913C13.0128 3.23913 13.0129 3.23913 13.0129 3.23913C13.013 3.23913 13.013 3.23913 13.0131 3.23913C13.0131 3.23913 13.0132 3.23913 13.0132 3.23913C13.0132 3.23913 13.0133 3.23913 13.0133 3.23913C13.0134 3.23913 13.0134 3.23913 13.0135 3.23913C13.0135 3.23913 13.0136 3.23913 13.0136 3.23913C13.0137 3.23913 13.0137 3.23913 13.0138 3.23913C13.0138 3.23913 13.0139 3.23913 13.0139 3.23913C13.014 3.23913 13.014 3.23913 13.0141 3.23913C13.0141 3.23913 13.0142 3.23913 13.0142 3.23913C13.0143 3.23913 13.0143 3.23913 13.0143 3.23913C13.0144 3.23913 13.0144 3.23913 13.0145 3.23913C13.0145 3.23913 13.0146 3.23913 13.0146 3.23913C13.0147 3.23913 13.0147 3.23913 13.0148 3.23913C13.0148 3.23913 13.0149 3.23913 13.0149 3.23913C13.015 3.23913 13.015 3.23913 13.0151 3.23913C13.0151 3.23913 13.0152 3.23913 13.0152 3.23913C13.0153 3.23913 13.0153 3.23913 13.0154 3.23913C13.0154 3.23913 13.0154 3.23913 13.0155 3.23913C13.0155 3.23913 13.0156 3.23913 13.0156 3.23913C13.0157 3.23913 13.0157 3.23913 13.0158 3.23913C13.0158 3.23913 13.0159 3.23913 13.0159 3.23913C13.016 3.23913 13.016 3.23913 13.0161 3.23913C13.0161 3.23913 13.0162 3.23913 13.0162 3.23913C13.0163 3.23913 13.0163 3.23913 13.0164 3.23913C13.0164 3.23913 13.0165 3.23913 13.0165 3.23913C13.0166 3.23913 13.0166 3.23913 13.0166 3.23913C13.0167 3.23913 13.0167 3.23913 13.0168 3.23913C13.0168 3.23913 13.0169 3.23913 13.0169 3.23913C13.017 3.23913 13.017 3.23913 13.0171 3.23913C13.0171 3.23913 13.0172 3.23913 13.0172 3.23913C13.0173 3.23913 13.0173 3.23913 13.0174 3.23913C13.0174 3.23913 13.0175 3.23913 13.0175 3.23913C13.0176 3.23913 13.0176 3.23913 13.0177 3.23913C13.0177 3.23913 13.0177 3.23913 13.0178 3.23913C13.0178 3.23913 13.0179 3.23913 13.0179 3.23913C13.018 3.23913 13.018 3.23913 13.0181 3.23913C13.0181 3.23913 13.0182 3.23913 13.0182 3.23913C13.0183 3.23913 13.0183 3.23913 13.0184 3.23913C13.0184 3.23913 13.0185 3.23913 13.0185 3.23913C13.0186 3.23913 13.0186 3.23913 13.0187 3.23913C13.0187 3.23913 13.0188 3.23913 13.0188 3.23913C13.0188 3.23913 13.0189 3.23913 13.0189 3.23913C13.019 3.23913 13.019 3.23913 13.0191 3.23913C13.0191 3.23913 13.0192 3.23913 13.0192 3.23913C13.0193 3.23913 13.0193 3.23913 13.0194 3.23913C13.0194 3.23913 13.0195 3.23913 13.0195 3.23913C13.0196 3.23913 13.0196 3.23913 13.0197 3.23913C13.0197 3.23913 13.0198 3.23913 13.0198 3.23913C13.0199 3.23913 13.0199 3.23913 13.0199 3.23913C13.02 3.23913 13.02 3.23913 13.0201 3.23913C13.0201 3.23913 13.0202 3.23913 13.0202 3.23913C13.0203 3.23913 13.0203 3.23913 13.0204 3.23913C13.0204 3.23913 13.0205 3.23913 13.0205 3.23913C13.0206 3.23913 13.0206 3.23913 13.0207 3.23913C13.0207 3.23913 13.0208 3.23913 13.0208 3.23913C13.0209 3.23913 13.0209 3.23913 13.021 3.23913C13.021 3.23913 13.021 3.23913 13.0211 3.23913C13.0211 3.23913 13.0212 3.23913 13.0212 3.23913C13.0213 3.23913 13.0213 3.23913 13.0214 3.23913C13.0214 3.23913 13.0215 3.23913 13.0215 3.23913C13.0216 3.23913 13.0216 3.23913 13.0217 3.23913C13.0217 3.23913 13.0218 3.23913 13.0218 3.23913C13.0219 3.23913 13.0219 3.23913 13.022 3.23913C13.022 3.23913 13.0221 3.23913 13.0221 3.23913C13.0221 3.23913 13.0222 3.23913 13.0222 3.23913C13.0223 3.23913 13.0223 3.23913 13.0224 3.23913C13.0224 3.23913 13.0225 3.23913 13.0225 3.23913C13.0226 3.23913 13.0226 3.23913 13.0227 3.23913C13.0227 3.23913 13.0228 3.23913 13.0228 3.23913C13.0229 3.23913 13.0229 3.23913 13.023 3.23913C13.023 3.23913 13.0231 3.23913 13.0231 3.23913C13.0232 3.23913 13.0232 3.23913 13.0232 3.23913C13.0233 3.23913 13.0233 3.23913 13.0234 3.23913C13.0234 3.23913 13.0235 3.23913 13.0235 3.23913C13.0236 3.23913 13.0236 3.23913 13.0237 3.23913C13.0237 3.23913 13.0238 3.23913 13.0238 3.23913C13.0239 3.23913 13.0239 3.23913 13.024 3.23913C13.024 3.23913 13.0241 3.23913 13.0241 3.23913C13.0242 3.23913 13.0242 3.23913 13.0243 3.23913C13.0243 3.23913 13.0243 3.23913 13.0244 3.23913C13.0244 3.23913 13.0245 3.23913 13.0245 3.23913C13.0246 3.23913 13.0246 3.23913 13.0247 3.23913C13.0247 3.23913 13.0248 3.23913 13.0248 3.23913C13.0249 3.23913 13.0249 3.23913 13.025 3.23913C13.025 3.23913 13.0251 3.23913 13.0251 3.23913C13.0252 3.23913 13.0252 3.23913 13.0253 3.23913C13.0253 3.23913 13.0254 3.23913 13.0254 3.23913C13.0254 3.23913 13.0255 3.23913 13.0255 3.23913C13.0256 3.23913 13.0256 3.23913 13.0257 3.23913C13.0257 3.23913 13.0258 3.23913 13.0258 3.23913C13.0259 3.23913 13.0259 3.23913 13.026 3.23913C13.026 3.23913 13.0261 3.23913 13.0261 3.23913C13.0262 3.23913 13.0262 3.23913 13.0263 3.23913C13.0263 3.23913 13.0264 3.23913 13.0264 3.23913C13.0265 3.23913 13.0265 3.23913 13.0265 3.23913C13.0266 3.23913 13.0266 3.23913 13.0267 3.23913C13.0267 3.23913 13.0268 3.23913 13.0268 3.23913C13.0269 3.23913 13.0269 3.23913 13.027 3.23913C13.027 3.23913 13.0271 3.23913 13.0271 3.23913C13.0272 3.23913 13.0272 3.23913 13.0273 3.23913C13.0273 3.23913 13.0274 3.23913 13.0274 3.23913C13.0275 3.23913 13.0275 3.23913 13.0276 3.23913C13.0276 3.23913 13.0276 3.23913 13.0277 3.23913C13.0277 3.23913 13.0278 3.23913 13.0278 3.23913C13.0279 3.23913 13.0279 3.23913 13.028 3.23913C13.028 3.23913 13.0281 3.23913 13.0281 3.23913C13.0282 3.23913 13.0282 3.23913 13.0283 3.23913C13.0283 3.23913 13.0284 3.23913 13.0284 3.23913C13.0285 3.23913 13.0285 3.23913 13.0286 3.23913C13.0286 3.23913 13.0287 3.23913 13.0287 3.23913C13.0287 3.23913 13.0288 3.23913 13.0288 3.23913C13.0289 3.23913 13.0289 3.23913 13.029 3.23913C13.029 3.23913 13.0291 3.23913 13.0291 3.23913C13.0292 3.23913 13.0292 3.23913 13.0293 3.23913C13.0293 3.23913 13.0294 3.23913 13.0294 3.23913C13.0295 3.23913 13.0295 3.23913 13.0296 3.23913C13.0296 3.23913 13.0297 3.23913 13.0297 3.23913C13.0298 3.23913 13.0298 3.23913 13.0298 3.23913C13.0299 3.23913 13.0299 3.23913 13.03 3.23913C13.03 3.23913 13.0301 3.23913 13.0301 3.23913C13.0302 3.23913 13.0302 3.23913 13.0303 3.23913C13.0303 3.23913 13.0304 3.23913 13.0304 3.23913C13.0305 3.23913 13.0305 3.23913 13.0306 3.23913C13.0306 3.23913 13.0307 3.23913 13.0307 3.23913C13.0308 3.23913 13.0308 3.23913 13.0309 3.23913C13.0309 3.23913 13.0309 3.23913 13.031 3.23913C13.031 3.23913 13.0311 3.23913 13.0311 3.23913C13.0312 3.23913 13.0312 3.23913 13.0313 3.23913C13.0313 3.23913 13.0314 3.23913 13.0314 3.23913C13.0315 3.23913 13.0315 3.23913 13.0316 3.23913C13.0316 3.23913 13.0317 3.23913 13.0317 3.23913C13.0318 3.23913 13.0318 3.23913 13.0319 3.23913C13.0319 3.23913 13.032 3.23913 13.032 3.23913C13.032 3.23913 13.0321 3.23913 13.0321 3.23913C13.0322 3.23913 13.0322 3.23913 13.0323 3.23913C13.0323 3.23913 13.0324 3.23913 13.0324 3.23913C13.0325 3.23913 13.0325 3.23913 13.0326 3.23913C13.0326 3.23913 13.0327 3.23913 13.0327 3.23913C13.0328 3.23913 13.0328 3.23913 13.0329 3.23913C13.0329 3.23913 13.033 3.23913 13.033 3.23913C13.0331 3.23913 13.0331 3.23913 13.0331 3.23913C13.0332 3.23913 13.0332 3.23913 13.0333 3.23913C13.0333 3.23913 13.0334 3.23913 13.0334 3.23913C13.0335 3.23913 13.0335 3.23913 13.0336 3.23913C13.0336 3.23913 13.0337 3.23913 13.0337 3.23913C13.0338 3.23913 13.0338 3.23913 13.0339 3.23913C13.0339 3.23913 13.034 3.23913 13.034 3.23913C13.0341 3.23913 13.0341 3.23913 13.0342 3.23913C13.0342 3.23913 13.0342 3.23913 13.0343 3.23913C13.0343 3.23913 13.0344 3.23913 13.0344 3.23913C13.0345 3.23913 13.0345 3.23913 13.0346 3.23913C13.0346 3.23913 13.0347 3.23913 13.0347 3.23913C13.0348 3.23913 13.0348 3.23913 13.0349 3.23913C13.0349 3.23913 13.035 3.23913 13.035 3.23913C13.0351 3.23913 13.0351 3.23913 13.0352 3.23913C13.0352 3.23913 13.0353 3.23913 13.0353 3.23913C13.0353 3.23913 13.0354 3.23913 13.0354 3.23913C13.0355 3.23913 13.0355 3.23913 13.0356 3.23913C13.0356 3.23913 13.0357 3.23913 13.0357 3.23913C13.0358 3.23913 13.0358 3.23913 13.0359 3.23913C13.0359 3.23913 13.036 3.23913 13.036 3.23913C13.0361 3.23913 13.0361 3.23913 13.0362 3.23913C13.0362 3.23913 13.0363 3.23913 13.0363 3.23913C13.0364 3.23913 13.0364 3.23913 13.0364 3.23913C13.0365 3.23913 13.0365 3.23913 13.0366 3.23913C13.0366 3.23913 13.0367 3.23913 13.0367 3.23913C13.0368 3.23913 13.0368 3.23913 13.0369 3.23913C13.0369 3.23913 13.037 3.23913 13.037 3.23913C13.0371 3.23913 13.0371 3.23913 13.0372 3.23913C13.0372 3.23913 13.0373 3.23913 13.0373 3.23913C13.0374 3.23913 13.0374 3.23913 13.0375 3.23913C13.0375 3.23913 13.0375 3.23913 13.0376 3.23913C13.0376 3.23913 13.0377 3.23913 13.0377 3.23913C13.0378 3.23913 13.0378 3.23913 13.0379 3.23913C13.0379 3.23913 13.038 3.23913 13.038 3.23913C13.0381 3.23913 13.0381 3.23913 13.0382 3.23913C13.0382 3.23913 13.0383 3.23913 13.0383 3.23913C13.0384 3.23913 13.0384 3.23913 13.0385 3.23913C13.0385 3.23913 13.0386 3.23913 13.0386 3.23913C13.0386 3.23913 13.0387 3.23913 13.0387 3.23913C13.0388 3.23913 13.0388 3.23913 13.0389 3.23913C13.0389 3.23913 13.039 3.23913 13.039 3.23913C13.0391 3.23913 13.0391 3.23913 13.0392 3.23913C13.0392 3.23913 13.0393 3.23913 13.0393 3.23913C13.0394 3.23913 13.0394 3.23913 13.0395 3.23913C13.0395 3.23913 13.0396 3.23913 13.0396 3.23913C13.0397 3.23913 13.0397 3.23913 13.0397 3.23913C13.0398 3.23913 13.0398 3.23913 13.0399 3.23913C13.0399 3.23913 13.04 3.23913 13.04 3.23913C13.0401 3.23913 13.0401 3.23913 13.0402 3.23913C13.0402 3.23913 13.0403 3.23913 13.0403 3.23913C13.0404 3.23913 13.0404 3.23913 13.0405 3.23913C13.0405 3.23913 13.0406 3.23913 13.0406 3.23913C13.0407 3.23913 13.0407 3.23913 13.0408 3.23913C13.0408 3.23913 13.0408 3.23913 13.0409 3.23913C13.0409 3.23913 13.041 3.23913 13.041 3.23913C13.0411 3.23913 13.0411 3.23913 13.0412 3.23913C13.0412 3.23913 13.0413 3.23913 13.0413 3.23913C13.0414 3.23913 13.0414 3.23913 13.0415 3.23913C13.0415 3.23913 13.0416 3.23913 13.0416 3.23913C13.0417 3.23913 13.0417 3.23913 13.0418 3.23913C13.0418 3.23913 13.0419 3.23913 13.0419 3.23913C13.0419 3.23913 13.042 3.23913 13.042 3.23913C13.0421 3.23913 13.0421 3.23913 13.0422 3.23913C13.0422 3.23913 13.0423 3.23913 13.0423 3.23913C13.0424 3.23913 13.0424 3.23913 13.0425 3.23913C13.0425 3.23913 13.0426 3.23913 13.0426 3.23913C13.0427 3.23913 13.0427 3.23913 13.0428 3.23913C13.0428 3.23913 13.0429 3.23913 13.0429 3.23913C13.043 3.23913 13.043 3.23913 13.043 3.23913C13.0431 3.23913 13.0431 3.23913 13.0432 3.23913C13.0432 3.23913 13.0433 3.23913 13.0433 3.23913C13.0434 3.23913 13.0434 3.23913 13.0435 3.23913C13.0435 3.23913 13.0436 3.23913 13.0436 3.23913C13.0437 3.23913 13.0437 3.23913 13.0438 3.23913C13.0438 3.23913 13.0439 3.23913 13.0439 3.23913C13.044 3.23913 13.044 3.23913 13.0441 3.23913C13.0441 3.23913 13.0441 3.23913 13.0442 3.23913C13.0442 3.23913 13.0443 3.23913 13.0443 3.23913C13.0444 3.23913 13.0444 3.23913 13.0445 3.23913C13.0445 3.23913 13.0446 3.23913 13.0446 3.23913C13.0447 3.23913 13.0447 3.23913 13.0448 3.23913C13.0448 3.23913 13.0449 3.23913 13.0449 3.23913C13.045 3.23913 13.045 3.23913 13.0451 3.23913C13.0451 3.23913 13.0452 3.23913 13.0452 3.23913C13.0452 3.23913 13.0453 3.23913 13.0453 3.23913C13.0454 3.23913 13.0454 3.23913 13.0455 3.23913C13.0455 3.23913 13.0456 3.23913 13.0456 3.23913C13.0457 3.23913 13.0457 3.23913 13.0458 3.23913C13.0458 3.23913 13.0459 3.23913 13.0459 3.23913C13.046 3.23913 13.046 3.23913 13.0461 3.23913C13.0461 3.23913 13.0462 3.23913 13.0462 3.23913C13.0463 3.23913 13.0463 3.23913 13.0463 3.23913C13.0464 3.23913 13.0464 3.23913 13.0465 3.23913C13.0465 3.23913 13.0466 3.23913 13.0466 3.23913V2.23913C13.0466 2.23913 13.0465 2.23913 13.0465 2.23913C13.0464 2.23913 13.0464 2.23913 13.0463 2.23913C13.0463 2.23913 13.0463 2.23913 13.0462 2.23913C13.0462 2.23913 13.0461 2.23913 13.0461 2.23913C13.046 2.23913 13.046 2.23913 13.0459 2.23913C13.0459 2.23913 13.0458 2.23913 13.0458 2.23913C13.0457 2.23913 13.0457 2.23913 13.0456 2.23913C13.0456 2.23913 13.0455 2.23913 13.0455 2.23913C13.0454 2.23913 13.0454 2.23913 13.0453 2.23913C13.0453 2.23913 13.0452 2.23913 13.0452 2.23913C13.0452 2.23913 13.0451 2.23913 13.0451 2.23913C13.045 2.23913 13.045 2.23913 13.0449 2.23913C13.0449 2.23913 13.0448 2.23913 13.0448 2.23913C13.0447 2.23913 13.0447 2.23913 13.0446 2.23913C13.0446 2.23913 13.0445 2.23913 13.0445 2.23913C13.0444 2.23913 13.0444 2.23913 13.0443 2.23913C13.0443 2.23913 13.0442 2.23913 13.0442 2.23913C13.0441 2.23913 13.0441 2.23913 13.0441 2.23913C13.044 2.23913 13.044 2.23913 13.0439 2.23913C13.0439 2.23913 13.0438 2.23913 13.0438 2.23913C13.0437 2.23913 13.0437 2.23913 13.0436 2.23913C13.0436 2.23913 13.0435 2.23913 13.0435 2.23913C13.0434 2.23913 13.0434 2.23913 13.0433 2.23913C13.0433 2.23913 13.0432 2.23913 13.0432 2.23913C13.0431 2.23913 13.0431 2.23913 13.043 2.23913C13.043 2.23913 13.043 2.23913 13.0429 2.23913C13.0429 2.23913 13.0428 2.23913 13.0428 2.23913C13.0427 2.23913 13.0427 2.23913 13.0426 2.23913C13.0426 2.23913 13.0425 2.23913 13.0425 2.23913C13.0424 2.23913 13.0424 2.23913 13.0423 2.23913C13.0423 2.23913 13.0422 2.23913 13.0422 2.23913C13.0421 2.23913 13.0421 2.23913 13.042 2.23913C13.042 2.23913 13.0419 2.23913 13.0419 2.23913C13.0419 2.23913 13.0418 2.23913 13.0418 2.23913C13.0417 2.23913 13.0417 2.23913 13.0416 2.23913C13.0416 2.23913 13.0415 2.23913 13.0415 2.23913C13.0414 2.23913 13.0414 2.23913 13.0413 2.23913C13.0413 2.23913 13.0412 2.23913 13.0412 2.23913C13.0411 2.23913 13.0411 2.23913 13.041 2.23913C13.041 2.23913 13.0409 2.23913 13.0409 2.23913C13.0408 2.23913 13.0408 2.23913 13.0408 2.23913C13.0407 2.23913 13.0407 2.23913 13.0406 2.23913C13.0406 2.23913 13.0405 2.23913 13.0405 2.23913C13.0404 2.23913 13.0404 2.23913 13.0403 2.23913C13.0403 2.23913 13.0402 2.23913 13.0402 2.23913C13.0401 2.23913 13.0401 2.23913 13.04 2.23913C13.04 2.23913 13.0399 2.23913 13.0399 2.23913C13.0398 2.23913 13.0398 2.23913 13.0397 2.23913C13.0397 2.23913 13.0397 2.23913 13.0396 2.23913C13.0396 2.23913 13.0395 2.23913 13.0395 2.23913C13.0394 2.23913 13.0394 2.23913 13.0393 2.23913C13.0393 2.23913 13.0392 2.23913 13.0392 2.23913C13.0391 2.23913 13.0391 2.23913 13.039 2.23913C13.039 2.23913 13.0389 2.23913 13.0389 2.23913C13.0388 2.23913 13.0388 2.23913 13.0387 2.23913C13.0387 2.23913 13.0386 2.23913 13.0386 2.23913C13.0386 2.23913 13.0385 2.23913 13.0385 2.23913C13.0384 2.23913 13.0384 2.23913 13.0383 2.23913C13.0383 2.23913 13.0382 2.23913 13.0382 2.23913C13.0381 2.23913 13.0381 2.23913 13.038 2.23913C13.038 2.23913 13.0379 2.23913 13.0379 2.23913C13.0378 2.23913 13.0378 2.23913 13.0377 2.23913C13.0377 2.23913 13.0376 2.23913 13.0376 2.23913C13.0375 2.23913 13.0375 2.23913 13.0375 2.23913C13.0374 2.23913 13.0374 2.23913 13.0373 2.23913C13.0373 2.23913 13.0372 2.23913 13.0372 2.23913C13.0371 2.23913 13.0371 2.23913 13.037 2.23913C13.037 2.23913 13.0369 2.23913 13.0369 2.23913C13.0368 2.23913 13.0368 2.23913 13.0367 2.23913C13.0367 2.23913 13.0366 2.23913 13.0366 2.23913C13.0365 2.23913 13.0365 2.23913 13.0364 2.23913C13.0364 2.23913 13.0364 2.23913 13.0363 2.23913C13.0363 2.23913 13.0362 2.23913 13.0362 2.23913C13.0361 2.23913 13.0361 2.23913 13.036 2.23913C13.036 2.23913 13.0359 2.23913 13.0359 2.23913C13.0358 2.23913 13.0358 2.23913 13.0357 2.23913C13.0357 2.23913 13.0356 2.23913 13.0356 2.23913C13.0355 2.23913 13.0355 2.23913 13.0354 2.23913C13.0354 2.23913 13.0353 2.23913 13.0353 2.23913C13.0353 2.23913 13.0352 2.23913 13.0352 2.23913C13.0351 2.23913 13.0351 2.23913 13.035 2.23913C13.035 2.23913 13.0349 2.23913 13.0349 2.23913C13.0348 2.23913 13.0348 2.23913 13.0347 2.23913C13.0347 2.23913 13.0346 2.23913 13.0346 2.23913C13.0345 2.23913 13.0345 2.23913 13.0344 2.23913C13.0344 2.23913 13.0343 2.23913 13.0343 2.23913C13.0342 2.23913 13.0342 2.23913 13.0342 2.23913C13.0341 2.23913 13.0341 2.23913 13.034 2.23913C13.034 2.23913 13.0339 2.23913 13.0339 2.23913C13.0338 2.23913 13.0338 2.23913 13.0337 2.23913C13.0337 2.23913 13.0336 2.23913 13.0336 2.23913C13.0335 2.23913 13.0335 2.23913 13.0334 2.23913C13.0334 2.23913 13.0333 2.23913 13.0333 2.23913C13.0332 2.23913 13.0332 2.23913 13.0331 2.23913C13.0331 2.23913 13.0331 2.23913 13.033 2.23913C13.033 2.23913 13.0329 2.23913 13.0329 2.23913C13.0328 2.23913 13.0328 2.23913 13.0327 2.23913C13.0327 2.23913 13.0326 2.23913 13.0326 2.23913C13.0325 2.23913 13.0325 2.23913 13.0324 2.23913C13.0324 2.23913 13.0323 2.23913 13.0323 2.23913C13.0322 2.23913 13.0322 2.23913 13.0321 2.23913C13.0321 2.23913 13.032 2.23913 13.032 2.23913C13.032 2.23913 13.0319 2.23913 13.0319 2.23913C13.0318 2.23913 13.0318 2.23913 13.0317 2.23913C13.0317 2.23913 13.0316 2.23913 13.0316 2.23913C13.0315 2.23913 13.0315 2.23913 13.0314 2.23913C13.0314 2.23913 13.0313 2.23913 13.0313 2.23913C13.0312 2.23913 13.0312 2.23913 13.0311 2.23913C13.0311 2.23913 13.031 2.23913 13.031 2.23913C13.0309 2.23913 13.0309 2.23913 13.0309 2.23913C13.0308 2.23913 13.0308 2.23913 13.0307 2.23913C13.0307 2.23913 13.0306 2.23913 13.0306 2.23913C13.0305 2.23913 13.0305 2.23913 13.0304 2.23913C13.0304 2.23913 13.0303 2.23913 13.0303 2.23913C13.0302 2.23913 13.0302 2.23913 13.0301 2.23913C13.0301 2.23913 13.03 2.23913 13.03 2.23913C13.0299 2.23913 13.0299 2.23913 13.0298 2.23913C13.0298 2.23913 13.0298 2.23913 13.0297 2.23913C13.0297 2.23913 13.0296 2.23913 13.0296 2.23913C13.0295 2.23913 13.0295 2.23913 13.0294 2.23913C13.0294 2.23913 13.0293 2.23913 13.0293 2.23913C13.0292 2.23913 13.0292 2.23913 13.0291 2.23913C13.0291 2.23913 13.029 2.23913 13.029 2.23913C13.0289 2.23913 13.0289 2.23913 13.0288 2.23913C13.0288 2.23913 13.0287 2.23913 13.0287 2.23913C13.0287 2.23913 13.0286 2.23913 13.0286 2.23913C13.0285 2.23913 13.0285 2.23913 13.0284 2.23913C13.0284 2.23913 13.0283 2.23913 13.0283 2.23913C13.0282 2.23913 13.0282 2.23913 13.0281 2.23913C13.0281 2.23913 13.028 2.23913 13.028 2.23913C13.0279 2.23913 13.0279 2.23913 13.0278 2.23913C13.0278 2.23913 13.0277 2.23913 13.0277 2.23913C13.0276 2.23913 13.0276 2.23913 13.0276 2.23913C13.0275 2.23913 13.0275 2.23913 13.0274 2.23913C13.0274 2.23913 13.0273 2.23913 13.0273 2.23913C13.0272 2.23913 13.0272 2.23913 13.0271 2.23913C13.0271 2.23913 13.027 2.23913 13.027 2.23913C13.0269 2.23913 13.0269 2.23913 13.0268 2.23913C13.0268 2.23913 13.0267 2.23913 13.0267 2.23913C13.0266 2.23913 13.0266 2.23913 13.0265 2.23913C13.0265 2.23913 13.0265 2.23913 13.0264 2.23913C13.0264 2.23913 13.0263 2.23913 13.0263 2.23913C13.0262 2.23913 13.0262 2.23913 13.0261 2.23913C13.0261 2.23913 13.026 2.23913 13.026 2.23913C13.0259 2.23913 13.0259 2.23913 13.0258 2.23913C13.0258 2.23913 13.0257 2.23913 13.0257 2.23913C13.0256 2.23913 13.0256 2.23913 13.0255 2.23913C13.0255 2.23913 13.0254 2.23913 13.0254 2.23913C13.0254 2.23913 13.0253 2.23913 13.0253 2.23913C13.0252 2.23913 13.0252 2.23913 13.0251 2.23913C13.0251 2.23913 13.025 2.23913 13.025 2.23913C13.0249 2.23913 13.0249 2.23913 13.0248 2.23913C13.0248 2.23913 13.0247 2.23913 13.0247 2.23913C13.0246 2.23913 13.0246 2.23913 13.0245 2.23913C13.0245 2.23913 13.0244 2.23913 13.0244 2.23913C13.0243 2.23913 13.0243 2.23913 13.0243 2.23913C13.0242 2.23913 13.0242 2.23913 13.0241 2.23913C13.0241 2.23913 13.024 2.23913 13.024 2.23913C13.0239 2.23913 13.0239 2.23913 13.0238 2.23913C13.0238 2.23913 13.0237 2.23913 13.0237 2.23913C13.0236 2.23913 13.0236 2.23913 13.0235 2.23913C13.0235 2.23913 13.0234 2.23913 13.0234 2.23913C13.0233 2.23913 13.0233 2.23913 13.0232 2.23913C13.0232 2.23913 13.0232 2.23913 13.0231 2.23913C13.0231 2.23913 13.023 2.23913 13.023 2.23913C13.0229 2.23913 13.0229 2.23913 13.0228 2.23913C13.0228 2.23913 13.0227 2.23913 13.0227 2.23913C13.0226 2.23913 13.0226 2.23913 13.0225 2.23913C13.0225 2.23913 13.0224 2.23913 13.0224 2.23913C13.0223 2.23913 13.0223 2.23913 13.0222 2.23913C13.0222 2.23913 13.0221 2.23913 13.0221 2.23913C13.0221 2.23913 13.022 2.23913 13.022 2.23913C13.0219 2.23913 13.0219 2.23913 13.0218 2.23913C13.0218 2.23913 13.0217 2.23913 13.0217 2.23913C13.0216 2.23913 13.0216 2.23913 13.0215 2.23913C13.0215 2.23913 13.0214 2.23913 13.0214 2.23913C13.0213 2.23913 13.0213 2.23913 13.0212 2.23913C13.0212 2.23913 13.0211 2.23913 13.0211 2.23913C13.021 2.23913 13.021 2.23913 13.021 2.23913C13.0209 2.23913 13.0209 2.23913 13.0208 2.23913C13.0208 2.23913 13.0207 2.23913 13.0207 2.23913C13.0206 2.23913 13.0206 2.23913 13.0205 2.23913C13.0205 2.23913 13.0204 2.23913 13.0204 2.23913C13.0203 2.23913 13.0203 2.23913 13.0202 2.23913C13.0202 2.23913 13.0201 2.23913 13.0201 2.23913C13.02 2.23913 13.02 2.23913 13.0199 2.23913C13.0199 2.23913 13.0199 2.23913 13.0198 2.23913C13.0198 2.23913 13.0197 2.23913 13.0197 2.23913C13.0196 2.23913 13.0196 2.23913 13.0195 2.23913C13.0195 2.23913 13.0194 2.23913 13.0194 2.23913C13.0193 2.23913 13.0193 2.23913 13.0192 2.23913C13.0192 2.23913 13.0191 2.23913 13.0191 2.23913C13.019 2.23913 13.019 2.23913 13.0189 2.23913C13.0189 2.23913 13.0188 2.23913 13.0188 2.23913C13.0188 2.23913 13.0187 2.23913 13.0187 2.23913C13.0186 2.23913 13.0186 2.23913 13.0185 2.23913C13.0185 2.23913 13.0184 2.23913 13.0184 2.23913C13.0183 2.23913 13.0183 2.23913 13.0182 2.23913C13.0182 2.23913 13.0181 2.23913 13.0181 2.23913C13.018 2.23913 13.018 2.23913 13.0179 2.23913C13.0179 2.23913 13.0178 2.23913 13.0178 2.23913C13.0177 2.23913 13.0177 2.23913 13.0177 2.23913C13.0176 2.23913 13.0176 2.23913 13.0175 2.23913C13.0175 2.23913 13.0174 2.23913 13.0174 2.23913C13.0173 2.23913 13.0173 2.23913 13.0172 2.23913C13.0172 2.23913 13.0171 2.23913 13.0171 2.23913C13.017 2.23913 13.017 2.23913 13.0169 2.23913C13.0169 2.23913 13.0168 2.23913 13.0168 2.23913C13.0167 2.23913 13.0167 2.23913 13.0166 2.23913C13.0166 2.23913 13.0166 2.23913 13.0165 2.23913C13.0165 2.23913 13.0164 2.23913 13.0164 2.23913C13.0163 2.23913 13.0163 2.23913 13.0162 2.23913C13.0162 2.23913 13.0161 2.23913 13.0161 2.23913C13.016 2.23913 13.016 2.23913 13.0159 2.23913C13.0159 2.23913 13.0158 2.23913 13.0158 2.23913C13.0157 2.23913 13.0157 2.23913 13.0156 2.23913C13.0156 2.23913 13.0155 2.23913 13.0155 2.23913C13.0154 2.23913 13.0154 2.23913 13.0154 2.23913C13.0153 2.23913 13.0153 2.23913 13.0152 2.23913C13.0152 2.23913 13.0151 2.23913 13.0151 2.23913C13.015 2.23913 13.015 2.23913 13.0149 2.23913C13.0149 2.23913 13.0148 2.23913 13.0148 2.23913C13.0147 2.23913 13.0147 2.23913 13.0146 2.23913C13.0146 2.23913 13.0145 2.23913 13.0145 2.23913C13.0144 2.23913 13.0144 2.23913 13.0143 2.23913C13.0143 2.23913 13.0143 2.23913 13.0142 2.23913C13.0142 2.23913 13.0141 2.23913 13.0141 2.23913C13.014 2.23913 13.014 2.23913 13.0139 2.23913C13.0139 2.23913 13.0138 2.23913 13.0138 2.23913C13.0137 2.23913 13.0137 2.23913 13.0136 2.23913C13.0136 2.23913 13.0135 2.23913 13.0135 2.23913C13.0134 2.23913 13.0134 2.23913 13.0133 2.23913C13.0133 2.23913 13.0132 2.23913 13.0132 2.23913C13.0132 2.23913 13.0131 2.23913 13.0131 2.23913C13.013 2.23913 13.013 2.23913 13.0129 2.23913C13.0129 2.23913 13.0128 2.23913 13.0128 2.23913C13.0127 2.23913 13.0127 2.23913 13.0126 2.23913C13.0126 2.23913 13.0125 2.23913 13.0125 2.23913C13.0124 2.23913 13.0124 2.23913 13.0123 2.23913C13.0123 2.23913 13.0122 2.23913 13.0122 2.23913C13.0121 2.23913 13.0121 2.23913 13.0121 2.23913C13.012 2.23913 13.012 2.23913 13.0119 2.23913C13.0119 2.23913 13.0118 2.23913 13.0118 2.23913C13.0117 2.23913 13.0117 2.23913 13.0116 2.23913C13.0116 2.23913 13.0115 2.23913 13.0115 2.23913C13.0114 2.23913 13.0114 2.23913 13.0113 2.23913C13.0113 2.23913 13.0112 2.23913 13.0112 2.23913C13.0111 2.23913 13.0111 2.23913 13.011 2.23913C13.011 2.23913 13.011 2.23913 13.0109 2.23913C13.0109 2.23913 13.0108 2.23913 13.0108 2.23913C13.0107 2.23913 13.0107 2.23913 13.0106 2.23913C13.0106 2.23913 13.0105 2.23913 13.0105 2.23913C13.0104 2.23913 13.0104 2.23913 13.0103 2.23913C13.0103 2.23913 13.0102 2.23913 13.0102 2.23913C13.0101 2.23913 13.0101 2.23913 13.01 2.23913C13.01 2.23913 13.0099 2.23913 13.0099 2.23913C13.0099 2.23913 13.0098 2.23913 13.0098 2.23913C13.0097 2.23913 13.0097 2.23913 13.0096 2.23913C13.0096 2.23913 13.0095 2.23913 13.0095 2.23913C13.0094 2.23913 13.0094 2.23913 13.0093 2.23913C13.0093 2.23913 13.0092 2.23913 13.0092 2.23913C13.0091 2.23913 13.0091 2.23913 13.009 2.23913C13.009 2.23913 13.0089 2.23913 13.0089 2.23913C13.0088 2.23913 13.0088 2.23913 13.0088 2.23913C13.0087 2.23913 13.0087 2.23913 13.0086 2.23913C13.0086 2.23913 13.0085 2.23913 13.0085 2.23913C13.0084 2.23913 13.0084 2.23913 13.0083 2.23913C13.0083 2.23913 13.0082 2.23913 13.0082 2.23913C13.0081 2.23913 13.0081 2.23913 13.008 2.23913C13.008 2.23913 13.0079 2.23913 13.0079 2.23913C13.0078 2.23913 13.0078 2.23913 13.0077 2.23913C13.0077 2.23913 13.0077 2.23913 13.0076 2.23913C13.0076 2.23913 13.0075 2.23913 13.0075 2.23913C13.0074 2.23913 13.0074 2.23913 13.0073 2.23913C13.0073 2.23913 13.0072 2.23913 13.0072 2.23913C13.0071 2.23913 13.0071 2.23913 13.007 2.23913C13.007 2.23913 13.0069 2.23913 13.0069 2.23913C13.0068 2.23913 13.0068 2.23913 13.0067 2.23913C13.0067 2.23913 13.0066 2.23913 13.0066 2.23913C13.0066 2.23913 13.0065 2.23913 13.0065 2.23913C13.0064 2.23913 13.0064 2.23913 13.0063 2.23913C13.0063 2.23913 13.0062 2.23913 13.0062 2.23913C13.0061 2.23913 13.0061 2.23913 13.006 2.23913C13.006 2.23913 13.0059 2.23913 13.0059 2.23913C13.0058 2.23913 13.0058 2.23913 13.0057 2.23913C13.0057 2.23913 13.0056 2.23913 13.0056 2.23913C13.0055 2.23913 13.0055 2.23913 13.0055 2.23913C13.0054 2.23913 13.0054 2.23913 13.0053 2.23913C13.0053 2.23913 13.0052 2.23913 13.0052 2.23913C13.0051 2.23913 13.0051 2.23913 13.005 2.23913C13.005 2.23913 13.0049 2.23913 13.0049 2.23913C13.0048 2.23913 13.0048 2.23913 13.0047 2.23913C13.0047 2.23913 13.0046 2.23913 13.0046 2.23913C13.0045 2.23913 13.0045 2.23913 13.0044 2.23913C13.0044 2.23913 13.0044 2.23913 13.0043 2.23913C13.0043 2.23913 13.0042 2.23913 13.0042 2.23913C13.0041 2.23913 13.0041 2.23913 13.004 2.23913C13.004 2.23913 13.0039 2.23913 13.0039 2.23913C13.0038 2.23913 13.0038 2.23913 13.0037 2.23913C13.0037 2.23913 13.0036 2.23913 13.0036 2.23913C13.0035 2.23913 13.0035 2.23913 13.0034 2.23913C13.0034 2.23913 13.0033 2.23913 13.0033 2.23913C13.0033 2.23913 13.0032 2.23913 13.0032 2.23913C13.0031 2.23913 13.0031 2.23913 13.003 2.23913C13.003 2.23913 13.0029 2.23913 13.0029 2.23913C13.0028 2.23913 13.0028 2.23913 13.0027 2.23913C13.0027 2.23913 13.0026 2.23913 13.0026 2.23913C13.0025 2.23913 13.0025 2.23913 13.0024 2.23913C13.0024 2.23913 13.0023 2.23913 13.0023 2.23913C13.0022 2.23913 13.0022 2.23913 13.0022 2.23913C13.0021 2.23913 13.0021 2.23913 13.002 2.23913C13.002 2.23913 13.0019 2.23913 13.0019 2.23913C13.0018 2.23913 13.0018 2.23913 13.0017 2.23913C13.0017 2.23913 13.0016 2.23913 13.0016 2.23913C13.0015 2.23913 13.0015 2.23913 13.0014 2.23913C13.0014 2.23913 13.0013 2.23913 13.0013 2.23913C13.0012 2.23913 13.0012 2.23913 13.0011 2.23913C13.0011 2.23913 13.0011 2.23913 13.001 2.23913C13.001 2.23913 13.0009 2.23913 13.0009 2.23913C13.0008 2.23913 13.0008 2.23913 13.0007 2.23913C13.0007 2.23913 13.0006 2.23913 13.0006 2.23913C13.0005 2.23913 13.0005 2.23913 13.0004 2.23913C13.0004 2.23913 13.0003 2.23913 13.0003 2.23913C13.0002 2.23913 13.0002 2.23913 13.0001 2.23913C13.0001 2.23913 13 2.23913 13 2.23913C13 2.23913 12.9999 2.23913 12.9999 2.23913C12.9998 2.23913 12.9998 2.23913 12.9997 2.23913C12.9997 2.23913 12.9996 2.23913 12.9996 2.23913C12.9995 2.23913 12.9995 2.23913 12.9994 2.23913C12.9994 2.23913 12.9993 2.23913 12.9993 2.23913C12.9992 2.23913 12.9992 2.23913 12.9991 2.23913C12.9991 2.23913 12.999 2.23913 12.999 2.23913C12.9989 2.23913 12.9989 2.23913 12.9988 2.23913C12.9988 2.23913 12.9988 2.23913 12.9987 2.23913C12.9987 2.23913 12.9986 2.23913 12.9986 2.23913C12.9985 2.23913 12.9985 2.23913 12.9984 2.23913C12.9984 2.23913 12.9983 2.23913 12.9983 2.23913C12.9982 2.23913 12.9982 2.23913 12.9981 2.23913C12.9981 2.23913 12.998 2.23913 12.998 2.23913C12.9979 2.23913 12.9979 2.23913 12.9978 2.23913C12.9978 2.23913 12.9978 2.23913 12.9977 2.23913C12.9977 2.23913 12.9976 2.23913 12.9976 2.23913C12.9975 2.23913 12.9975 2.23913 12.9974 2.23913C12.9974 2.23913 12.9973 2.23913 12.9973 2.23913C12.9972 2.23913 12.9972 2.23913 12.9971 2.23913C12.9971 2.23913 12.997 2.23913 12.997 2.23913C12.9969 2.23913 12.9969 2.23913 12.9968 2.23913C12.9968 2.23913 12.9967 2.23913 12.9967 2.23913C12.9966 2.23913 12.9966 2.23913 12.9966 2.23913C12.9965 2.23913 12.9965 2.23913 12.9964 2.23913C12.9964 2.23913 12.9963 2.23913 12.9963 2.23913C12.9962 2.23913 12.9962 2.23913 12.9961 2.23913C12.9961 2.23913 12.996 2.23913 12.996 2.23913C12.9959 2.23913 12.9959 2.23913 12.9958 2.23913C12.9958 2.23913 12.9957 2.23913 12.9957 2.23913C12.9956 2.23913 12.9956 2.23913 12.9955 2.23913C12.9955 2.23913 12.9955 2.23913 12.9954 2.23913C12.9954 2.23913 12.9953 2.23913 12.9953 2.23913C12.9952 2.23913 12.9952 2.23913 12.9951 2.23913C12.9951 2.23913 12.995 2.23913 12.995 2.23913C12.9949 2.23913 12.9949 2.23913 12.9948 2.23913C12.9948 2.23913 12.9947 2.23913 12.9947 2.23913C12.9946 2.23913 12.9946 2.23913 12.9945 2.23913C12.9945 2.23913 12.9944 2.23913 12.9944 2.23913C12.9944 2.23913 12.9943 2.23913 12.9943 2.23913C12.9942 2.23913 12.9942 2.23913 12.9941 2.23913C12.9941 2.23913 12.994 2.23913 12.994 2.23913C12.9939 2.23913 12.9939 2.23913 12.9938 2.23913C12.9938 2.23913 12.9937 2.23913 12.9937 2.23913C12.9936 2.23913 12.9936 2.23913 12.9935 2.23913C12.9935 2.23913 12.9934 2.23913 12.9934 2.23913C12.9933 2.23913 12.9933 2.23913 12.9933 2.23913C12.9932 2.23913 12.9932 2.23913 12.9931 2.23913C12.9931 2.23913 12.993 2.23913 12.993 2.23913C12.9929 2.23913 12.9929 2.23913 12.9928 2.23913C12.9928 2.23913 12.9927 2.23913 12.9927 2.23913C12.9926 2.23913 12.9926 2.23913 12.9925 2.23913C12.9925 2.23913 12.9924 2.23913 12.9924 2.23913C12.9923 2.23913 12.9923 2.23913 12.9922 2.23913C12.9922 2.23913 12.9922 2.23913 12.9921 2.23913C12.9921 2.23913 12.992 2.23913 12.992 2.23913C12.9919 2.23913 12.9919 2.23913 12.9918 2.23913C12.9918 2.23913 12.9917 2.23913 12.9917 2.23913C12.9916 2.23913 12.9916 2.23913 12.9915 2.23913C12.9915 2.23913 12.9914 2.23913 12.9914 2.23913C12.9913 2.23913 12.9913 2.23913 12.9912 2.23913C12.9912 2.23913 12.9911 2.23913 12.9911 2.23913C12.9911 2.23913 12.991 2.23913 12.991 2.23913C12.9909 2.23913 12.9909 2.23913 12.9908 2.23913C12.9908 2.23913 12.9907 2.23913 12.9907 2.23913C12.9906 2.23913 12.9906 2.23913 12.9905 2.23913C12.9905 2.23913 12.9904 2.23913 12.9904 2.23913C12.9903 2.23913 12.9903 2.23913 12.9902 2.23913C12.9902 2.23913 12.9901 2.23913 12.9901 2.23913C12.99 2.23913 12.99 2.23913 12.99 2.23913C12.9899 2.23913 12.9899 2.23913 12.9898 2.23913C12.9898 2.23913 12.9897 2.23913 12.9897 2.23913C12.9896 2.23913 12.9896 2.23913 12.9895 2.23913C12.9895 2.23913 12.9894 2.23913 12.9894 2.23913C12.9893 2.23913 12.9893 2.23913 12.9892 2.23913C12.9892 2.23913 12.9891 2.23913 12.9891 2.23913C12.989 2.23913 12.989 2.23913 12.9889 2.23913C12.9889 2.23913 12.9889 2.23913 12.9888 2.23913C12.9888 2.23913 12.9887 2.23913 12.9887 2.23913C12.9886 2.23913 12.9886 2.23913 12.9885 2.23913C12.9885 2.23913 12.9884 2.23913 12.9884 2.23913C12.9883 2.23913 12.9883 2.23913 12.9882 2.23913C12.9882 2.23913 12.9881 2.23913 12.9881 2.23913C12.988 2.23913 12.988 2.23913 12.9879 2.23913C12.9879 2.23913 12.9878 2.23913 12.9878 2.23913C12.9878 2.23913 12.9877 2.23913 12.9877 2.23913C12.9876 2.23913 12.9876 2.23913 12.9875 2.23913C12.9875 2.23913 12.9874 2.23913 12.9874 2.23913C12.9873 2.23913 12.9873 2.23913 12.9872 2.23913C12.9872 2.23913 12.9871 2.23913 12.9871 2.23913C12.987 2.23913 12.987 2.23913 12.9869 2.23913C12.9869 2.23913 12.9868 2.23913 12.9868 2.23913C12.9867 2.23913 12.9867 2.23913 12.9867 2.23913C12.9866 2.23913 12.9866 2.23913 12.9865 2.23913C12.9865 2.23913 12.9864 2.23913 12.9864 2.23913C12.9863 2.23913 12.9863 2.23913 12.9862 2.23913C12.9862 2.23913 12.9861 2.23913 12.9861 2.23913C12.986 2.23913 12.986 2.23913 12.9859 2.23913C12.9859 2.23913 12.9858 2.23913 12.9858 2.23913C12.9857 2.23913 12.9857 2.23913 12.9856 2.23913C12.9856 2.23913 12.9856 2.23913 12.9855 2.23913C12.9855 2.23913 12.9854 2.23913 12.9854 2.23913C12.9853 2.23913 12.9853 2.23913 12.9852 2.23913C12.9852 2.23913 12.9851 2.23913 12.9851 2.23913C12.985 2.23913 12.985 2.23913 12.9849 2.23913C12.9849 2.23913 12.9848 2.23913 12.9848 2.23913C12.9847 2.23913 12.9847 2.23913 12.9846 2.23913C12.9846 2.23913 12.9845 2.23913 12.9845 2.23913C12.9845 2.23913 12.9844 2.23913 12.9844 2.23913C12.9843 2.23913 12.9843 2.23913 12.9842 2.23913C12.9842 2.23913 12.9841 2.23913 12.9841 2.23913C12.984 2.23913 12.984 2.23913 12.9839 2.23913C12.9839 2.23913 12.9838 2.23913 12.9838 2.23913C12.9837 2.23913 12.9837 2.23913 12.9836 2.23913C12.9836 2.23913 12.9835 2.23913 12.9835 2.23913C12.9834 2.23913 12.9834 2.23913 12.9834 2.23913C12.9833 2.23913 12.9833 2.23913 12.9832 2.23913C12.9832 2.23913 12.9831 2.23913 12.9831 2.23913C12.983 2.23913 12.983 2.23913 12.9829 2.23913C12.9829 2.23913 12.9828 2.23913 12.9828 2.23913C12.9827 2.23913 12.9827 2.23913 12.9826 2.23913C12.9826 2.23913 12.9825 2.23913 12.9825 2.23913C12.9824 2.23913 12.9824 2.23913 12.9823 2.23913C12.9823 2.23913 12.9823 2.23913 12.9822 2.23913C12.9822 2.23913 12.9821 2.23913 12.9821 2.23913C12.982 2.23913 12.982 2.23913 12.9819 2.23913C12.9819 2.23913 12.9818 2.23913 12.9818 2.23913C12.9817 2.23913 12.9817 2.23913 12.9816 2.23913C12.9816 2.23913 12.9815 2.23913 12.9815 2.23913C12.9814 2.23913 12.9814 2.23913 12.9813 2.23913C12.9813 2.23913 12.9812 2.23913 12.9812 2.23913C12.9812 2.23913 12.9811 2.23913 12.9811 2.23913C12.981 2.23913 12.981 2.23913 12.9809 2.23913C12.9809 2.23913 12.9808 2.23913 12.9808 2.23913C12.9807 2.23913 12.9807 2.23913 12.9806 2.23913C12.9806 2.23913 12.9805 2.23913 12.9805 2.23913C12.9804 2.23913 12.9804 2.23913 12.9803 2.23913C12.9803 2.23913 12.9802 2.23913 12.9802 2.23913C12.9801 2.23913 12.9801 2.23913 12.9801 2.23913C12.98 2.23913 12.98 2.23913 12.9799 2.23913C12.9799 2.23913 12.9798 2.23913 12.9798 2.23913C12.9797 2.23913 12.9797 2.23913 12.9796 2.23913C12.9796 2.23913 12.9795 2.23913 12.9795 2.23913C12.9794 2.23913 12.9794 2.23913 12.9793 2.23913C12.9793 2.23913 12.9792 2.23913 12.9792 2.23913C12.9791 2.23913 12.9791 2.23913 12.979 2.23913C12.979 2.23913 12.979 2.23913 12.9789 2.23913C12.9789 2.23913 12.9788 2.23913 12.9788 2.23913C12.9787 2.23913 12.9787 2.23913 12.9786 2.23913C12.9786 2.23913 12.9785 2.23913 12.9785 2.23913C12.9784 2.23913 12.9784 2.23913 12.9783 2.23913C12.9783 2.23913 12.9782 2.23913 12.9782 2.23913C12.9781 2.23913 12.9781 2.23913 12.978 2.23913C12.978 2.23913 12.9779 2.23913 12.9779 2.23913C12.9779 2.23913 12.9778 2.23913 12.9778 2.23913C12.9777 2.23913 12.9777 2.23913 12.9776 2.23913C12.9776 2.23913 12.9775 2.23913 12.9775 2.23913C12.9774 2.23913 12.9774 2.23913 12.9773 2.23913C12.9773 2.23913 12.9772 2.23913 12.9772 2.23913C12.9771 2.23913 12.9771 2.23913 12.977 2.23913C12.977 2.23913 12.9769 2.23913 12.9769 2.23913C12.9768 2.23913 12.9768 2.23913 12.9768 2.23913C12.9767 2.23913 12.9767 2.23913 12.9766 2.23913C12.9766 2.23913 12.9765 2.23913 12.9765 2.23913C12.9764 2.23913 12.9764 2.23913 12.9763 2.23913C12.9763 2.23913 12.9762 2.23913 12.9762 2.23913C12.9761 2.23913 12.9761 2.23913 12.976 2.23913C12.976 2.23913 12.9759 2.23913 12.9759 2.23913C12.9758 2.23913 12.9758 2.23913 12.9757 2.23913C12.9757 2.23913 12.9757 2.23913 12.9756 2.23913C12.9756 2.23913 12.9755 2.23913 12.9755 2.23913C12.9754 2.23913 12.9754 2.23913 12.9753 2.23913C12.9753 2.23913 12.9752 2.23913 12.9752 2.23913C12.9751 2.23913 12.9751 2.23913 12.975 2.23913C12.975 2.23913 12.9749 2.23913 12.9749 2.23913C12.9748 2.23913 12.9748 2.23913 12.9747 2.23913C12.9747 2.23913 12.9746 2.23913 12.9746 2.23913C12.9746 2.23913 12.9745 2.23913 12.9745 2.23913C12.9744 2.23913 12.9744 2.23913 12.9743 2.23913C12.9743 2.23913 12.9742 2.23913 12.9742 2.23913C12.9741 2.23913 12.9741 2.23913 12.974 2.23913C12.974 2.23913 12.9739 2.23913 12.9739 2.23913C12.9738 2.23913 12.9738 2.23913 12.9737 2.23913C12.9737 2.23913 12.9736 2.23913 12.9736 2.23913C12.9735 2.23913 12.9735 2.23913 12.9735 2.23913C12.9734 2.23913 12.9734 2.23913 12.9733 2.23913C12.9733 2.23913 12.9732 2.23913 12.9732 2.23913V3.23913ZM13.3712 5.84781C14.6271 5.87136 15.8159 6.66948 16.352 7.8041L17.2561 7.37688C16.5644 5.91284 15.0412 4.87895 13.39 4.84799L13.3712 5.84781ZM16.352 7.80411C16.967 9.10574 16.735 10.7512 15.7298 11.8234L16.4594 12.5073C17.7522 11.1282 18.0422 9.04038 17.2561 7.37687L16.352 7.80411ZM16.0946 12.1654C15.7465 11.8065 15.7466 11.8064 15.7467 11.8063C15.7467 11.8063 15.7468 11.8062 15.7469 11.8061C15.7471 11.8059 15.7472 11.8058 15.7474 11.8057C15.7476 11.8054 15.7479 11.8051 15.7482 11.8048C15.7487 11.8043 15.7493 11.8038 15.7497 11.8034C15.7507 11.8024 15.7516 11.8017 15.7523 11.801C15.7538 11.7996 15.7548 11.7987 15.7554 11.7981C15.7566 11.7971 15.7563 11.7974 15.7549 11.7985C15.7515 11.8012 15.746 11.8051 15.7404 11.8083C15.7197 11.8201 15.7446 11.7981 15.8032 11.8061L15.6682 12.7969C15.9185 12.831 16.1229 12.741 16.2337 12.6782C16.2938 12.6441 16.3422 12.609 16.3761 12.5822C16.3933 12.5685 16.4076 12.5563 16.4187 12.5465C16.4243 12.5416 16.4291 12.5372 16.4331 12.5335C16.4351 12.5316 16.4369 12.5299 16.4385 12.5284C16.4393 12.5276 16.4401 12.5269 16.4408 12.5262C16.4411 12.5258 16.4415 12.5255 16.4418 12.5252C16.442 12.525 16.4421 12.5249 16.4423 12.5247C16.4424 12.5246 16.4425 12.5245 16.4425 12.5245C16.4426 12.5244 16.4428 12.5243 16.0946 12.1654ZM15.8032 11.8061C15.8032 11.8061 15.81 11.807 15.8214 11.812C15.833 11.817 15.8481 11.8257 15.8638 11.8395C15.8979 11.8697 15.9177 11.9089 15.9244 11.9428C15.9368 12.0053 15.8996 11.9805 15.9897 11.8776L15.2371 11.219C15.0189 11.4684 14.8762 11.7974 14.9435 12.1371C15.0174 12.51 15.3162 12.7489 15.6682 12.7969L15.8032 11.8061ZM15.9939 11.8727C17.3907 10.2347 17.1274 7.44609 15.2652 6.1956L14.7077 7.02579C16.0422 7.92191 16.2671 10.0111 15.233 11.2239L15.9939 11.8727ZM15.2652 6.19559C13.9162 5.28982 11.96 5.49912 10.8034 6.70086L11.5238 7.39432C12.3491 6.5369 13.7675 6.39448 14.7077 7.0258L15.2652 6.19559ZM11.1636 7.04759C10.8803 6.63559 10.8804 6.63549 10.8806 6.6354C10.8806 6.63537 10.8808 6.63527 10.8809 6.63521C10.881 6.63509 10.8812 6.63496 10.8814 6.63484C10.8817 6.63461 10.8821 6.63438 10.8824 6.63416C10.883 6.63373 10.8836 6.63334 10.8841 6.63299C10.8852 6.63229 10.886 6.63175 10.8866 6.63135C10.8878 6.63056 10.8882 6.63033 10.8879 6.63054C10.8871 6.63101 10.8838 6.63302 10.8785 6.63581C10.8668 6.64207 10.8528 6.64832 10.8404 6.65216C10.801 6.66436 10.8601 6.63366 10.9355 6.68678L10.3594 7.50418C10.6553 7.71271 10.9725 7.65806 11.136 7.60747C11.2251 7.57991 11.2988 7.54504 11.3494 7.51804C11.3753 7.5042 11.3968 7.49155 11.4131 7.4815C11.4212 7.47646 11.4282 7.47201 11.4338 7.46832C11.4367 7.46647 11.4392 7.46481 11.4414 7.46335C11.4424 7.46261 11.4435 7.46193 11.4444 7.46131C11.4448 7.46099 11.4453 7.46069 11.4457 7.46041C11.4459 7.46026 11.4461 7.46012 11.4463 7.45998C11.4464 7.45992 11.4466 7.45982 11.4466 7.45978C11.4468 7.45968 11.4469 7.45958 11.1636 7.04759ZM10.9355 6.6868C10.9488 6.69615 10.9757 6.71989 10.9972 6.76215C11.0189 6.8046 11.0243 6.84483 11.0238 6.87192C11.0229 6.91305 11.0099 6.90436 11.0532 6.83709C11.1364 6.70792 11.3132 6.53875 11.5145 6.40354L10.9569 5.57342C10.6896 5.753 10.3949 6.0124 10.2125 6.29556C10.1231 6.43446 10.0287 6.62788 10.024 6.85081C10.0185 7.11044 10.1368 7.3473 10.3594 7.50416L10.9355 6.6868ZM11.5144 6.40361C12.0545 6.04102 12.7101 5.84377 13.3775 5.84789L13.3837 4.84791C12.5185 4.84257 11.6661 5.09735 10.957 5.57334L11.5144 6.40361Z" fill="white"/>
</svg>
